<?xml version="1.0" encoding="UTF-8" standalone="no"?>
<!-- Created with Inkscape (http://www.inkscape.org/) -->

<svg
   xmlns:dc="http://purl.org/dc/elements/1.1/"
   xmlns:cc="http://creativecommons.org/ns#"
   xmlns:rdf="http://www.w3.org/1999/02/22-rdf-syntax-ns#"
   xmlns:svg="http://www.w3.org/2000/svg"
   xmlns="http://www.w3.org/2000/svg"
   xmlns:sodipodi="http://sodipodi.sourceforge.net/DTD/sodipodi-0.dtd"
   xmlns:inkscape="http://www.inkscape.org/namespaces/inkscape"
   width="260"
   height="260"
   viewBox="0 0 259.99999 260"
   id="svg5995"
   version="1.1"
   inkscape:version="0.91 r13725"
   sodipodi:docname="favicon.svg">
  <defs
     id="defs5997">
    <filter
       y="-0.25"
       height="1.5"
       inkscape:menu-tooltip="Darkens the edge with an inner blur and adds a flexible glow"
       inkscape:menu="Shadows and Glows"
       inkscape:label="Dark And Glow"
       style="color-interpolation-filters:sRGB"
       id="filter5397-5-5">
      <feGaussianBlur
         stdDeviation="5"
         result="result6"
         id="feGaussianBlur5399-7-5" />
      <feComposite
         result="result8"
         in="SourceGraphic"
         operator="atop"
         in2="result6"
         id="feComposite5401-2-4" />
      <feComposite
         result="result9"
         operator="over"
         in2="SourceAlpha"
         in="result8"
         id="feComposite5403-5-2" />
      <feColorMatrix
         values="1 0 0 0 0 0 1 0 0 0 0 0 1 0 0 0 0 0 1 0 "
         result="result10"
         id="feColorMatrix5405-8-1" />
      <feBlend
         in="result10"
         mode="normal"
         in2="result6"
         id="feBlend5407-1-8" />
    </filter>
    <filter
       y="-0.25"
       height="1.5"
       inkscape:menu-tooltip="Darkens the edge with an inner blur and adds a flexible glow"
       inkscape:menu="Shadows and Glows"
       inkscape:label="Dark And Glow"
       style="color-interpolation-filters:sRGB"
       id="filter5409-5-2">
      <feGaussianBlur
         stdDeviation="5"
         result="result6"
         id="feGaussianBlur5411-0-9" />
      <feComposite
         result="result8"
         in="SourceGraphic"
         operator="atop"
         in2="result6"
         id="feComposite5413-6-8" />
      <feComposite
         result="result9"
         operator="over"
         in2="SourceAlpha"
         in="result8"
         id="feComposite5415-7-9" />
      <feColorMatrix
         values="1 0 0 0 0 0 1 0 0 0 0 0 1 0 0 0 0 0 1 0 "
         result="result10"
         id="feColorMatrix5417-4-9" />
      <feBlend
         in="result10"
         mode="normal"
         in2="result6"
         id="feBlend5419-0-4" />
    </filter>
    <filter
       y="-0.25"
       height="1.5"
       inkscape:menu-tooltip="Darkens the edge with an inner blur and adds a flexible glow"
       inkscape:menu="Shadows and Glows"
       inkscape:label="Dark And Glow"
       style="color-interpolation-filters:sRGB"
       id="filter5421-7-2">
      <feGaussianBlur
         stdDeviation="5"
         result="result6"
         id="feGaussianBlur5423-6-1" />
      <feComposite
         result="result8"
         in="SourceGraphic"
         operator="atop"
         in2="result6"
         id="feComposite5425-6-4" />
      <feComposite
         result="result9"
         operator="over"
         in2="SourceAlpha"
         in="result8"
         id="feComposite5427-4-4" />
      <feColorMatrix
         values="1 0 0 0 0 0 1 0 0 0 0 0 1 0 0 0 0 0 1 0 "
         result="result10"
         id="feColorMatrix5429-6-4" />
      <feBlend
         in="result10"
         mode="normal"
         in2="result6"
         id="feBlend5431-5-3" />
    </filter>
    <filter
       y="-0.25"
       height="1.5"
       inkscape:menu-tooltip="Darkens the edge with an inner blur and adds a flexible glow"
       inkscape:menu="Shadows and Glows"
       inkscape:label="Dark And Glow"
       style="color-interpolation-filters:sRGB"
       id="filter5433-5-7">
      <feGaussianBlur
         stdDeviation="5"
         result="result6"
         id="feGaussianBlur5435-8-2" />
      <feComposite
         result="result8"
         in="SourceGraphic"
         operator="atop"
         in2="result6"
         id="feComposite5437-5-3" />
      <feComposite
         result="result9"
         operator="over"
         in2="SourceAlpha"
         in="result8"
         id="feComposite5439-1-8" />
      <feColorMatrix
         values="1 0 0 0 0 0 1 0 0 0 0 0 1 0 0 0 0 0 1 0 "
         result="result10"
         id="feColorMatrix5441-4-4" />
      <feBlend
         in="result10"
         mode="normal"
         in2="result6"
         id="feBlend5443-3-8" />
    </filter>
    <filter
       y="-0.25"
       height="1.5"
       inkscape:menu-tooltip="Darkens the edge with an inner blur and adds a flexible glow"
       inkscape:menu="Shadows and Glows"
       inkscape:label="Dark And Glow"
       style="color-interpolation-filters:sRGB"
       id="filter5445-1-2">
      <feGaussianBlur
         stdDeviation="5"
         result="result6"
         id="feGaussianBlur5447-3-1" />
      <feComposite
         result="result8"
         in="SourceGraphic"
         operator="atop"
         in2="result6"
         id="feComposite5449-7-8" />
      <feComposite
         result="result9"
         operator="over"
         in2="SourceAlpha"
         in="result8"
         id="feComposite5451-0-0" />
      <feColorMatrix
         values="1 0 0 0 0 0 1 0 0 0 0 0 1 0 0 0 0 0 1 0 "
         result="result10"
         id="feColorMatrix5453-3-1" />
      <feBlend
         in="result10"
         mode="normal"
         in2="result6"
         id="feBlend5455-9-8" />
    </filter>
    <filter
       y="-0.25"
       height="1.5"
       inkscape:menu-tooltip="Darkens the edge with an inner blur and adds a flexible glow"
       inkscape:menu="Shadows and Glows"
       inkscape:label="Dark And Glow"
       style="color-interpolation-filters:sRGB"
       id="filter5457-7-8">
      <feGaussianBlur
         stdDeviation="5"
         result="result6"
         id="feGaussianBlur5459-8-6" />
      <feComposite
         result="result8"
         in="SourceGraphic"
         operator="atop"
         in2="result6"
         id="feComposite5461-8-1" />
      <feComposite
         result="result9"
         operator="over"
         in2="SourceAlpha"
         in="result8"
         id="feComposite5463-5-7" />
      <feColorMatrix
         values="1 0 0 0 0 0 1 0 0 0 0 0 1 0 0 0 0 0 1 0 "
         result="result10"
         id="feColorMatrix5465-8-4" />
      <feBlend
         in="result10"
         mode="normal"
         in2="result6"
         id="feBlend5467-5-4" />
    </filter>
  </defs>
  <sodipodi:namedview
     id="base"
     pagecolor="#ffffff"
     bordercolor="#666666"
     borderopacity="1.0"
     inkscape:pageopacity="0.0"
     inkscape:pageshadow="2"
     inkscape:zoom="0.9899495"
     inkscape:cx="352.6389"
     inkscape:cy="17.473642"
     inkscape:document-units="px"
     inkscape:current-layer="layer1"
     showgrid="false"
     units="px"
     inkscape:window-width="1600"
     inkscape:window-height="838"
     inkscape:window-x="-8"
     inkscape:window-y="-8"
     inkscape:window-maximized="1" />
  <metadata
     id="metadata6000">
    <rdf:RDF>
      <cc:Work
         rdf:about="">
        <dc:format>image/svg+xml</dc:format>
        <dc:type
           rdf:resource="http://purl.org/dc/dcmitype/StillImage" />
        <dc:title></dc:title>
      </cc:Work>
    </rdf:RDF>
  </metadata>
  <g
     inkscape:label="Layer 1"
     inkscape:groupmode="layer"
     id="layer1"
     transform="translate(0,-792.36217)">
    <path
       inkscape:connector-curvature="0"
       id="path10566-4-0-6-9"
       d="m -796.96755,1223.4672 c -2.85291,0.045 -4.42834,-69.2422 -4.60145,-153.6642 -0.19836,-0.014 -0.3968,-0.016 -0.59531,-0.025 -15.77356,-0.6619 -26.85457,-1.1551 -41.42988,-1.7561 0,0 10e-6,0 10e-6,0 52.67372,-41.2454 91.75393,-69.94278 93.25756,-67.8924 1.51084,2.0603 -37.33428,30.4778 -90.8119,67.0919 0,0 -1e-5,0 -1e-5,0 14.96131,-0.5905 27.08509,-1.1047 43.25382,-1.7561 0.20679,-0.014 0.41349,-0.016 0.62009,-0.025 2.55139,87.7438 3.14678,157.982 0.30707,158.0267 z"
       style="fill:#ff0000;fill-rule:evenodd;stroke:none;stroke-width:1px;stroke-linecap:butt;stroke-linejoin:miter;stroke-opacity:1;filter:url(#filter5457-7-8)"
       transform="matrix(0.73259769,0,0,0.73259769,626.36188,150.56299)" />
    <path
       inkscape:connector-curvature="0"
       id="path10570-1-6-5-7"
       d="m -709.84138,1224.6945 c -2.76065,0.02 -3.80704,-68.9337 -3.32399,-156.7454 0,0 0,0 0,0 2.84905,0.1459 5.71442,0.2936 8.60151,0.4436 18.32282,0.9507 30.61165,1.6134 47.50311,2.481 0,0 0,0 0,0 -53.66104,-38.8566 -92.35822,-68.757 -90.82161,-70.744 1.52954,-1.97787 40.48983,28.1477 93.24789,71.603 0,0 0,0 0,0 -16.81565,0.1338 -27.7331,0.2509 -45.98593,0.4035 -2.80119,0.023 -5.58312,0.045 -8.35114,0.067 0,0 0,10e-5 0,10e-5 1.8371,84.3759 1.90331,152.4692 -0.86984,152.4913 z"
       style="fill:#ff0000;fill-rule:evenodd;stroke:none;stroke-width:1px;stroke-linecap:butt;stroke-linejoin:miter;stroke-opacity:1;filter:url(#filter5445-1-2)"
       transform="matrix(0.73259769,0,0,0.73259769,626.36188,150.56299)" />
    <path
       inkscape:connector-curvature="0"
       id="path10574-5-9-5-0"
       d="m -643.57631,1224.6945 c -1.94789,-0.035 -2.24066,-27.431 -0.75579,-65.5878 -15.64515,-0.6597 -31.86005,-1.5156 -50.07179,-2.5046 -1.48592,-0.081 -2.96946,-0.1615 -4.44129,-0.2416 0,0 2e-5,0 2e-5,0 51.40146,-38.4738 92.73562,-68.0065 94.53701,-65.4233 1.8121,2.5986 -39.77706,30.8485 -91.98666,64.6527 0,0 -10e-6,0 -10e-6,0 1.52249,-0.014 3.05757,-0.027 4.59342,-0.04 18.83354,-0.1662 35.48634,-0.2911 51.33518,-0.2512 0.0434,41.6345 -1.27152,69.4316 -3.21009,69.3963 z"
       style="fill:#ff0000;fill-rule:evenodd;stroke:none;stroke-width:1px;stroke-linecap:butt;stroke-linejoin:miter;stroke-opacity:1;filter:url(#filter5433-5-7)"
       transform="matrix(0.73259769,0,0,0.73259769,626.36188,150.56299)" />
    <path
       inkscape:connector-curvature="0"
       id="path10578-2-7-9-0"
       d="m -636.21357,1105.6629 c -2.33751,-0.021 -2.50259,-58.7735 -0.78872,-139.53616 0,0 0,0 0,0 14.8564,0.72821 30.08239,1.51649 46.16859,2.36195 14.37347,0.75538 20.70101,1.09417 34.47708,1.81747 0,0 -10e-6,0 -10e-6,0 -70.28138,-45.85204 -123.16257,-82.005 -121.57932,-84.29957 1.57735,-2.28603 54.46949,34.5194 123.84655,85.0443 0,0 10e-6,0 10e-6,0 -32.51221,-0.27545 -0.52758,0 -33.64482,-0.27845 -15.7146,-0.13241 -30.62771,-0.27218 -45.23631,-0.45058 0,0 0,0 0,0 0.29469,77.24594 -0.89717,135.36194 -3.24305,135.34104 z"
       style="fill:#ff0000;fill-rule:evenodd;stroke:none;stroke-width:1px;stroke-linecap:butt;stroke-linejoin:miter;stroke-opacity:1;filter:url(#filter5421-7-2)"
       transform="matrix(0.73259769,0,0,0.73259769,626.36188,150.56299)" />
    <path
       inkscape:connector-curvature="0"
       id="path10582-72-7-7-9"
       d="m -685.29871,888.46085 c 1.86488,2.52908 -44.84266,36.53394 -102.78752,76.97685 -5.48533,3.82848 -12.24726,8.54284 -17.47495,12.19061 32.13726,-1.15532 57.2928,-1.92544 77.45065,-2.14643 0,0 0,0 0,0 -0.25574,20.46974 -1.45569,32.05612 -2.59201,32.01062 -1.14081,-0.045 -1.40815,-11.54879 -0.13773,-29.34591 0,0 0,0 0,0 -20.63175,0.42628 -45.63316,0.45249 -77.16772,0.3078 5.2963,-4.12045 11.50002,-8.95043 17.06887,-13.28109 57.09985,-44.4038 103.78305,-79.23133 105.64041,-76.71245 z"
       style="fill:#ff0000;fill-rule:evenodd;stroke:none;stroke-width:1px;stroke-linecap:butt;stroke-linejoin:miter;stroke-opacity:1;filter:url(#filter5409-5-2)"
       transform="matrix(0.73259769,0,0,0.73259769,626.36188,150.56299)" />
    <path
       inkscape:connector-curvature="0"
       id="path10586-9-7-1-5"
       d="m -603.081,1088.483 c 1.90585,-2.6414 45.09142,29.4078 98.09512,70.3498 0.004,0 -0.38958,-0.014 -0.38608,-0.014 -17.87359,-0.2712 -33.76883,-0.5296 -49.22105,-0.9358 1.59927,39.5249 1.36259,67.9953 -0.62999,68.0303 -1.98203,0.034 -3.24604,-28.8517 -3.08413,-71.8621 15.71855,1.1144 32.0936,2.4299 50.61746,3.9341 0.004,5e-4 0.3959,0.033 0.40001,0.033 -54.0705,-36.3357 -97.70748,-66.8873 -95.79134,-69.543 z"
       style="fill:#ff0000;fill-rule:evenodd;stroke:none;stroke-width:1px;stroke-linecap:butt;stroke-linejoin:miter;stroke-opacity:1;filter:url(#filter5397-5-5)"
       transform="matrix(0.73259769,0,0,0.73259769,626.36188,150.56299)" />
  </g>
</svg>
