<?xml version="1.0" encoding="UTF-8" standalone="no"?>
<!-- Created with Inkscape (http://www.inkscape.org/) -->

<svg
   xmlns:dc="http://purl.org/dc/elements/1.1/"
   xmlns:cc="http://creativecommons.org/ns#"
   xmlns:rdf="http://www.w3.org/1999/02/22-rdf-syntax-ns#"
   xmlns:svg="http://www.w3.org/2000/svg"
   xmlns="http://www.w3.org/2000/svg"
   xmlns:sodipodi="http://sodipodi.sourceforge.net/DTD/sodipodi-0.dtd"
   xmlns:inkscape="http://www.inkscape.org/namespaces/inkscape"
   width="270"
   height="130"
   viewBox="0 0 269.99998 130"
   id="svg5995"
   version="1.1"
   inkscape:version="0.91 r13725"
   sodipodi:docname="logo_signature.svg"
   inkscape:export-filename="/home/pdm/Desktop/logo_s.png"
   inkscape:export-xdpi="90"
   inkscape:export-ydpi="90">
  <defs
     id="defs5997">
    <filter
       y="-0.25"
       height="1.5"
       inkscape:menu-tooltip="Darkens the edge with an inner blur and adds a flexible glow"
       inkscape:menu="Shadows and Glows"
       inkscape:label="Dark And Glow"
       style="color-interpolation-filters:sRGB"
       id="filter5397-5-5">
      <feGaussianBlur
         stdDeviation="5"
         result="result6"
         id="feGaussianBlur5399-7-5" />
      <feComposite
         result="result8"
         in="SourceGraphic"
         operator="atop"
         in2="result6"
         id="feComposite5401-2-4" />
      <feComposite
         result="result9"
         operator="over"
         in2="SourceAlpha"
         in="result8"
         id="feComposite5403-5-2" />
      <feColorMatrix
         values="1 0 0 0 0 0 1 0 0 0 0 0 1 0 0 0 0 0 1 0 "
         result="result10"
         id="feColorMatrix5405-8-1" />
      <feBlend
         in="result10"
         mode="normal"
         in2="result6"
         id="feBlend5407-1-8" />
    </filter>
    <filter
       y="-0.25"
       height="1.5"
       inkscape:menu-tooltip="Darkens the edge with an inner blur and adds a flexible glow"
       inkscape:menu="Shadows and Glows"
       inkscape:label="Dark And Glow"
       style="color-interpolation-filters:sRGB"
       id="filter5409-5-2">
      <feGaussianBlur
         stdDeviation="5"
         result="result6"
         id="feGaussianBlur5411-0-9" />
      <feComposite
         result="result8"
         in="SourceGraphic"
         operator="atop"
         in2="result6"
         id="feComposite5413-6-8" />
      <feComposite
         result="result9"
         operator="over"
         in2="SourceAlpha"
         in="result8"
         id="feComposite5415-7-9" />
      <feColorMatrix
         values="1 0 0 0 0 0 1 0 0 0 0 0 1 0 0 0 0 0 1 0 "
         result="result10"
         id="feColorMatrix5417-4-9" />
      <feBlend
         in="result10"
         mode="normal"
         in2="result6"
         id="feBlend5419-0-4" />
    </filter>
    <filter
       y="-0.25"
       height="1.5"
       inkscape:menu-tooltip="Darkens the edge with an inner blur and adds a flexible glow"
       inkscape:menu="Shadows and Glows"
       inkscape:label="Dark And Glow"
       style="color-interpolation-filters:sRGB"
       id="filter5421-7-2">
      <feGaussianBlur
         stdDeviation="5"
         result="result6"
         id="feGaussianBlur5423-6-1" />
      <feComposite
         result="result8"
         in="SourceGraphic"
         operator="atop"
         in2="result6"
         id="feComposite5425-6-4" />
      <feComposite
         result="result9"
         operator="over"
         in2="SourceAlpha"
         in="result8"
         id="feComposite5427-4-4" />
      <feColorMatrix
         values="1 0 0 0 0 0 1 0 0 0 0 0 1 0 0 0 0 0 1 0 "
         result="result10"
         id="feColorMatrix5429-6-4" />
      <feBlend
         in="result10"
         mode="normal"
         in2="result6"
         id="feBlend5431-5-3" />
    </filter>
    <filter
       y="-0.25"
       height="1.5"
       inkscape:menu-tooltip="Darkens the edge with an inner blur and adds a flexible glow"
       inkscape:menu="Shadows and Glows"
       inkscape:label="Dark And Glow"
       style="color-interpolation-filters:sRGB"
       id="filter5433-5-7">
      <feGaussianBlur
         stdDeviation="5"
         result="result6"
         id="feGaussianBlur5435-8-2" />
      <feComposite
         result="result8"
         in="SourceGraphic"
         operator="atop"
         in2="result6"
         id="feComposite5437-5-3" />
      <feComposite
         result="result9"
         operator="over"
         in2="SourceAlpha"
         in="result8"
         id="feComposite5439-1-8" />
      <feColorMatrix
         values="1 0 0 0 0 0 1 0 0 0 0 0 1 0 0 0 0 0 1 0 "
         result="result10"
         id="feColorMatrix5441-4-4" />
      <feBlend
         in="result10"
         mode="normal"
         in2="result6"
         id="feBlend5443-3-8" />
    </filter>
    <filter
       y="-0.25"
       height="1.5"
       inkscape:menu-tooltip="Darkens the edge with an inner blur and adds a flexible glow"
       inkscape:menu="Shadows and Glows"
       inkscape:label="Dark And Glow"
       style="color-interpolation-filters:sRGB"
       id="filter5445-1-2">
      <feGaussianBlur
         stdDeviation="5"
         result="result6"
         id="feGaussianBlur5447-3-1" />
      <feComposite
         result="result8"
         in="SourceGraphic"
         operator="atop"
         in2="result6"
         id="feComposite5449-7-8" />
      <feComposite
         result="result9"
         operator="over"
         in2="SourceAlpha"
         in="result8"
         id="feComposite5451-0-0" />
      <feColorMatrix
         values="1 0 0 0 0 0 1 0 0 0 0 0 1 0 0 0 0 0 1 0 "
         result="result10"
         id="feColorMatrix5453-3-1" />
      <feBlend
         in="result10"
         mode="normal"
         in2="result6"
         id="feBlend5455-9-8" />
    </filter>
    <filter
       y="-0.25"
       height="1.5"
       inkscape:menu-tooltip="Darkens the edge with an inner blur and adds a flexible glow"
       inkscape:menu="Shadows and Glows"
       inkscape:label="Dark And Glow"
       style="color-interpolation-filters:sRGB"
       id="filter5457-7-8">
      <feGaussianBlur
         stdDeviation="5"
         result="result6"
         id="feGaussianBlur5459-8-6" />
      <feComposite
         result="result8"
         in="SourceGraphic"
         operator="atop"
         in2="result6"
         id="feComposite5461-8-1" />
      <feComposite
         result="result9"
         operator="over"
         in2="SourceAlpha"
         in="result8"
         id="feComposite5463-5-7" />
      <feColorMatrix
         values="1 0 0 0 0 0 1 0 0 0 0 0 1 0 0 0 0 0 1 0 "
         result="result10"
         id="feColorMatrix5465-8-4" />
      <feBlend
         in="result10"
         mode="normal"
         in2="result6"
         id="feBlend5467-5-4" />
    </filter>
    <filter
       style="color-interpolation-filters:sRGB"
       inkscape:label="Drop Shadow"
       id="filter5220-0-0-0">
      <feFlood
         flood-opacity="0.498039"
         flood-color="rgb(0,0,0)"
         result="flood"
         id="feFlood5222-4-5-9" />
      <feComposite
         in="flood"
         in2="SourceGraphic"
         operator="in"
         result="composite1"
         id="feComposite5224-0-0-2" />
      <feGaussianBlur
         in="composite1"
         stdDeviation="0.9"
         result="blur"
         id="feGaussianBlur5226-9-2-5" />
      <feOffset
         dx="2.9"
         dy="1.8"
         result="offset"
         id="feOffset5228-1-9-4" />
      <feComposite
         in="SourceGraphic"
         in2="offset"
         operator="over"
         result="composite2"
         id="feComposite5230-9-4-0" />
    </filter>
  </defs>
  <sodipodi:namedview
     id="base"
     pagecolor="#ffffff"
     bordercolor="#666666"
     borderopacity="1.0"
     inkscape:pageopacity="0.0"
     inkscape:pageshadow="2"
     inkscape:zoom="0.98994949"
     inkscape:cx="116.56409"
     inkscape:cy="214.78376"
     inkscape:document-units="px"
     inkscape:current-layer="g4311"
     showgrid="false"
     units="px"
     inkscape:window-width="1600"
     inkscape:window-height="829"
     inkscape:window-x="0"
     inkscape:window-y="24"
     inkscape:window-maximized="1"
     showguides="true"
     inkscape:guide-bbox="true" />
  <metadata
     id="metadata6000">
    <rdf:RDF>
      <cc:Work
         rdf:about="">
        <dc:format>image/svg+xml</dc:format>
        <dc:type
           rdf:resource="http://purl.org/dc/dcmitype/StillImage" />
        <dc:title></dc:title>
      </cc:Work>
    </rdf:RDF>
  </metadata>
  <g
     inkscape:label="Layer 1"
     inkscape:groupmode="layer"
     id="layer1"
     transform="translate(0,-922.36217)">
    <g
       id="g4311">
      <g
         id="g4467"
         transform="matrix(0.78371673,0,0,0.78371673,5.8953796,222.80666)">
        <g
           transform="matrix(1.4897844,0,0,1.4897844,-44.792033,536.96296)"
           id="g6277"
           style="fill:#d40000;fill-opacity:0.8805031">
          <path
             inkscape:connector-curvature="0"
             id="path3549-4"
             style="fill:#d40000;fill-opacity:0.8805031;fill-rule:nonzero;stroke:none"
             d="m 69.675708,327.3409 0,7.54142 9.82859,-1.18892 0,-6.90292 -9.82859,0.55042" />
          <path
             inkscape:connector-curvature="0"
             id="path3551-6"
             style="fill:#d40000;fill-opacity:0.8805031;fill-rule:nonzero;stroke:none"
             d="m 96.278565,275.50541 0,5.8254 6.390065,2.55914 -0.0349,-5.41356 -6.355094,-2.97098" />
          <path
             inkscape:connector-curvature="0"
             id="path3553-9"
             style="fill:#d40000;fill-opacity:0.8805031;fill-rule:nonzero;stroke:none"
             d="m 96.278565,288.06927 0,5.85131 6.466475,1.75229 -0.0349,-5.45112 -6.431517,-2.15248" />
          <path
             inkscape:connector-curvature="0"
             id="path3555-22"
             style="fill:#d40000;fill-opacity:0.8805031;fill-rule:nonzero;stroke:none"
             d="m 96.278565,300.66811 0,5.85001 6.542895,0.92082 -0.035,-5.44206 -6.507919,-1.32877" />
          <path
             inkscape:connector-curvature="0"
             id="path3561-5"
             style="fill:#d40000;fill-opacity:0.8805031;fill-rule:nonzero;stroke:none"
             d="m 69.675708,263.07365 0,7.59841 9.82859,3.93713 0,-6.94179 -9.82859,-4.59375" />
          <path
             inkscape:connector-curvature="0"
             id="path3563-4"
             style="fill:#d40000;fill-opacity:0.8805031;fill-rule:nonzero;stroke:none"
             d="m 69.675708,279.16539 0,7.54531 9.82859,2.66274 0,-6.91718 -9.82859,-3.29087" />
          <path
             inkscape:connector-curvature="0"
             id="path3569-8"
             style="fill:#d40000;fill-opacity:0.8805031;fill-rule:nonzero;stroke:none"
             d="m 69.675708,287.17177 0,7.5997 9.82859,2.00741 0,-6.94308 -9.82859,-2.66403" />
          <path
             inkscape:connector-curvature="0"
             id="path3571-9"
             style="fill:#d40000;fill-opacity:0.8805031;fill-rule:nonzero;stroke:none"
             d="m 69.675708,295.23382 0,7.54401 9.82859,1.3819 0,-6.91849 -9.82859,-2.00742" />
          <path
             inkscape:connector-curvature="0"
             id="path3575-68"
             style="fill:#d40000;fill-opacity:0.8805031;fill-rule:nonzero;stroke:none"
             d="m 95.899098,287.48 0,-5.84095 -7.099794,-2.84276 0,6.30847 7.099794,2.37524" />
          <path
             inkscape:connector-curvature="0"
             id="path3577-0"
             style="fill:#d40000;fill-opacity:0.8805031;fill-rule:nonzero;stroke:none"
             d="m 96.278565,268.74493 6.313655,3.36211 -0.0375,-5.64278 -6.276096,-3.72086 0,6.00153" />
          <path
             inkscape:connector-curvature="0"
             id="path3581-10"
             style="fill:#d40000;fill-opacity:0.8805031;fill-rule:nonzero;stroke:none"
             d="m 96.278565,313.27988 0,5.84354 6.619305,0.0622 -0.0349,-5.40968 -6.584333,-0.49603" />
          <path
             inkscape:connector-curvature="0"
             id="path3583-5"
             style="fill:#d40000;fill-opacity:0.8805031;fill-rule:nonzero;stroke:none"
             d="m 88.799304,326.27243 0,6.29683 7.099794,-0.85867 0,-5.83317 -7.099794,0.39501" />
          <path
             inkscape:connector-curvature="0"
             id="path3585-11"
             style="fill:#d40000;fill-opacity:0.8805031;fill-rule:nonzero;stroke:none"
             d="m 95.899098,293.81696 0,-5.87461 -7.099794,-2.37653 0,6.32792 7.099794,1.92322" />
          <path
             inkscape:connector-curvature="0"
             id="path3591-5"
             style="fill:#d40000;fill-opacity:0.8805031;fill-rule:nonzero;stroke:none"
             d="m 69.675708,246.97801 0,7.59972 9.82859,5.23224 0,-7.00783 -9.82859,-5.82413" />
          <path
             inkscape:connector-curvature="0"
             id="path3595-6"
             style="fill:#d40000;fill-opacity:0.8805031;fill-rule:nonzero;stroke:none"
             d="m 95.899098,306.46502 0,-5.87723 -7.099794,-1.44921 0,6.32661 7.099794,0.99983" />
          <path
             inkscape:connector-curvature="0"
             id="path3597-4"
             style="fill:#d40000;fill-opacity:0.8805031;fill-rule:nonzero;stroke:none"
             d="m 95.899098,300.12675 0,-5.84743 -7.099794,-1.92453 0,6.32274 7.099794,1.44922" />
          <path
             inkscape:connector-curvature="0"
             id="path3599-6"
             style="fill:#d40000;fill-opacity:0.8805031;fill-rule:nonzero;stroke:none"
             d="m 95.899098,319.11954 0,-5.86815 -7.099794,-0.53618 0,6.33828 7.099794,0.0661" />
          <path
             inkscape:connector-curvature="0"
             id="path3601-2"
             style="fill:#d40000;fill-opacity:0.8805031;fill-rule:nonzero;stroke:none"
             d="m 88.361557,319.0509 0,-6.36936 -8.369002,-0.632 0,6.92235 8.369002,0.079" />
          <path
             inkscape:connector-curvature="0"
             id="path3605-8"
             style="fill:#d40000;fill-opacity:0.8805031;fill-rule:nonzero;stroke:none"
             d="m 88.361557,305.40562 0,-6.35512 -8.369002,-1.70954 0,6.8861 8.369002,1.17856" />
          <path
             inkscape:connector-curvature="0"
             id="path3613-47"
             style="fill:#d40000;fill-opacity:0.8805031;fill-rule:nonzero;stroke:none"
             d="m 88.361557,332.62106 0,-6.32402 -8.369002,0.46624 0,6.87055 8.369002,-1.01277" />
          <path
             inkscape:connector-curvature="0"
             id="path3617-4"
             style="fill:#d40000;fill-opacity:0.8805031;fill-rule:nonzero;stroke:none"
             d="m 88.361557,278.15649 0,-6.35121 -8.369002,-3.91123 0,6.90941 8.369002,3.35303" />
          <path
             inkscape:connector-curvature="0"
             id="path3619-0"
             style="fill:#d40000;fill-opacity:0.8805031;fill-rule:nonzero;stroke:none"
             d="m 88.361557,291.77458 0,-6.35509 -8.369002,-2.80134 0,6.8874 8.369002,2.26903" />
          <path
             inkscape:connector-curvature="0"
             id="path3621-6"
             style="fill:#d40000;fill-opacity:0.8805031;fill-rule:nonzero;stroke:none"
             d="m 88.361557,271.34421 0,-6.35509 -8.369002,-4.45647 0,6.89904 8.369002,3.91252" />
        </g>
        <g
           transform="matrix(1.4897844,0,0,1.4897844,-44.792033,536.96296)"
           id="g6259"
           style="fill:#bf0000;fill-opacity:1">
          <path
             inkscape:connector-curvature="0"
             id="path3623-2"
             style="fill:#bf0000;fill-opacity:1;fill-rule:nonzero;stroke:none"
             d="m 69.284589,327.3409 0,7.54142 -9.827295,-1.18892 0,-6.90292 9.827295,0.55042" />
          <path
             inkscape:connector-curvature="0"
             id="path3631-1"
             style="fill:#bf0000;fill-opacity:1;fill-rule:nonzero;stroke:none"
             d="m 69.284589,319.33582 0,7.54143 -9.827295,-0.54913 0,-6.90035 9.827295,-0.092" />
          <path
             inkscape:connector-curvature="0"
             id="path3633-3"
             style="fill:#bf0000;fill-opacity:1;fill-rule:nonzero;stroke:none"
             d="m 69.284589,311.27246 0,7.60101 -9.827295,0.0933 0,-6.95216 9.827295,-0.7421" />
          <path
             inkscape:connector-curvature="0"
             id="path3639-0"
             style="fill:#bf0000;fill-opacity:1;fill-rule:nonzero;stroke:none"
             d="m 69.284589,303.2389 0,7.57251 -9.827295,0.74081 0,-6.93015 9.827295,-1.38317" />
          <path
             inkscape:connector-curvature="0"
             id="path3641-3"
             style="fill:#bf0000;fill-opacity:1;fill-rule:nonzero;stroke:none"
             d="m 42.683026,306.98046 0,5.83707 -6.58175,0.49603 0.03626,-5.41227 6.545487,-0.92083" />
          <path
             inkscape:connector-curvature="0"
             id="path3647-3"
             style="fill:#bf0000;fill-opacity:1;fill-rule:nonzero;stroke:none"
             d="m 43.062495,325.41765 0,-5.83575 7.098498,-0.0661 0,6.29553 -7.098498,-0.39371" />
          <path
             inkscape:connector-curvature="0"
             id="path3653-9"
             style="fill:#bf0000;fill-opacity:1;fill-rule:nonzero;stroke:none"
             d="m 43.062495,338.1667 0,-5.99505 7.098498,0.85867 0,6.42248 -7.098498,-1.2861" />
          <path
             inkscape:connector-curvature="0"
             id="path3655-69"
             style="fill:#bf0000;fill-opacity:1;fill-rule:nonzero;stroke:none"
             d="m 42.683026,313.27988 0,5.84354 -6.619306,0.0622 0.03501,-5.40968 6.584341,-0.49603" />
          <path
             inkscape:connector-curvature="0"
             id="path3661-0"
             style="fill:#bf0000;fill-opacity:1;fill-rule:nonzero;stroke:none"
             d="m 36.023571,325.48499 6.659455,0.37041 0,5.80986 -6.695718,-0.80943 0.03626,-5.37084" />
          <path
             inkscape:connector-curvature="0"
             id="path3663-5"
             style="fill:#bf0000;fill-opacity:1;fill-rule:nonzero;stroke:none"
             d="m 42.683026,319.58708 0,5.80727 -6.656865,-0.37169 0.03367,-5.37472 6.623194,-0.0608" />
          <path
             inkscape:connector-curvature="0"
             id="path3665-6"
             style="fill:#bf0000;fill-opacity:1;fill-rule:nonzero;stroke:none"
             d="m 43.062495,312.79034 0,-5.86427 7.098498,-0.99593 0,6.32142 -7.098498,0.53878" />
          <path
             inkscape:connector-curvature="0"
             id="path3673-04"
             style="fill:#bf0000;fill-opacity:1;fill-rule:nonzero;stroke:none"
             d="m 50.59874,312.22048 0,-6.35251 8.370296,-1.17726 0,6.89906 -8.370296,0.63071" />
          <path
             inkscape:connector-curvature="0"
             id="path3677-2"
             style="fill:#bf0000;fill-opacity:1;fill-rule:nonzero;stroke:none"
             d="m 50.59874,325.83727 0,-6.32533 8.370296,-0.0803 0,6.87057 -8.370296,-0.46495" />
          <path
             inkscape:connector-curvature="0"
             id="path3679-6"
             style="fill:#bf0000;fill-opacity:1;fill-rule:nonzero;stroke:none"
             d="m 42.683026,332.12633 0,5.97179 -6.734572,-1.21999 0.03626,-5.56253 6.698309,0.81073" />
          <path
             inkscape:connector-curvature="0"
             id="path3681-7"
             style="fill:#bf0000;fill-opacity:1;fill-rule:nonzero;stroke:none"
             d="m 59.457294,334.15446 9.827295,1.19151 0,7.57255 -9.827295,-1.78082 0,-6.98324" />
          <path
             inkscape:connector-curvature="0"
             id="path3687-9"
             style="fill:#bf0000;fill-opacity:1;fill-rule:nonzero;stroke:none"
             d="m 50.59874,339.5331 0,-6.44968 8.370296,1.01406 0,6.95215 -8.370296,-1.51653" />
        </g>
        <g
           transform="matrix(1.4897844,0,0,1.4897844,-44.792033,536.96296)"
           id="g6224"
           style="fill:#d40000">
          <path
             inkscape:connector-curvature="0"
             id="path3557-4"
             style="fill:#d40000;fill-opacity:1;fill-rule:nonzero;stroke:none"
             d="m 69.675708,319.33582 0,7.54143 9.82859,-0.54913 0,-6.90035 -9.82859,-0.092" />
          <path
             inkscape:connector-curvature="0"
             id="path3559-77"
             style="fill:#d40000;fill-opacity:1;fill-rule:nonzero;stroke:none"
             d="m 69.675708,311.27246 0,7.60101 9.82859,0.0933 0,-6.95216 -9.82859,-0.7421" />
          <path
             inkscape:connector-curvature="0"
             id="path3565-81"
             style="fill:#d40000;fill-opacity:1;fill-rule:nonzero;stroke:none"
             d="m 69.675708,303.2389 0,7.57251 9.82859,0.74081 0,-6.93015 -9.82859,-1.38317" />
          <path
             inkscape:connector-curvature="0"
             id="path3567-2"
             style="fill:#d40000;fill-opacity:1;fill-rule:nonzero;stroke:none"
             d="m 96.278565,306.98046 0,5.83707 6.580445,0.49603 -0.0337,-5.41227 -6.546772,-0.92083" />
          <path
             inkscape:connector-curvature="0"
             id="path3573-3"
             style="fill:#d40000;fill-opacity:1;fill-rule:nonzero;stroke:none"
             d="m 95.899098,325.41765 0,-5.83575 -7.099794,-0.0661 0,6.29553 7.099794,-0.39371" />
          <path
             inkscape:connector-curvature="0"
             id="path3579-2"
             style="fill:#d40000;fill-opacity:1;fill-rule:nonzero;stroke:none"
             d="m 95.899098,338.1667 0,-5.99505 -7.099794,0.85867 0,6.42248 7.099794,-1.2861" />
          <path
             inkscape:connector-curvature="0"
             id="path3587-0"
             style="fill:#d40000;fill-opacity:1;fill-rule:nonzero;stroke:none"
             d="m 102.93931,325.48499 -6.660745,0.37041 0,5.80986 6.695715,-0.80943 -0.0349,-5.37084" />
          <path
             inkscape:connector-curvature="0"
             id="path3589-8"
             style="fill:#d40000;fill-opacity:1;fill-rule:nonzero;stroke:none"
             d="m 96.278565,319.58708 0,5.80727 6.658155,-0.37169 -0.0363,-5.37472 -6.621896,-0.0608" />
          <path
             inkscape:connector-curvature="0"
             id="path3593-0"
             style="fill:#d40000;fill-opacity:1;fill-rule:nonzero;stroke:none"
             d="m 95.899098,312.79034 0,-5.86427 -7.099794,-0.99593 0,6.32142 7.099794,0.53878" />
          <path
             inkscape:connector-curvature="0"
             id="path3603-5"
             style="fill:#d40000;fill-opacity:1;fill-rule:nonzero;stroke:none"
             d="m 88.361557,312.22048 0,-6.35251 -8.369002,-1.17726 0,6.89906 8.369002,0.63071" />
          <path
             inkscape:connector-curvature="0"
             id="path3607-6"
             style="fill:#d40000;fill-opacity:1;fill-rule:nonzero;stroke:none"
             d="m 88.361557,325.83727 0,-6.32533 -8.369002,-0.0803 0,6.87057 8.369002,-0.46495" />
          <path
             inkscape:connector-curvature="0"
             id="path3609-2"
             style="fill:#d40000;fill-opacity:1;fill-rule:nonzero;stroke:none"
             d="m 96.278565,332.12633 0,5.97179 6.734565,-1.21999 -0.0363,-5.56253 -6.698305,0.81073" />
          <path
             inkscape:connector-curvature="0"
             id="path3611-8"
             style="fill:#d40000;fill-opacity:1;fill-rule:nonzero;stroke:none"
             d="m 79.504298,334.15446 -9.82859,1.19151 0,7.57255 9.82859,-1.78082 0,-6.98324" />
          <path
             inkscape:connector-curvature="0"
             id="path3615-2"
             style="fill:#d40000;fill-opacity:1;fill-rule:nonzero;stroke:none"
             d="m 88.361557,339.5331 0,-6.44968 -8.369002,1.01406 0,6.95215 8.369002,-1.51653" />
          <path
             inkscape:connector-curvature="0"
             id="path3625-9"
             style="fill:#d40000;fill-opacity:1;fill-rule:nonzero;stroke:none"
             d="m 42.683026,275.50541 0,5.8254 -6.391367,2.55914 0.03626,-5.41356 6.355106,-2.97098" />
          <path
             inkscape:connector-curvature="0"
             id="path3627-90"
             style="fill:#d40000;fill-opacity:1;fill-rule:nonzero;stroke:none"
             d="m 42.683026,294.38164 0,5.82411 -6.505338,1.32748 0.03492,-5.398 6.47037,-1.75359" />
          <path
             inkscape:connector-curvature="0"
             id="path3629-8"
             style="fill:#d40000;fill-opacity:1;fill-rule:nonzero;stroke:none"
             d="m 42.683026,300.66811 0,5.85001 -6.544191,0.92082 0.03626,-5.44206 6.507928,-1.32877" />
          <path
             inkscape:connector-curvature="0"
             id="path3635-1"
             style="fill:#d40000;fill-opacity:1;fill-rule:nonzero;stroke:none"
             d="m 69.284589,271.1344 0,7.56994 -9.827295,3.28828 0,-6.91978 9.827295,-3.93844" />
          <path
             inkscape:connector-curvature="0"
             id="path3637-1"
             style="fill:#d40000;fill-opacity:1;fill-rule:nonzero;stroke:none"
             d="m 69.284589,255.03879 0,7.56991 -9.827295,4.59375 0,-6.92882 9.827295,-5.23484" />
          <path
             inkscape:connector-curvature="0"
             id="path3643-4"
             style="fill:#d40000;fill-opacity:1;fill-rule:nonzero;stroke:none"
             d="m 69.284589,287.17177 0,7.5997 -9.827295,2.00741 0,-6.94308 9.827295,-2.66403" />
          <path
             inkscape:connector-curvature="0"
             id="path3645-0"
             style="fill:#d40000;fill-opacity:1;fill-rule:nonzero;stroke:none"
             d="m 69.284589,295.23382 0,7.54401 -9.827295,1.3819 0,-6.91849 9.827295,-2.00742" />
          <path
             inkscape:connector-curvature="0"
             id="path3649-9"
             style="fill:#d40000;fill-opacity:1;fill-rule:nonzero;stroke:none"
             d="m 50.160993,258.31154 0,6.45093 -7.098498,3.77914 0,-6.02227 7.098498,-4.2078" />
          <path
             inkscape:connector-curvature="0"
             id="path3651-1"
             style="fill:#d40000;fill-opacity:1;fill-rule:nonzero;stroke:none"
             d="m 43.062495,287.48 0,-5.84095 7.098498,-2.84276 0,6.30847 -7.098498,2.37524" />
          <path
             inkscape:connector-curvature="0"
             id="path3657-3"
             style="fill:#d40000;fill-opacity:1;fill-rule:nonzero;stroke:none"
             d="m 50.160993,326.27243 0,6.29683 -7.098498,-0.85867 0,-5.83317 7.098498,0.39501" />
          <path
             inkscape:connector-curvature="0"
             id="path3659-38"
             style="fill:#d40000;fill-opacity:1;fill-rule:nonzero;stroke:none"
             d="m 43.062495,293.81696 0,-5.87461 7.098498,-2.37653 0,6.32792 -7.098498,1.92322" />
          <path
             inkscape:connector-curvature="0"
             id="path3667-6"
             style="fill:#d40000;fill-opacity:1;fill-rule:nonzero;stroke:none"
             d="m 43.062495,306.46502 0,-5.87723 7.098498,-1.44921 0,6.32661 -7.098498,0.99983" />
          <path
             inkscape:connector-curvature="0"
             id="path3669-4"
             style="fill:#d40000;fill-opacity:1;fill-rule:nonzero;stroke:none"
             d="m 43.062495,319.11954 0,-5.86815 7.098498,-0.53618 0,6.33828 -7.098498,0.0661" />
          <path
             inkscape:connector-curvature="0"
             id="path3671-0"
             style="fill:#d40000;fill-opacity:1;fill-rule:nonzero;stroke:none"
             d="m 50.59874,319.0509 0,-6.36936 8.370296,-0.632 0,6.92235 -8.370296,0.079" />
          <path
             inkscape:connector-curvature="0"
             id="path3675-6"
             style="fill:#d40000;fill-opacity:1;fill-rule:nonzero;stroke:none"
             d="m 50.59874,305.40562 0,-6.35512 8.370296,-1.70954 0,6.8861 -8.370296,1.17856" />
          <path
             inkscape:connector-curvature="0"
             id="path3683-5"
             style="fill:#d40000;fill-opacity:1;fill-rule:nonzero;stroke:none"
             d="m 50.59874,298.58817 0,-6.35253 8.370296,-2.26903 0,6.912 -8.370296,1.70956" />
          <path
             inkscape:connector-curvature="0"
             id="path3685-6"
             style="fill:#d40000;fill-opacity:1;fill-rule:nonzero;stroke:none"
             d="m 50.59874,332.62106 0,-6.32402 8.370296,0.46624 0,6.87055 -8.370296,-1.01277" />
          <path
             inkscape:connector-curvature="0"
             id="path3689-8"
             style="fill:#d40000;fill-opacity:1;fill-rule:nonzero;stroke:none"
             d="m 50.59874,278.15649 0,-6.35121 8.370296,-3.91123 0,6.90941 -8.370296,3.35303" />
          <path
             inkscape:connector-curvature="0"
             id="path3691-7"
             style="fill:#d40000;fill-opacity:1;fill-rule:nonzero;stroke:none"
             d="m 50.59874,291.77458 0,-6.35509 8.370296,-2.80134 0,6.8874 -8.370296,2.26903" />
        </g>
        <path
           inkscape:connector-curvature="0"
           id="path4385"
           d="m 128.57142,1048.6556 0,-144.28572 0,0"
           style="fill:none;fill-rule:evenodd;stroke:#000000;stroke-width:1px;stroke-linecap:butt;stroke-linejoin:miter;stroke-opacity:1" />
        <g
           transform="matrix(0.58323324,0,0,0.58323324,67.481755,915.47372)"
           style="font-style:normal;font-variant:normal;font-weight:normal;font-stretch:normal;font-size:40px;line-height:125%;font-family:Ubuntu;-inkscape-font-specification:Ubuntu;letter-spacing:0px;word-spacing:0px;fill:#000000;fill-opacity:1;stroke:none;stroke-width:1px;stroke-linecap:butt;stroke-linejoin:miter;stroke-opacity:1"
           id="flowRoot4387">
          <path
             d="m 159.81742,51.27185 q -0.68,-1.8 -1.28,-3.52 -0.6,-1.76 -1.24,-3.56 l -12.56,0 -2.52,7.08 -4.04,0 q 1.6,-4.4 3,-8.12 1.4,-3.76 2.72,-7.12 1.36,-3.36 2.68,-6.4 1.32,-3.08 2.76,-6.08 l 3.56,0 q 1.44,3 2.76,6.08 1.32,3.04 2.64,6.4 1.36,3.36 2.76,7.12 1.4,3.72 3,8.12 l -4.24,0 z m -3.64,-10.28 q -1.28,-3.48 -2.56,-6.72 -1.24,-3.28 -2.6,-6.28 -1.4,3 -2.68,6.28 -1.24,3.24 -2.48,6.72 l 10.32,0 z"
             id="path4562"
             inkscape:connector-curvature="0" />
          <path
             d="m 173.7818,51.67185 q -3.44,-0.08 -4.88,-1.48 -1.44,-1.4 -1.44,-4.36 l 0,-24.96 3.72,-0.64 0,25 q 0,0.92 0.16,1.52 0.16,0.6 0.52,0.96 0.36,0.36 0.96,0.56 0.6,0.16 1.48,0.28 l -0.52,3.12 z"
             id="path4564"
             inkscape:connector-curvature="0" />
          <path
             d="m 185.5193,48.59185 q 1.32,0 2.32,-0.04 1.04,-0.08 1.72,-0.24 l 0,-6.2 q -0.4,-0.2 -1.32,-0.32 -0.88,-0.16 -2.16,-0.16 -0.84,0 -1.8,0.12 -0.92,0.12 -1.72,0.52 -0.76,0.36 -1.28,1.04 -0.52,0.64 -0.52,1.72 0,2 1.28,2.8 1.28,0.76 3.48,0.76 z m -0.32,-18.64 q 2.24,0 3.76,0.6 1.56,0.56 2.48,1.64 0.96,1.04 1.36,2.52 0.4,1.44 0.4,3.2 l 0,13 q -0.48,0.08 -1.36,0.24 -0.84,0.12 -1.92,0.24 -1.08,0.12 -2.36,0.2 -1.24,0.12 -2.48,0.12 -1.76,0 -3.24,-0.36 -1.48,-0.36 -2.56,-1.12 -1.08,-0.8 -1.68,-2.08 -0.6,-1.28 -0.6,-3.08 0,-1.72 0.68,-2.96 0.72,-1.24 1.92,-2 1.2,-0.76 2.8,-1.12 1.6,-0.36 3.36,-0.36 0.56,0 1.16,0.08 0.6,0.04 1.12,0.16 0.56,0.08 0.96,0.16 0.4,0.08 0.56,0.12 l 0,-1.04 q 0,-0.92 -0.2,-1.8 -0.2,-0.92 -0.72,-1.6 -0.52,-0.72 -1.44,-1.12 -0.88,-0.44 -2.32,-0.44 -1.84,0 -3.24,0.28 -1.36,0.24 -2.04,0.52 l -0.44,-3.08 q 0.72,-0.32 2.4,-0.6 1.68,-0.32 3.64,-0.32 z"
             id="path4566"
             inkscape:connector-curvature="0" />
          <path
             d="m 203.05867,51.27185 -3.72,0 0,-20.8 3.72,0 0,20.8 z m -1.88,-24.56 q -1,0 -1.72,-0.64 -0.68,-0.68 -0.68,-1.8 0,-1.12 0.68,-1.76 0.72,-0.68 1.72,-0.68 1,0 1.68,0.68 0.72,0.64 0.72,1.76 0,1.12 -0.72,1.8 -0.68,0.64 -1.68,0.64 z"
             id="path4568"
             inkscape:connector-curvature="0" />
          <path
             d="m 209.49492,31.07185 q 1.28,-0.32 3.4,-0.68 2.12,-0.36 4.88,-0.36 2.48,0 4.12,0.72 1.64,0.68 2.6,1.96 1,1.24 1.4,3 0.4,1.76 0.4,3.88 l 0,11.68 -3.72,0 0,-10.88 q 0,-1.92 -0.28,-3.28 -0.24,-1.36 -0.84,-2.2 -0.6,-0.84 -1.6,-1.2 -1,-0.4 -2.48,-0.4 -0.6,0 -1.24,0.04 -0.64,0.04 -1.24,0.12 -0.56,0.04 -1.04,0.12 -0.44,0.08 -0.64,0.12 l 0,17.56 -3.72,0 0,-20.2 z"
             id="path4570"
             inkscape:connector-curvature="0" />
          <path
             d="m 264.68242,37.39185 q 0,3.6 -1.12,6.28 -1.12,2.64 -3.16,4.4 -2.04,1.72 -4.88,2.6 -2.84,0.84 -6.24,0.84 -1.68,0 -3.72,-0.16 -2,-0.12 -3.64,-0.52 l 0,-26.88 q 1.64,-0.4 3.64,-0.52 2.04,-0.16 3.72,-0.16 3.4,0 6.24,0.88 2.84,0.84 4.88,2.6 2.04,1.72 3.16,4.4 1.12,2.64 1.12,6.24 z m -15.08,10.72 q 5.52,0 8.24,-2.8 2.72,-2.84 2.72,-7.92 0,-5.08 -2.72,-7.88 -2.72,-2.84 -8.24,-2.84 -1.64,0 -2.56,0.04 -0.88,0.04 -1.24,0.08 l 0,21.2 q 0.36,0.04 1.24,0.08 0.92,0.04 2.56,0.04 z"
             id="path4572"
             inkscape:connector-curvature="0" />
          <path
             d="m 269.03805,40.91185 q 0,-2.76 0.8,-4.8 0.8,-2.08 2.12,-3.44 1.32,-1.36 3.04,-2.04 1.72,-0.68 3.52,-0.68 4.2,0 6.44,2.64 2.24,2.6 2.24,7.96 0,0.24 0,0.64 0,0.36 -0.04,0.68 l -14.24,0 q 0.24,3.24 1.88,4.92 1.64,1.68 5.12,1.68 1.96,0 3.28,-0.32 1.36,-0.36 2.04,-0.68 l 0.52,3.12 q -0.68,0.36 -2.4,0.76 -1.68,0.4 -3.84,0.4 -2.72,0 -4.72,-0.8 -1.96,-0.84 -3.24,-2.28 -1.28,-1.44 -1.92,-3.4 -0.6,-2 -0.6,-4.36 z m 14.28,-2.04 q 0.04,-2.52 -1.28,-4.12 -1.28,-1.64 -3.56,-1.64 -1.28,0 -2.28,0.52 -0.96,0.48 -1.64,1.28 -0.68,0.8 -1.08,1.84 -0.36,1.04 -0.48,2.12 l 10.32,0 z"
             id="path4574"
             inkscape:connector-curvature="0" />
          <path
             d="m 314.44055,47.43185 q -0.4,-0.96 -1.08,-2.44 -0.64,-1.48 -1.4,-3.2 -0.76,-1.72 -1.64,-3.52 -0.84,-1.84 -1.6,-3.44 -0.76,-1.64 -1.44,-2.92 -0.64,-1.28 -1.04,-1.96 -0.44,4.72 -0.72,10.24 -0.28,5.48 -0.48,11.08 l -3.8,0 q 0.16,-3.6 0.36,-7.24 0.2,-3.68 0.44,-7.2 0.28,-3.56 0.56,-6.92 0.32,-3.36 0.68,-6.36 l 3.4,0 q 1.08,1.76 2.32,4.16 1.24,2.4 2.48,5.04 1.24,2.6 2.4,5.24 1.16,2.6 2.12,4.76 0.96,-2.16 2.12,-4.76 1.16,-2.64 2.4,-5.24 1.24,-2.64 2.48,-5.04 1.24,-2.4 2.32,-4.16 l 3.4,0 q 1.36,13.4 2.04,27.72 l -3.8,0 q -0.2,-5.6 -0.48,-11.08 -0.28,-5.52 -0.72,-10.24 -0.4,0.68 -1.08,1.96 -0.64,1.28 -1.4,2.92 -0.76,1.6 -1.64,3.44 -0.84,1.8 -1.6,3.52 -0.76,1.72 -1.44,3.2 -0.64,1.48 -1.04,2.44 l -3.12,0 z"
             id="path4576"
             inkscape:connector-curvature="0" />
          <path
             d="m 343.6443,48.59185 q 1.32,0 2.32,-0.04 1.04,-0.08 1.72,-0.24 l 0,-6.2 q -0.4,-0.2 -1.32,-0.32 -0.88,-0.16 -2.16,-0.16 -0.84,0 -1.8,0.12 -0.92,0.12 -1.72,0.52 -0.76,0.36 -1.28,1.04 -0.52,0.64 -0.52,1.72 0,2 1.28,2.8 1.28,0.76 3.48,0.76 z m -0.32,-18.64 q 2.24,0 3.76,0.6 1.56,0.56 2.48,1.64 0.96,1.04 1.36,2.52 0.4,1.44 0.4,3.2 l 0,13 q -0.48,0.08 -1.36,0.24 -0.84,0.12 -1.92,0.24 -1.08,0.12 -2.36,0.2 -1.24,0.12 -2.48,0.12 -1.76,0 -3.24,-0.36 -1.48,-0.36 -2.56,-1.12 -1.08,-0.8 -1.68,-2.08 -0.6,-1.28 -0.6,-3.08 0,-1.72 0.68,-2.96 0.72,-1.24 1.92,-2 1.2,-0.76 2.8,-1.12 1.6,-0.36 3.36,-0.36 0.56,0 1.16,0.08 0.6,0.04 1.12,0.16 0.56,0.08 0.96,0.16 0.4,0.08 0.56,0.12 l 0,-1.04 q 0,-0.92 -0.2,-1.8 -0.2,-0.92 -0.72,-1.6 -0.52,-0.72 -1.44,-1.12 -0.88,-0.44 -2.32,-0.44 -1.84,0 -3.24,0.28 -1.36,0.24 -2.04,0.52 l -0.44,-3.08 q 0.72,-0.32 2.4,-0.6 1.68,-0.32 3.64,-0.32 z"
             id="path4578"
             inkscape:connector-curvature="0" />
          <path
             d="m 365.14367,30.03185 q 0.48,0 1.08,0.08 0.64,0.04 1.24,0.16 0.6,0.08 1.08,0.2 0.52,0.08 0.76,0.16 l -0.64,3.24 q -0.44,-0.16 -1.48,-0.36 -1,-0.24 -2.6,-0.24 -1.04,0 -2.08,0.24 -1,0.2 -1.32,0.28 l 0,17.48 -3.72,0 0,-19.92 q 1.32,-0.48 3.28,-0.88 1.96,-0.44 4.4,-0.44 z"
             id="path4580"
             inkscape:connector-curvature="0" />
          <path
             d="m 381.97242,51.75185 q -2.52,0 -4.44,-0.8 -1.88,-0.8 -3.2,-2.24 -1.28,-1.44 -1.92,-3.4 -0.64,-2 -0.64,-4.4 0,-2.4 0.68,-4.4 0.72,-2 2,-3.44 1.28,-1.48 3.12,-2.28 1.88,-0.84 4.16,-0.84 1.4,0 2.8,0.24 1.4,0.24 2.68,0.76 l -0.84,3.16 q -0.84,-0.4 -1.96,-0.64 -1.08,-0.24 -2.32,-0.24 -3.12,0 -4.8,1.96 -1.64,1.96 -1.64,5.72 0,1.68 0.36,3.08 0.4,1.4 1.2,2.4 0.84,1 2.12,1.56 1.28,0.52 3.12,0.52 1.48,0 2.68,-0.28 1.2,-0.28 1.88,-0.6 l 0.52,3.12 q -0.32,0.2 -0.92,0.4 -0.6,0.16 -1.36,0.28 -0.76,0.16 -1.64,0.24 -0.84,0.12 -1.64,0.12 z"
             id="path4582"
             inkscape:connector-curvature="0" />
          <path
             d="m 391.52617,51.27185 0,-30.4 3.72,-0.64 0,10.64 q 1.04,-0.4 2.2,-0.6 1.2,-0.24 2.36,-0.24 2.48,0 4.12,0.72 1.64,0.68 2.6,1.96 1,1.24 1.4,3 0.4,1.76 0.4,3.88 l 0,11.68 -3.72,0 0,-10.88 q 0,-1.92 -0.28,-3.28 -0.24,-1.36 -0.84,-2.2 -0.6,-0.84 -1.6,-1.2 -1,-0.4 -2.48,-0.4 -0.6,0 -1.24,0.08 -0.64,0.08 -1.24,0.2 -0.56,0.08 -1.04,0.2 -0.44,0.12 -0.64,0.2 l 0,17.28 -3.72,0 z"
             id="path4584"
             inkscape:connector-curvature="0" />
          <path
             d="m 418.05867,51.27185 -3.72,0 0,-20.8 3.72,0 0,20.8 z m -1.88,-24.56 q -1,0 -1.72,-0.64 -0.68,-0.68 -0.68,-1.8 0,-1.12 0.68,-1.76 0.72,-0.68 1.72,-0.68 1,0 1.68,0.68 0.72,0.64 0.72,1.76 0,1.12 -0.72,1.8 -0.68,0.64 -1.68,0.64 z"
             id="path4586"
             inkscape:connector-curvature="0" />
        </g>
        <g
           transform="matrix(0.34505891,0,0,0.34505891,99.770963,1009.258)"
           style="font-style:normal;font-variant:normal;font-weight:normal;font-stretch:normal;font-size:40px;line-height:125%;font-family:Ubuntu;-inkscape-font-specification:Ubuntu;letter-spacing:0px;word-spacing:0px;fill:#333333;fill-opacity:1;stroke:none;stroke-width:1px;stroke-linecap:butt;stroke-linejoin:miter;stroke-opacity:1"
           id="flowRoot4387-3">
          <path
             d="m 139.97742,37.71185 7.56,0 0,-8.24 3.2,0 0,8.24 7.56,0 0,3.16 -7.56,0 0,8.28 -3.2,0 0,-8.28 -7.56,0 0,-3.16 z"
             id="path4589"
             inkscape:connector-curvature="0" />
          <path
             d="m 168.39555,34.23185 q 6.04,0.24 8.84,2.64 2.84,2.4 2.84,6.52 0,1.84 -0.64,3.4 -0.6,1.56 -1.88,2.68 -1.24,1.12 -3.16,1.76 -1.92,0.64 -4.56,0.64 -1.04,0 -2.12,-0.16 -1.08,-0.16 -2,-0.4 -0.92,-0.24 -1.64,-0.48 -0.72,-0.24 -1.04,-0.4 l 0.72,-3.24 q 0.68,0.32 2.2,0.84 1.56,0.52 3.8,0.52 1.8,0 3,-0.4 1.24,-0.4 2,-1.08 0.76,-0.68 1.08,-1.56 0.36,-0.92 0.36,-1.92 0,-1.52 -0.52,-2.68 -0.52,-1.2 -1.84,-2 -1.32,-0.8 -3.52,-1.2 -2.2,-0.44 -5.56,-0.44 0.24,-1.96 0.36,-3.68 0.16,-1.72 0.28,-3.36 0.12,-1.64 0.2,-3.24 0.08,-1.64 0.16,-3.44 l 13.36,0 0,3.16 -10.12,0 q -0.04,0.6 -0.12,1.64 -0.08,1 -0.16,2.12 -0.08,1.08 -0.16,2.12 -0.08,1.04 -0.16,1.64 z"
             id="path4591"
             inkscape:connector-curvature="0" />
          <path
             d="m 190.97367,34.23185 q 6.04,0.24 8.84,2.64 2.84,2.4 2.84,6.52 0,1.84 -0.64,3.4 -0.6,1.56 -1.88,2.68 -1.24,1.12 -3.16,1.76 -1.92,0.64 -4.56,0.64 -1.04,0 -2.12,-0.16 -1.08,-0.16 -2,-0.4 -0.92,-0.24 -1.64,-0.48 -0.72,-0.24 -1.04,-0.4 l 0.72,-3.24 q 0.68,0.32 2.2,0.84 1.56,0.52 3.8,0.52 1.8,0 3,-0.4 1.24,-0.4 2,-1.08 0.76,-0.68 1.08,-1.56 0.36,-0.92 0.36,-1.92 0,-1.52 -0.52,-2.68 -0.52,-1.2 -1.84,-2 -1.32,-0.8 -3.52,-1.2 -2.2,-0.44 -5.56,-0.44 0.24,-1.96 0.36,-3.68 0.16,-1.72 0.28,-3.36 0.12,-1.64 0.2,-3.24 0.08,-1.64 0.16,-3.44 l 13.36,0 0,3.16 -10.12,0 q -0.04,0.6 -0.12,1.64 -0.08,1 -0.16,2.12 -0.08,1.08 -0.16,2.12 -0.08,1.04 -0.16,1.64 z"
             id="path4593"
             inkscape:connector-curvature="0" />
          <path
             d="m 218.53055,29.27185 q 2.28,-0.88 4.44,-2.24 2.16,-1.4 3.96,-3.48 l 2.64,0 0,27.72 -3.72,0 0,-22.56 q -0.48,0.44 -1.2,0.92 -0.68,0.48 -1.52,0.92 -0.8,0.44 -1.72,0.84 -0.88,0.4 -1.72,0.68 l -1.16,-2.8 z"
             id="path4595"
             inkscape:connector-curvature="0" />
          <path
             d="m 241.10867,29.27185 q 2.28,-0.88 4.44,-2.24 2.16,-1.4 3.96,-3.48 l 2.64,0 0,27.72 -3.72,0 0,-22.56 q -0.48,0.44 -1.2,0.92 -0.68,0.48 -1.52,0.92 -0.8,0.44 -1.72,0.84 -0.88,0.4 -1.72,0.68 l -1.16,-2.8 z"
             id="path4597"
             inkscape:connector-curvature="0" />
          <path
             d="m 289.22555,34.63185 q 0,8.24 -4.12,12.48 -4.08,4.2 -12.16,4.24 l -0.12,-3.12 q 2.52,0 4.52,-0.48 2.04,-0.48 3.56,-1.52 1.52,-1.08 2.52,-2.76 1.04,-1.68 1.52,-4.12 -1.04,0.48 -2.36,0.8 -1.32,0.28 -2.72,0.28 -2.36,0 -4,-0.68 -1.64,-0.72 -2.68,-1.88 -1.04,-1.2 -1.52,-2.72 -0.44,-1.56 -0.44,-3.24 0,-1.48 0.52,-3.08 0.52,-1.6 1.56,-2.92 1.08,-1.32 2.72,-2.16 1.64,-0.84 3.88,-0.84 2.28,0 4,0.8 1.76,0.8 2.92,2.32 1.2,1.52 1.8,3.72 0.6,2.16 0.6,4.88 z m -8.96,2.76 q 1.4,0 2.64,-0.24 1.24,-0.28 2.4,-0.8 0.04,-0.44 0.04,-0.84 0,-0.44 0,-0.88 0,-1.72 -0.24,-3.28 -0.24,-1.6 -0.88,-2.76 -0.6,-1.2 -1.64,-1.88 -1.04,-0.72 -2.64,-0.72 -1.32,0 -2.24,0.56 -0.92,0.56 -1.52,1.44 -0.6,0.84 -0.88,1.88 -0.24,1 -0.24,1.96 0,2.72 1.28,4.16 1.32,1.4 3.92,1.4 z"
             id="path4599"
             inkscape:connector-curvature="0" />
          <path
             d="m 312.12367,44.07185 q 0,1.68 -0.6,3.12 -0.56,1.4 -1.72,2.48 -1.12,1.04 -2.84,1.6 -1.72,0.6 -3.96,0.6 -2.6,0 -4.36,-0.72 -1.72,-0.76 -2.76,-1.88 -1.04,-1.12 -1.48,-2.44 -0.44,-1.36 -0.44,-2.56 0,-1.16 0.36,-2.2 0.4,-1.08 1,-2 0.64,-0.92 1.44,-1.64 0.84,-0.76 1.76,-1.32 -3.92,-2.24 -3.92,-6.6 0,-1.52 0.6,-2.88 0.6,-1.4 1.68,-2.44 1.12,-1.04 2.68,-1.64 1.56,-0.64 3.48,-0.64 2.24,0 3.84,0.68 1.6,0.68 2.6,1.76 1.04,1.04 1.48,2.32 0.48,1.28 0.48,2.48 0,1.16 -0.36,2.2 -0.32,1 -0.92,1.88 -0.56,0.88 -1.32,1.56 -0.72,0.68 -1.52,1.2 4.72,2.24 4.8,7.08 z m -14.4,0.24 q 0,0.72 0.24,1.52 0.28,0.76 0.92,1.44 0.64,0.64 1.64,1.08 1,0.44 2.52,0.44 1.36,0 2.36,-0.4 1.04,-0.4 1.68,-1 0.64,-0.64 0.96,-1.44 0.32,-0.8 0.32,-1.64 0,-1.28 -0.48,-2.24 -0.48,-0.96 -1.4,-1.68 -0.88,-0.72 -2.16,-1.2 -1.24,-0.52 -2.84,-0.88 -1.8,1 -2.8,2.48 -0.96,1.48 -0.96,3.52 z m 10,-14.2 q 0,-0.6 -0.28,-1.32 -0.24,-0.72 -0.8,-1.32 -0.56,-0.64 -1.44,-1.04 -0.88,-0.44 -2.16,-0.44 -1.28,0 -2.2,0.4 -0.88,0.4 -1.44,1.04 -0.56,0.6 -0.84,1.36 -0.24,0.72 -0.24,1.44 0,0.88 0.32,1.76 0.32,0.88 1,1.64 0.68,0.76 1.76,1.36 1.12,0.6 2.64,0.96 1.68,-1 2.68,-2.32 1,-1.36 1,-3.52 z"
             id="path4601"
             inkscape:connector-curvature="0" />
          <path
             d="m 322.3018,34.23185 q 6.04,0.24 8.84,2.64 2.84,2.4 2.84,6.52 0,1.84 -0.64,3.4 -0.6,1.56 -1.88,2.68 -1.24,1.12 -3.16,1.76 -1.92,0.64 -4.56,0.64 -1.04,0 -2.12,-0.16 -1.08,-0.16 -2,-0.4 -0.92,-0.24 -1.64,-0.48 -0.72,-0.24 -1.04,-0.4 l 0.72,-3.24 q 0.68,0.32 2.2,0.84 1.56,0.52 3.8,0.52 1.8,0 3,-0.4 1.24,-0.4 2,-1.08 0.76,-0.68 1.08,-1.56 0.36,-0.92 0.36,-1.92 0,-1.52 -0.52,-2.68 -0.52,-1.2 -1.84,-2 -1.32,-0.8 -3.52,-1.2 -2.2,-0.44 -5.56,-0.44 0.24,-1.96 0.36,-3.68 0.16,-1.72 0.28,-3.36 0.12,-1.64 0.2,-3.24 0.08,-1.64 0.16,-3.44 l 13.36,0 0,3.16 -10.12,0 q -0.04,0.6 -0.12,1.64 -0.08,1 -0.16,2.12 -0.08,1.08 -0.16,2.12 -0.08,1.04 -0.16,1.64 z"
             id="path4603"
             inkscape:connector-curvature="0" />
          <path
             d="m 339.43992,40.15185 q 0,-4.04 1.12,-7.12 1.12,-3.12 3.16,-5.24 2.08,-2.12 5,-3.2 2.96,-1.12 6.64,-1.16 l 0.28,3.12 q -2.36,0.04 -4.32,0.52 -1.92,0.48 -3.44,1.52 -1.52,1.04 -2.56,2.72 -1.04,1.64 -1.56,4.08 1.04,-0.48 2.32,-0.8 1.32,-0.32 2.72,-0.32 2.36,0 4,0.72 1.64,0.72 2.68,1.92 1.04,1.16 1.48,2.72 0.48,1.52 0.48,3.2 0,1.52 -0.52,3.12 -0.52,1.6 -1.6,2.92 -1.04,1.32 -2.68,2.16 -1.64,0.84 -3.88,0.84 -4.56,0 -6.96,-3.12 -2.36,-3.12 -2.36,-8.6 z m 8.96,-2.84 q -1.4,0 -2.6,0.28 -1.2,0.24 -2.4,0.76 -0.04,0.44 -0.08,0.92 0,0.44 0,0.88 0,1.76 0.24,3.32 0.24,1.56 0.84,2.76 0.64,1.16 1.68,1.88 1.04,0.68 2.64,0.68 1.32,0 2.24,-0.56 0.92,-0.56 1.52,-1.44 0.6,-0.88 0.84,-1.88 0.28,-1.04 0.28,-2 0,-2.72 -1.32,-4.16 -1.28,-1.44 -3.88,-1.44 z"
             id="path4605"
             inkscape:connector-curvature="0" />
          <path
             d="m 368.53805,48.55185 q 3.56,0 5.08,-1.4 1.56,-1.4 1.56,-3.76 0,-1.52 -0.64,-2.56 -0.64,-1.04 -1.68,-1.64 -1.04,-0.64 -2.44,-0.88 -1.36,-0.28 -2.8,-0.28 l -0.96,0 0,-3.04 1.32,0 q 1,0 2.04,-0.2 1.08,-0.2 1.96,-0.72 0.88,-0.52 1.44,-1.4 0.56,-0.92 0.56,-2.28 0,-1.12 -0.4,-1.92 -0.4,-0.8 -1.08,-1.32 -0.64,-0.52 -1.52,-0.72 -0.84,-0.24 -1.8,-0.24 -1.92,0 -3.28,0.56 -1.32,0.56 -2.24,1.16 l -1.44,-2.84 q 0.48,-0.32 1.2,-0.68 0.76,-0.4 1.68,-0.72 0.92,-0.32 1.96,-0.52 1.08,-0.24 2.24,-0.24 2.2,0 3.8,0.56 1.6,0.52 2.64,1.52 1.04,0.96 1.56,2.32 0.52,1.32 0.52,2.88 0,2.16 -1.24,3.72 -1.24,1.52 -3,2.32 1.08,0.32 2.08,0.92 1,0.6 1.72,1.52 0.76,0.92 1.2,2.12 0.48,1.2 0.48,2.68 0,1.8 -0.64,3.36 -0.6,1.52 -1.92,2.64 -1.28,1.12 -3.24,1.76 -1.96,0.64 -4.64,0.64 -1.04,0 -2.16,-0.16 -1.08,-0.16 -2.04,-0.4 -0.96,-0.24 -1.68,-0.48 -0.72,-0.24 -1.04,-0.4 l 0.72,-3.24 q 0.68,0.32 2.24,0.84 1.6,0.52 3.88,0.52 z"
             id="path4607"
             inkscape:connector-curvature="0" />
          <path
             d="m 411.33492,34.63185 q 0,8.24 -4.12,12.48 -4.08,4.2 -12.16,4.24 l -0.12,-3.12 q 2.52,0 4.52,-0.48 2.04,-0.48 3.56,-1.52 1.52,-1.08 2.52,-2.76 1.04,-1.68 1.52,-4.12 -1.04,0.48 -2.36,0.8 -1.32,0.28 -2.72,0.28 -2.36,0 -4,-0.68 -1.64,-0.72 -2.68,-1.88 -1.04,-1.2 -1.52,-2.72 -0.44,-1.56 -0.44,-3.24 0,-1.48 0.52,-3.08 0.52,-1.6 1.56,-2.92 1.08,-1.32 2.72,-2.16 1.64,-0.84 3.88,-0.84 2.28,0 4,0.8 1.76,0.8 2.92,2.32 1.2,1.52 1.8,3.72 0.6,2.16 0.6,4.88 z m -8.96,2.76 q 1.4,0 2.64,-0.24 1.24,-0.28 2.4,-0.8 0.04,-0.44 0.04,-0.84 0,-0.44 0,-0.88 0,-1.72 -0.24,-3.28 -0.24,-1.6 -0.88,-2.76 -0.6,-1.2 -1.64,-1.88 -1.04,-0.72 -2.64,-0.72 -1.32,0 -2.24,0.56 -0.92,0.56 -1.52,1.44 -0.6,0.84 -0.88,1.88 -0.24,1 -0.24,1.96 0,2.72 1.28,4.16 1.32,1.4 3.92,1.4 z"
             id="path4609"
             inkscape:connector-curvature="0" />
          <path
             d="m 415.87305,37.39185 q 0,-6.96 2.44,-10.72 2.48,-3.76 6.84,-3.76 4.36,0 6.8,3.76 2.48,3.76 2.48,10.72 0,6.96 -2.48,10.72 -2.44,3.76 -6.8,3.76 -4.36,0 -6.84,-3.76 -2.44,-3.76 -2.44,-10.72 z m 14.64,0 q 0,-2.28 -0.28,-4.32 -0.24,-2.04 -0.88,-3.56 -0.6,-1.52 -1.64,-2.4 -1.04,-0.92 -2.56,-0.92 -1.52,0 -2.56,0.92 -1.04,0.88 -1.68,2.4 -0.6,1.52 -0.88,3.56 -0.24,2.04 -0.24,4.32 0,2.28 0.24,4.32 0.28,2.04 0.88,3.56 0.64,1.52 1.68,2.44 1.04,0.88 2.56,0.88 1.52,0 2.56,-0.88 1.04,-0.92 1.64,-2.44 0.64,-1.52 0.88,-3.56 0.28,-2.04 0.28,-4.32 z"
             id="path4611"
             inkscape:connector-curvature="0" />
          <path
             d="m 456.49117,34.63185 q 0,8.24 -4.12,12.48 -4.08,4.2 -12.16,4.24 l -0.12,-3.12 q 2.52,0 4.52,-0.48 2.04,-0.48 3.56,-1.52 1.52,-1.08 2.52,-2.76 1.04,-1.68 1.52,-4.12 -1.04,0.48 -2.36,0.8 -1.32,0.28 -2.72,0.28 -2.36,0 -4,-0.68 -1.64,-0.72 -2.68,-1.88 -1.04,-1.2 -1.52,-2.72 -0.44,-1.56 -0.44,-3.24 0,-1.48 0.52,-3.08 0.52,-1.6 1.56,-2.92 1.08,-1.32 2.72,-2.16 1.64,-0.84 3.88,-0.84 2.28,0 4,0.8 1.76,0.8 2.92,2.32 1.2,1.52 1.8,3.72 0.6,2.16 0.6,4.88 z m -8.96,2.76 q 1.4,0 2.64,-0.24 1.24,-0.28 2.4,-0.8 0.04,-0.44 0.04,-0.84 0,-0.44 0,-0.88 0,-1.72 -0.24,-3.28 -0.24,-1.6 -0.88,-2.76 -0.6,-1.2 -1.64,-1.88 -1.04,-0.72 -2.64,-0.72 -1.32,0 -2.24,0.56 -0.92,0.56 -1.52,1.44 -0.6,0.84 -0.88,1.88 -0.24,1 -0.24,1.96 0,2.72 1.28,4.16 1.32,1.4 3.92,1.4 z"
             id="path4613"
             inkscape:connector-curvature="0" />
          <path
             d="m 462.7493,29.27185 q 2.28,-0.88 4.44,-2.24 2.16,-1.4 3.96,-3.48 l 2.64,0 0,27.72 -3.72,0 0,-22.56 q -0.48,0.44 -1.2,0.92 -0.68,0.48 -1.52,0.92 -0.8,0.44 -1.72,0.84 -0.88,0.4 -1.72,0.68 l -1.16,-2.8 z"
             id="path4615"
             inkscape:connector-curvature="0" />
        </g>
        <g
           transform="matrix(1.0289544,0,0,1.0289544,147.33924,963.0622)"
           style="font-style:normal;font-variant:normal;font-weight:normal;font-stretch:normal;font-size:21.58263779px;line-height:125%;font-family:Ubuntu;-inkscape-font-specification:Ubuntu;letter-spacing:0px;word-spacing:0px;fill:#1a1a1a;fill-opacity:1;stroke:none;stroke-width:1px;stroke-linecap:butt;stroke-linejoin:miter;stroke-opacity:1"
           id="flowRoot4387-3-3">
          <path
             d="m 0.7115756,0.34438007 2.0935159,0 0,14.95676793 -2.0935159,0 0,-14.95676793 z"
             id="path4618"
             inkscape:connector-curvature="0" />
          <path
             d="M 6.3992752,4.401916 Q 7.0899196,4.2292549 8.2122168,4.0350111 9.3560966,3.8407674 10.845299,3.8407674 q 1.079131,0 1.812941,0.3021569 0.73381,0.2805743 1.230211,0.8417229 0.151078,-0.1079132 0.474818,-0.3021569 0.323739,-0.1942438 0.798557,-0.3669049 0.474818,-0.1942437 1.057549,-0.3237395 0.582732,-0.1510785 1.251793,-0.1510785 1.294959,0 2.115099,0.3884875 0.82014,0.3669048 1.273376,1.0575492 0.474818,0.6906444 0.625896,1.6402805 0.172661,0.9496361 0.172661,2.0719332 l 0,6.3021302 -2.007185,0 0,-5.8704774 q 0,-0.9928014 -0.107913,-1.7050284 -0.08633,-0.7122271 -0.366905,-1.1870451 -0.258992,-0.474818 -0.73381,-0.6906444 -0.453235,-0.237409 -1.187045,-0.237409 -1.014384,0 -1.683446,0.2805743 -0.647479,0.2589916 -0.884888,0.474818 0.172661,0.5611486 0.258992,1.2302104 0.08633,0.6690617 0.08633,1.4028714 l 0,6.3021302 -2.007185,0 0,-5.8704774 q 0,-0.9928014 -0.107913,-1.7050284 -0.107913,-0.7122271 -0.388488,-1.1870451 -0.258991,-0.474818 -0.733809,-0.6906444 -0.453236,-0.237409 -1.165463,-0.237409 -0.302157,0 -0.6474789,0.021583 -0.3453222,0.021583 -0.6690618,0.064748 -0.3021569,0.021583 -0.5611486,0.064748 -0.2589916,0.043165 -0.3453222,0.064748 l 0,9.4747783 -2.0071853,0 0,-10.8992324 z"
             id="path4620"
             inkscape:connector-curvature="0" />
          <path
             d="m 34.89544,9.6896622 q 0,1.3381238 -0.388488,2.4172558 -0.388487,1.079132 -1.100714,1.856107 -0.690645,0.776974 -1.661864,1.208627 -0.971218,0.41007 -2.115098,0.41007 -1.14388,0 -2.115099,-0.41007 -0.971218,-0.431653 -1.683445,-1.208627 -0.690645,-0.776975 -1.079132,-1.856107 -0.388488,-1.079132 -0.388488,-2.4172558 0,-1.3165409 0.388488,-2.3956728 0.388487,-1.1007145 1.079132,-1.8776895 0.712227,-0.7769749 1.683445,-1.187045 0.971219,-0.4316528 2.115099,-0.4316528 1.14388,0 2.115098,0.4316528 0.971219,0.4100701 1.661864,1.187045 0.712227,0.776975 1.100714,1.8776895 0.388488,1.0791319 0.388488,2.3956728 z m -2.093516,0 q 0,-1.8992721 -0.863306,-2.9999866 -0.841723,-1.1222972 -2.309342,-1.1222972 -1.467619,0 -2.330925,1.1222972 -0.841723,1.1007145 -0.841723,2.9999866 0,1.8992718 0.841723,3.0215698 0.863306,1.100714 2.330925,1.100714 1.467619,0 2.309342,-1.100714 0.863306,-1.122298 0.863306,-3.0215698 z"
             id="path4622"
             inkscape:connector-curvature="0" />
          <path
             d="m 39.726579,4.5745771 q 0.366905,-0.237409 1.100714,-0.4964007 0.755393,-0.2589916 1.726611,-0.2589916 1.208628,0 2.136682,0.4316527 0.949636,0.4316528 1.597115,1.2086277 0.647479,0.776975 0.971219,1.8561069 0.345322,1.0791319 0.345322,2.3740901 0,1.3597058 -0.41007,2.4604208 -0.388488,1.079132 -1.122298,1.834524 -0.733809,0.755392 -1.769776,1.165463 -1.035966,0.41007 -2.330925,0.41007 -1.402871,0 -2.482003,-0.194244 -1.079132,-0.194244 -1.769776,-0.388488 l 0,-16.0790647 2.007185,-0.3453222 0,6.021556 z m 0,8.9783769 q 0.302157,0.08633 0.841723,0.172661 0.561148,0.06475 1.381289,0.06475 1.618697,0 2.589916,-1.057549 0.971219,-1.079132 0.971219,-3.0431518 0,-0.8633055 -0.172661,-1.6186978 Q 45.165404,7.3155721 44.776916,6.7760061 44.388429,6.2148575 43.762532,5.9127006 43.158218,5.5889611 42.294913,5.5889611 q -0.82014,0 -1.510785,0.2805742 -0.690644,0.2805743 -1.057549,0.5827313 l 0,7.1006874 z"
             id="path4624"
             inkscape:connector-curvature="0" />
          <path
             d="m 54.248319,13.855111 q 0.712227,0 1.251793,-0.02158 0.561148,-0.04317 0.928053,-0.129496 l 0,-3.345309 q -0.215826,-0.107913 -0.712227,-0.172661 -0.474818,-0.08633 -1.165462,-0.08633 -0.453236,0 -0.971219,0.06475 -0.496401,0.06475 -0.928053,0.280575 -0.41007,0.194243 -0.690645,0.561148 -0.280574,0.345322 -0.280574,0.928054 0,1.079131 0.690644,1.510784 0.690645,0.41007 1.87769,0.41007 z M 54.075658,3.7976021 q 1.208627,0 2.028768,0.3237396 0.841723,0.3021569 1.338123,0.8848881 0.517984,0.5611486 0.73381,1.3597062 0.215826,0.776975 0.215826,1.726611 l 0,7.014357 q -0.258991,0.04317 -0.733809,0.129496 -0.453236,0.06475 -1.035967,0.129496 -0.582731,0.06475 -1.273376,0.107913 -0.669061,0.06475 -1.338123,0.06475 -0.949636,0 -1.748194,-0.194244 -0.798557,-0.194243 -1.381289,-0.604314 -0.582731,-0.431652 -0.90647,-1.122297 -0.32374,-0.690644 -0.32374,-1.661863 0,-0.928053 0.366905,-1.597115 0.388487,-0.6690618 1.035966,-1.0791319 0.64748,-0.4100701 1.510785,-0.6043138 0.863306,-0.1942438 1.812942,-0.1942438 0.302157,0 0.625896,0.043165 0.32374,0.021583 0.604314,0.086331 0.302157,0.043165 0.517983,0.086331 0.215827,0.043165 0.302157,0.064748 l 0,-0.5611486 q 0,-0.4964006 -0.107913,-0.9712187 Q 56.212339,6.7328409 55.931765,6.365936 55.65119,5.9774485 55.15479,5.7616222 54.679972,5.5242131 53.902997,5.5242131 q -0.992802,0 -1.748194,0.1510785 -0.73381,0.1294958 -1.100715,0.2805743 L 50.816679,4.2940028 q 0.388488,-0.1726611 1.294959,-0.3237396 0.906471,-0.1726611 1.96402,-0.1726611 z"
             id="path4626"
             inkscape:connector-curvature="0" />
          <path
             d="m 61.704783,4.401916 q 0.690645,-0.1726611 1.834525,-0.3669049 1.143879,-0.1942437 2.633081,-0.1942437 1.338124,0 2.223012,0.3884875 0.884888,0.3669048 1.402871,1.0575492 0.539566,0.6690618 0.755393,1.6186979 0.215826,0.949636 0.215826,2.0935158 l 0,6.3021302 -2.007185,0 0,-5.8704774 q 0,-1.0359666 -0.151079,-1.7697763 Q 68.481732,6.9270846 68.157992,6.4738492 67.834252,6.0206138 67.294687,5.8263701 66.755121,5.6105437 65.956563,5.6105437 q -0.32374,0 -0.669062,0.021583 -0.345322,0.021583 -0.669062,0.064748 -0.302157,0.021583 -0.561148,0.064748 -0.237409,0.043165 -0.345322,0.064748 l 0,9.4747783 -2.007186,0 0,-10.8992324 z"
             id="path4628"
             inkscape:connector-curvature="0" />
          <path
             d="m 78.155477,9.1285136 q 0.647479,0.4964007 1.359706,1.2302104 0.73381,0.73381 1.424454,1.597115 0.712228,0.841723 1.338124,1.726611 0.625897,0.863306 1.057549,1.618698 l -2.352507,0 q -0.453236,-0.755392 -1.05755,-1.532367 -0.582731,-0.798558 -1.23021,-1.510785 -0.647479,-0.73381 -1.316541,-1.338123 -0.669062,-0.604314 -1.273375,-1.0143844 l 0,5.3956594 -2.007186,0 0,-16.4028047 2.007186,-0.3453222 0,10.2301703 Q 76.62311,8.2652081 77.249006,7.6393116 77.874903,7.0134151 78.479217,6.365936 79.083531,5.7184569 79.623097,5.1357257 80.162663,4.5314118 80.55115,4.0781764 l 2.352508,0 q -0.496401,0.539566 -1.079132,1.1870451 -0.582732,0.6474791 -1.208628,1.3165409 -0.625897,0.6474791 -1.273376,1.3165409 -0.625896,0.6474791 -1.187045,1.2302103 z"
             id="path4630"
             inkscape:connector-curvature="0" />
        </g>
        <g
           transform="matrix(0.89108003,0,0,0.89108003,148.49891,180.747)"
           style="font-style:normal;font-variant:normal;font-weight:normal;font-stretch:normal;font-size:17.1529007px;line-height:125%;font-family:Ubuntu;-inkscape-font-specification:Ubuntu;letter-spacing:0px;word-spacing:0px;fill:#333333;fill-opacity:1;stroke:none;stroke-width:1px;stroke-linecap:butt;stroke-linejoin:miter;stroke-opacity:1"
           id="flowRoot4387-3-3-9">
          <path
             d="m 5.1121045,915.9303 q -1.2521618,0 -2.2813358,-0.41167 -1.029174,-0.41167 -1.7667488,-1.2007 -0.7375747,-0.78904 -1.14924432,-1.93828 -0.39451671,-1.1664 -0.39451671,-2.6587 0,-1.4923 0.44597541,-2.64155 0.46312832,-1.16639 1.23500882,-1.95543 0.7718806,-0.78903 1.8010546,-1.2007 1.029174,-0.41167 2.1955713,-0.41167 0.7375747,0 1.3207733,0.10292 0.6003516,0.10292 1.0291741,0.24014 0.4459754,0.13722 0.7204218,0.27445 0.2744464,0.13722 0.3773638,0.20583 l -0.4802812,1.37223 q -0.1543761,-0.10292 -0.4459754,-0.22299 -0.2915993,-0.12007 -0.6689631,-0.24014 -0.3602109,-0.12007 -0.8061864,-0.18868 -0.4288225,-0.0858 -0.8747979,-0.0858 -0.9434095,0 -1.6981372,0.3259 -0.7547276,0.32591 -1.2864675,0.94341 -0.5317399,0.61751 -0.8233393,1.50946 -0.2744464,0.8748 -0.2744464,1.97258 0,1.06348 0.2401406,1.93828 0.2572936,0.8748 0.7547277,1.50945 0.4974341,0.61751 1.2350088,0.96057 0.7547277,0.34305 1.7495959,0.34305 1.1492443,0 1.903972,-0.24014 0.7547276,-0.24014 1.1320914,-0.42882 l 0.4288225,1.37223 q -0.1200703,0.0858 -0.4288225,0.22299 -0.3087522,0.12007 -0.7718805,0.24014 -0.4631283,0.12007 -1.0806328,0.20584 -0.6175044,0.0858 -1.3379262,0.0858 z"
             id="path4633"
             inkscape:connector-curvature="0" />
          <path
             d="m 13.811038,906.56482 q 0.205834,0 0.463128,0.0343 0.274446,0.0172 0.53174,0.0686 0.257293,0.0343 0.463128,0.0858 0.222988,0.0343 0.325905,0.0686 l -0.274446,1.38939 q -0.188682,-0.0686 -0.634657,-0.15438 -0.428823,-0.10292 -1.114939,-0.10292 -0.445975,0 -0.891951,0.10292 -0.428822,0.0858 -0.566045,0.12007 l 0,7.49582 -1.59522,0 0,-8.54215 q 0.566045,-0.20583 1.406538,-0.37736 0.840492,-0.18868 1.886819,-0.18868 z"
             id="path4635"
             inkscape:connector-curvature="0" />
          <path
             d="m 25.024211,911.21325 q 0,1.06348 -0.308753,1.92113 -0.308752,0.85764 -0.874798,1.47515 -0.548892,0.6175 -1.320773,0.96056 -0.77188,0.32591 -1.680984,0.32591 -0.909104,0 -1.680984,-0.32591 -0.771881,-0.34306 -1.337927,-0.96056 -0.548892,-0.61751 -0.857645,-1.47515 -0.308752,-0.85765 -0.308752,-1.92113 0,-1.04632 0.308752,-1.90397 0.308753,-0.8748 0.857645,-1.4923 0.566046,-0.61751 1.337927,-0.94341 0.77188,-0.34306 1.680984,-0.34306 0.909104,0 1.680984,0.34306 0.771881,0.3259 1.320773,0.94341 0.566046,0.6175 0.874798,1.4923 0.308753,0.85765 0.308753,1.90397 z m -1.663832,0 q 0,-1.50945 -0.686116,-2.38425 -0.668963,-0.89195 -1.83536,-0.89195 -1.166397,0 -1.852513,0.89195 -0.668964,0.8748 -0.668964,2.38425 0,1.50946 0.668964,2.40141 0.686116,0.8748 1.852513,0.8748 1.166397,0 1.83536,-0.8748 0.686116,-0.89195 0.686116,-2.40141 z"
             id="path4637"
             inkscape:connector-curvature="0" />
          <path
             d="m 34.32403,915.67301 q -0.480281,-1.23501 -1.029174,-2.81308 -0.531739,-1.59522 -0.977715,-3.31051 -0.445975,1.71529 -0.977715,3.31051 -0.53174,1.57807 -1.012021,2.81308 l -1.389385,0 q -0.789034,-1.76675 -1.543761,-4.03093 -0.754728,-2.26419 -1.423691,-4.88858 l 1.71529,0 q 0.171529,0.80619 0.41167,1.74959 0.24014,0.94341 0.497434,1.88682 0.274446,0.94341 0.566045,1.81821 0.2916,0.8748 0.548893,1.52661 0.2916,-0.80619 0.566046,-1.69814 0.291599,-0.9091 0.548893,-1.8182 0.257293,-0.92626 0.480281,-1.80106 0.240141,-0.89195 0.41167,-1.66383 l 1.320773,0 q 0.154376,0.77188 0.377364,1.66383 0.222987,0.8748 0.480281,1.80106 0.257293,0.9091 0.53174,1.8182 0.291599,0.89195 0.583199,1.69814 0.257293,-0.65181 0.531739,-1.52661 0.2916,-0.8748 0.566046,-1.81821 0.274447,-0.94341 0.514587,-1.88682 0.240141,-0.9434 0.41167,-1.74959 l 1.646678,0 q -0.668963,2.62439 -1.42369,4.88858 -0.754728,2.26418 -1.543762,4.03093 l -1.389385,0 z"
             id="path4639"
             inkscape:connector-curvature="0" />
          <path
             d="m 46.131121,908.64032 q -0.2916,-0.24014 -0.840493,-0.46313 -0.548892,-0.22299 -1.200703,-0.22299 -0.686116,0 -1.18355,0.2573 -0.480281,0.24014 -0.789033,0.68611 -0.308752,0.42882 -0.445976,1.02918 -0.137223,0.60035 -0.137223,1.28646 0,1.56092 0.771881,2.41856 0.77188,0.84049 2.058348,0.84049 0.65181,0 1.080633,-0.0515 0.445975,-0.0686 0.686116,-0.13723 l 0,-5.6433 z m 0,-6.00352 1.595219,-0.27444 0,13.05335 q -0.548892,0.15438 -1.406537,0.30876 -0.857646,0.15437 -1.972584,0.15437 -1.029174,0 -1.852513,-0.3259 -0.82334,-0.32591 -1.406538,-0.92626 -0.583199,-0.60035 -0.909104,-1.458 -0.308752,-0.87479 -0.308752,-1.95543 0,-1.02917 0.257293,-1.88682 0.274447,-0.85764 0.789034,-1.47515 0.514587,-0.6175 1.252162,-0.96056 0.754727,-0.34306 1.71529,-0.34306 0.77188,0 1.355079,0.20584 0.600351,0.20583 0.891951,0.39452 l 0,-4.51122 z"
             id="path4641"
             inkscape:connector-curvature="0" />
          <path
             d="m 53.967316,902.36236 q 0.703269,0 1.200703,0.10291 0.514587,0.10292 0.720422,0.18869 l -0.2916,1.37223 q -0.205835,-0.10292 -0.583198,-0.18868 -0.377364,-0.10292 -0.926257,-0.10292 -1.114939,0 -1.560914,0.6175 -0.445975,0.60035 -0.445975,1.62953 l 0,0.77188 3.43058,0 0,1.33793 -3.43058,0 0,7.58158 -1.59522,0 0,-9.7257 q 0,-1.71529 0.840492,-2.64154 0.840492,-0.94341 2.641547,-0.94341 z"
             id="path4643"
             inkscape:connector-curvature="0" />
          <path
             d="m 64.219928,915.41571 q -0.548893,0.13723 -1.457997,0.2916 -0.89195,0.15438 -2.0755,0.15438 -1.029175,0 -1.732443,-0.2916 -0.703269,-0.30875 -1.132092,-0.85764 -0.428822,-0.5489 -0.617504,-1.28647 -0.188682,-0.75473 -0.188682,-1.66383 l 0,-5.00865 1.59522,0 0,4.66559 q 0,1.62952 0.514587,2.33279 0.514587,0.70327 1.732443,0.70327 0.257293,0 0.531739,-0.0172 0.274447,-0.0172 0.514587,-0.0343 0.240141,-0.0343 0.428823,-0.0515 0.205835,-0.0343 0.291599,-0.0686 l 0,-7.53012 1.59522,0 0,8.66221 z"
             id="path4645"
             inkscape:connector-curvature="0" />
          <path
             d="m 66.968141,907.01079 q 0.548893,-0.13722 1.457997,-0.2916 0.909103,-0.15437 2.092654,-0.15437 1.063479,0 1.766748,0.30875 0.703269,0.2916 1.114939,0.84049 0.428822,0.53174 0.600351,1.28647 0.171529,0.75473 0.171529,1.66383 l 0,5.00865 -1.595219,0 0,-4.66559 q 0,-0.82334 -0.120071,-1.40654 -0.102917,-0.5832 -0.360211,-0.94341 -0.257293,-0.36021 -0.686116,-0.51459 -0.428822,-0.17152 -1.063479,-0.17152 -0.257294,0 -0.53174,0.0172 -0.274447,0.0172 -0.53174,0.0515 -0.240141,0.0172 -0.445976,0.0515 -0.188682,0.0343 -0.274446,0.0515 l 0,7.53013 -1.59522,0 0,-8.66222 z"
             id="path4647"
             inkscape:connector-curvature="0" />
          <path
             d="m 82.581034,908.64032 q -0.2916,-0.24014 -0.840493,-0.46313 -0.548892,-0.22299 -1.200703,-0.22299 -0.686116,0 -1.18355,0.2573 -0.480281,0.24014 -0.789033,0.68611 -0.308752,0.42882 -0.445976,1.02918 -0.137223,0.60035 -0.137223,1.28646 0,1.56092 0.771881,2.41856 0.77188,0.84049 2.058348,0.84049 0.65181,0 1.080633,-0.0515 0.445975,-0.0686 0.686116,-0.13723 l 0,-5.6433 z m 0,-6.00352 1.595219,-0.27444 0,13.05335 q -0.548892,0.15438 -1.406537,0.30876 -0.857645,0.15437 -1.972584,0.15437 -1.029174,0 -1.852513,-0.3259 -0.82334,-0.32591 -1.406538,-0.92626 -0.583199,-0.60035 -0.909104,-1.458 -0.308752,-0.87479 -0.308752,-1.95543 0,-1.02917 0.257293,-1.88682 0.274447,-0.85764 0.789034,-1.47515 0.514587,-0.6175 1.252162,-0.96056 0.754727,-0.34306 1.71529,-0.34306 0.77188,0 1.355079,0.20584 0.600351,0.20583 0.891951,0.39452 l 0,-4.51122 z"
             id="path4649"
             inkscape:connector-curvature="0" />
          <path
             d="m 88.53041,915.67301 -1.59522,0 0,-8.91951 1.59522,0 0,8.91951 z m -0.806187,-10.53188 q -0.428822,0 -0.737574,-0.27445 -0.2916,-0.2916 -0.2916,-0.77188 0,-0.48028 0.2916,-0.75473 0.308752,-0.2916 0.737574,-0.2916 0.428823,0 0.720422,0.2916 0.308752,0.27445 0.308752,0.75473 0,0.48028 -0.308752,0.77188 -0.291599,0.27445 -0.720422,0.27445 z"
             id="path4651"
             inkscape:connector-curvature="0" />
          <path
             d="m 91.290422,907.01079 q 0.548893,-0.13722 1.457997,-0.2916 0.909103,-0.15437 2.092654,-0.15437 1.063479,0 1.766748,0.30875 0.703269,0.2916 1.114939,0.84049 0.428822,0.53174 0.600351,1.28647 0.171529,0.75473 0.171529,1.66383 l 0,5.00865 -1.595219,0 0,-4.66559 q 0,-0.82334 -0.120071,-1.40654 -0.102917,-0.5832 -0.360211,-0.94341 -0.257293,-0.36021 -0.686116,-0.51459 -0.428822,-0.17152 -1.06348,-0.17152 -0.257293,0 -0.531739,0.0172 -0.274447,0.0172 -0.53174,0.0515 -0.240141,0.0172 -0.445976,0.0515 -0.188682,0.0343 -0.274446,0.0515 l 0,7.53013 -1.59522,0 0,-8.66222 z"
             id="path4653"
             inkscape:connector-curvature="0" />
          <path
             d="m 106.73179,914.78106 q -0.20584,0.13722 -0.80619,0.36021 -0.5832,0.20583 -1.37223,0.20583 -0.80619,0 -1.52661,-0.25729 -0.70327,-0.25729 -1.23501,-0.78903 -0.53174,-0.5489 -0.84049,-1.35508 -0.30875,-0.80619 -0.30875,-1.92113 0,-0.97771 0.2916,-1.7839 0.29159,-0.82334 0.84049,-1.40654 0.56604,-0.60035 1.37223,-0.92625 0.80619,-0.34306 1.81821,-0.34306 1.11494,0 1.93827,0.17153 0.8405,0.15437 1.40654,0.2916 l 0,7.95894 q 0,2.05835 -1.06348,2.98461 -1.06348,0.92625 -3.22474,0.92625 -0.84049,0 -1.59522,-0.13722 -0.73758,-0.13722 -1.28647,-0.32591 l 0.2916,-1.38938 q 0.48028,0.18868 1.1664,0.3259 0.70327,0.15438 1.45799,0.15438 1.42369,0 2.0412,-0.56604 0.63466,-0.56605 0.63466,-1.80106 l 0,-0.37736 z m -0.0172,-6.62102 q -0.24014,-0.0686 -0.65181,-0.12007 -0.39451,-0.0686 -1.08063,-0.0686 -1.28647,0 -1.98974,0.84049 -0.68611,0.84049 -0.68611,2.22987 0,0.77188 0.18868,1.32078 0.20583,0.54889 0.53174,0.9091 0.34306,0.36021 0.77188,0.53174 0.44597,0.17153 0.9091,0.17153 0.63466,0 1.1664,-0.17153 0.53174,-0.18868 0.84049,-0.42882 l 0,-5.21448 z"
             id="path4655"
             inkscape:connector-curvature="0" />
          <path
             d="m 115.11259,903.78605 1.66383,0 0,11.88696 -1.66383,0 0,-11.88696 z"
             id="path4657"
             inkscape:connector-curvature="0" />
          <path
             d="m 119.63291,907.01079 q 0.54889,-0.13722 1.44084,-0.2916 0.9091,-0.15437 2.09265,-0.15437 0.85765,0 1.44085,0.24014 0.5832,0.22299 0.97771,0.66896 0.12007,-0.0858 0.37737,-0.24014 0.25729,-0.15438 0.63465,-0.2916 0.37737,-0.15438 0.8405,-0.25729 0.46312,-0.12007 0.99486,-0.12007 1.02918,0 1.68099,0.30875 0.65181,0.2916 1.01202,0.84049 0.37736,0.54889 0.49743,1.30362 0.13723,0.75473 0.13723,1.64668 l 0,5.00865 -1.59522,0 0,-4.66559 q 0,-0.78903 -0.0858,-1.35508 -0.0686,-0.56605 -0.2916,-0.94341 -0.20583,-0.37736 -0.5832,-0.54889 -0.36021,-0.18868 -0.94341,-0.18868 -0.80618,0 -1.33792,0.22298 -0.51459,0.20584 -0.70327,0.37737 0.13722,0.44597 0.20583,0.97771 0.0686,0.53174 0.0686,1.11494 l 0,5.00865 -1.59522,0 0,-4.66559 q 0,-0.78903 -0.0858,-1.35508 -0.0858,-0.56605 -0.30875,-0.94341 -0.20584,-0.37736 -0.5832,-0.54889 -0.36021,-0.18868 -0.92626,-0.18868 -0.24014,0 -0.51458,0.0172 -0.27445,0.0172 -0.53174,0.0515 -0.24014,0.0172 -0.44598,0.0515 -0.20583,0.0343 -0.27444,0.0515 l 0,7.53013 -1.59522,0 0,-8.66222 z"
             id="path4659"
             inkscape:connector-curvature="0" />
          <path
             d="m 142.28037,911.21325 q 0,1.06348 -0.30875,1.92113 -0.30875,0.85764 -0.8748,1.47515 -0.54889,0.6175 -1.32077,0.96056 -0.77188,0.32591 -1.68099,0.32591 -0.9091,0 -1.68098,-0.32591 -0.77188,-0.34306 -1.33793,-0.96056 -0.54889,-0.61751 -0.85764,-1.47515 -0.30875,-0.85765 -0.30875,-1.92113 0,-1.04632 0.30875,-1.90397 0.30875,-0.8748 0.85764,-1.4923 0.56605,-0.61751 1.33793,-0.94341 0.77188,-0.34306 1.68098,-0.34306 0.90911,0 1.68099,0.34306 0.77188,0.3259 1.32077,0.94341 0.56605,0.6175 0.8748,1.4923 0.30875,0.85765 0.30875,1.90397 z m -1.66383,0 q 0,-1.50945 -0.68612,-2.38425 -0.66896,-0.89195 -1.83536,-0.89195 -1.16639,0 -1.85251,0.89195 -0.66896,0.8748 -0.66896,2.38425 0,1.50946 0.66896,2.40141 0.68612,0.8748 1.85251,0.8748 1.1664,0 1.83536,-0.8748 0.68612,-0.89195 0.68612,-2.40141 z"
             id="path4661"
             inkscape:connector-curvature="0" />
          <path
             d="m 146.11993,907.14802 q 0.2916,-0.18869 0.8748,-0.39452 0.60035,-0.20584 1.37223,-0.20584 0.96057,0 1.69814,0.34306 0.75473,0.34306 1.26931,0.96056 0.51459,0.61751 0.77189,1.47515 0.27444,0.85765 0.27444,1.88682 0,1.08064 -0.3259,1.95543 -0.30876,0.85765 -0.89195,1.458 -0.5832,0.60035 -1.40654,0.92626 -0.82334,0.3259 -1.85252,0.3259 -1.11493,0 -1.97258,-0.15437 -0.85764,-0.15438 -1.40654,-0.30876 l 0,-12.77891 1.59522,-0.27444 0,4.78566 z m 0,7.1356 q 0.24014,0.0686 0.66897,0.13723 0.44597,0.0515 1.09778,0.0515 1.28647,0 2.05835,-0.84049 0.77188,-0.85764 0.77188,-2.41856 0,-0.68611 -0.13722,-1.28646 -0.13723,-0.60036 -0.44598,-1.02918 -0.30875,-0.44597 -0.80618,-0.68611 -0.48029,-0.2573 -1.1664,-0.2573 -0.65181,0 -1.2007,0.22299 -0.5489,0.22299 -0.8405,0.46313 l 0,5.6433 z"
             id="path4663"
             inkscape:connector-curvature="0" />
          <path
             d="m 156.23747,915.67301 -1.59522,0 0,-8.91951 1.59522,0 0,8.91951 z m -0.80618,-10.53188 q -0.42883,0 -0.73758,-0.27445 -0.2916,-0.2916 -0.2916,-0.77188 0,-0.48028 0.2916,-0.75473 0.30875,-0.2916 0.73758,-0.2916 0.42882,0 0.72042,0.2916 0.30875,0.27445 0.30875,0.75473 0,0.48028 -0.30875,0.77188 -0.2916,0.27445 -0.72042,0.27445 z"
             id="path4665"
             inkscape:connector-curvature="0" />
          <path
             d="m 161.67333,915.84454 q -1.47515,-0.0343 -2.09266,-0.63466 -0.6175,-0.60035 -0.6175,-1.86967 l 0,-10.70341 1.59522,-0.27444 0,10.72056 q 0,0.39452 0.0686,0.65181 0.0686,0.25729 0.22299,0.41167 0.15438,0.15438 0.41167,0.24014 0.25729,0.0686 0.63466,0.12007 l -0.22299,1.33793 z"
             id="path4667"
             inkscape:connector-curvature="0" />
          <path
             d="m 165.28294,915.67301 -1.59522,0 0,-8.91951 1.59522,0 0,8.91951 z m -0.80618,-10.53188 q -0.42883,0 -0.73758,-0.27445 -0.2916,-0.2916 -0.2916,-0.77188 0,-0.48028 0.2916,-0.75473 0.30875,-0.2916 0.73758,-0.2916 0.42882,0 0.72042,0.2916 0.30875,0.27445 0.30875,0.75473 0,0.48028 -0.30875,0.77188 -0.2916,0.27445 -0.72042,0.27445 z"
             id="path4669"
             inkscape:connector-curvature="0" />
          <path
             d="m 171.06186,914.52376 q 0.56604,0 0.99487,-0.0172 0.44597,-0.0343 0.73757,-0.10292 l 0,-2.6587 q -0.17153,-0.0858 -0.56604,-0.13722 -0.37737,-0.0686 -0.92626,-0.0686 -0.36021,0 -0.77188,0.0515 -0.39452,0.0515 -0.73758,0.22298 -0.3259,0.15438 -0.54889,0.44598 -0.22299,0.27445 -0.22299,0.73757 0,0.85765 0.5489,1.20071 0.54889,0.3259 1.4923,0.3259 z m -0.13723,-7.99325 q 0.96057,0 1.61238,0.25729 0.66896,0.24015 1.06348,0.70327 0.41167,0.44598 0.5832,1.08064 0.17152,0.6175 0.17152,1.37223 l 0,5.57469 q -0.20583,0.0343 -0.58319,0.10292 -0.36021,0.0515 -0.82334,0.10292 -0.46313,0.0515 -1.01202,0.0858 -0.53174,0.0515 -1.06348,0.0515 -0.75473,0 -1.38939,-0.15438 -0.63466,-0.15437 -1.09778,-0.48028 -0.46313,-0.34306 -0.72043,-0.89195 -0.25729,-0.54889 -0.25729,-1.32077 0,-0.73758 0.2916,-1.26932 0.30875,-0.53174 0.82334,-0.85764 0.51459,-0.32591 1.2007,-0.48028 0.68612,-0.15438 1.44085,-0.15438 0.24014,0 0.49743,0.0343 0.25729,0.0172 0.48028,0.0686 0.24014,0.0343 0.41167,0.0686 0.17153,0.0343 0.24014,0.0515 l 0,-0.44598 q 0,-0.39451 -0.0858,-0.77188 -0.0858,-0.39451 -0.30876,-0.68611 -0.22298,-0.30876 -0.6175,-0.48028 -0.37736,-0.18869 -0.99487,-0.18869 -0.78903,0 -1.38938,0.12007 -0.5832,0.10292 -0.8748,0.22299 l -0.18868,-1.32077 q 0.30875,-0.13723 1.02917,-0.2573 0.72042,-0.13722 1.56091,-0.13722 z m 2.3328,-3.15613 -2.41856,2.34995 -0.80619,-0.72043 2.19558,-2.64154 1.02917,1.01202 z"
             id="path4671"
             inkscape:connector-curvature="0" />
          <path
             d="m 180.28128,906.56482 q 0.20584,0 0.46313,0.0343 0.27445,0.0172 0.53174,0.0686 0.25729,0.0343 0.46313,0.0858 0.22299,0.0343 0.3259,0.0686 l -0.27444,1.38939 q -0.18869,-0.0686 -0.63466,-0.15438 -0.42882,-0.10292 -1.11494,-0.10292 -0.44597,0 -0.89195,0.10292 -0.42882,0.0858 -0.56605,0.12007 l 0,7.49582 -1.59522,0 0,-8.54215 q 0.56605,-0.20583 1.40654,-0.37736 0.84049,-0.18868 1.88682,-0.18868 z"
             id="path4673"
             inkscape:connector-curvature="0" />
          <path
             d="m 185.21649,915.67301 -1.59522,0 0,-8.91951 1.59522,0 0,8.91951 z m -0.80619,-10.53188 q -0.42882,0 -0.73757,-0.27445 -0.2916,-0.2916 -0.2916,-0.77188 0,-0.48028 0.2916,-0.75473 0.30875,-0.2916 0.73757,-0.2916 0.42883,0 0.72043,0.2916 0.30875,0.27445 0.30875,0.75473 0,0.48028 -0.30875,0.77188 -0.2916,0.27445 -0.72043,0.27445 z"
             id="path4675"
             inkscape:connector-curvature="0" />
          <path
             d="m 195.84968,911.21325 q 0,1.06348 -0.30876,1.92113 -0.30875,0.85764 -0.87479,1.47515 -0.5489,0.6175 -1.32078,0.96056 -0.77188,0.32591 -1.68098,0.32591 -0.9091,0 -1.68099,-0.32591 -0.77188,-0.34306 -1.33792,-0.96056 -0.54889,-0.61751 -0.85765,-1.47515 -0.30875,-0.85765 -0.30875,-1.92113 0,-1.04632 0.30875,-1.90397 0.30876,-0.8748 0.85765,-1.4923 0.56604,-0.61751 1.33792,-0.94341 0.77189,-0.34306 1.68099,-0.34306 0.9091,0 1.68098,0.34306 0.77188,0.3259 1.32078,0.94341 0.56604,0.6175 0.87479,1.4923 0.30876,0.85765 0.30876,1.90397 z m -1.66383,0 q 0,-1.50945 -0.68612,-2.38425 -0.66896,-0.89195 -1.83536,-0.89195 -1.1664,0 -1.85251,0.89195 -0.66897,0.8748 -0.66897,2.38425 0,1.50946 0.66897,2.40141 0.68611,0.8748 1.85251,0.8748 1.1664,0 1.83536,-0.8748 0.68612,-0.89195 0.68612,-2.40141 z"
             id="path4677"
             inkscape:connector-curvature="0" />
        </g>
      </g>
    </g>
  </g>
</svg>
