<?xml version="1.0" encoding="UTF-8" standalone="no"?>
<!-- Created with Inkscape (http://www.inkscape.org/) -->

<svg
   xmlns:dc="http://purl.org/dc/elements/1.1/"
   xmlns:cc="http://creativecommons.org/ns#"
   xmlns:rdf="http://www.w3.org/1999/02/22-rdf-syntax-ns#"
   xmlns:svg="http://www.w3.org/2000/svg"
   xmlns="http://www.w3.org/2000/svg"
   xmlns:xlink="http://www.w3.org/1999/xlink"
   xmlns:sodipodi="http://sodipodi.sourceforge.net/DTD/sodipodi-0.dtd"
   xmlns:inkscape="http://www.inkscape.org/namespaces/inkscape"
   width="205"
   height="205"
   viewBox="0 0 205.00001 205"
   id="svg4892"
   version="1.1"
   inkscape:version="0.91 r13725"
   sodipodi:docname="p1.svg">
  <defs
     id="defs4894">
    <radialGradient
       inkscape:collect="always"
       xlink:href="#linearGradient4166"
       id="radialGradient4172"
       cx="328.76956"
       cy="668.91846"
       fx="328.76956"
       fy="668.91846"
       r="89"
       gradientUnits="userSpaceOnUse"
       gradientTransform="matrix(0.92749662,0.04881561,-0.05708663,1.0846461,-146.33271,217.25391)" />
    <linearGradient
       inkscape:collect="always"
       id="linearGradient4166">
      <stop
         style="stop-color:#000000;stop-opacity:1;"
         offset="0"
         id="stop4168" />
      <stop
         style="stop-color:#000000;stop-opacity:0;"
         offset="1"
         id="stop4170" />
    </linearGradient>
  </defs>
  <sodipodi:namedview
     id="base"
     pagecolor="#ffffff"
     bordercolor="#666666"
     borderopacity="1.0"
     inkscape:pageopacity="0.0"
     inkscape:pageshadow="2"
     inkscape:zoom="1.4"
     inkscape:cx="-80.607199"
     inkscape:cy="143.00265"
     inkscape:document-units="px"
     inkscape:current-layer="layer1"
     showgrid="false"
     showguides="true"
     inkscape:guide-bbox="true"
     units="px"
     inkscape:window-width="1600"
     inkscape:window-height="837"
     inkscape:window-x="-8"
     inkscape:window-y="-8"
     inkscape:window-maximized="1" />
  <metadata
     id="metadata4897">
    <rdf:RDF>
      <cc:Work
         rdf:about="">
        <dc:format>image/svg+xml</dc:format>
        <dc:type
           rdf:resource="http://purl.org/dc/dcmitype/StillImage" />
        <dc:title />
      </cc:Work>
    </rdf:RDF>
  </metadata>
  <g
     inkscape:label="Layer 1"
     inkscape:groupmode="layer"
     id="layer1"
     transform="translate(0,-847.36216)">
    <path
       style="opacity:1;fill:#b3b3b3;fill-opacity:0.69716091;stroke:url(#radialGradient4172);stroke-width:9.77532578;stroke-linecap:square;stroke-linejoin:round;stroke-miterlimit:4;stroke-dasharray:none;stroke-opacity:1"
       d="M 199.95271,948.4632 A 96.667114,96.667114 0 0 1 103.28559,1045.1303 96.667114,96.667114 0 0 1 6.6184769,948.4632 96.667114,96.667114 0 0 1 103.28559,851.79608 96.667114,96.667114 0 0 1 199.95271,948.4632 Z"
       id="path4156" />
    <path
       style="fill:none;fill-rule:evenodd;stroke:#000000;stroke-width:1.08614731px;stroke-linecap:butt;stroke-linejoin:miter;stroke-opacity:1"
       d="m 50.42447,877.93378 0,132.85392"
       id="path4174"
       inkscape:connector-curvature="0"
       sodipodi:nodetypes="cc" />
    <g
       transform="translate(1.73081,846.90843)"
       style="font-style:normal;font-variant:normal;font-weight:normal;font-stretch:normal;font-size:30.32484055px;line-height:80.00000119%;font-family:'A Ryal Black Block';-inkscape-font-specification:'A Ryal Black Block, Normal';text-align:start;letter-spacing:0px;word-spacing:0px;writing-mode:lr-tb;text-anchor:start;fill:#000000;fill-opacity:1;stroke:none;stroke-width:1px;stroke-linecap:butt;stroke-linejoin:miter;stroke-opacity:1"
       id="flowRoot4176">
      <path
         d="m 61.350278,85.403362 8.069843,-19.811834 2.087794,0 8.069843,19.811834 -2.620848,0 -2.369128,-5.967241 -8.277142,0 -2.369128,5.967241 -2.591234,0 z m 9.091529,-16.731967 q -1.317827,3.701762 -2.532005,6.722401 l -0.740353,1.865688 6.559524,0 -0.740353,-1.865688 q -1.214178,-3.079867 -2.487584,-6.722401 l -0.05923,0 z"
         style="font-style:normal;font-variant:normal;font-weight:normal;font-stretch:normal;font-size:30.32484055px;line-height:80.00000119%;font-family:Corbel;-inkscape-font-specification:'Corbel, Normal';text-align:start;writing-mode:lr-tb;text-anchor:start"
         id="path4172" />
      <path
         d="m 92.519121,78.310785 q 0,-1.673197 -0.399791,-2.709691 -0.384983,-1.0513 -1.006879,-1.628775 -0.607089,-0.592282 -1.303021,-0.814388 -0.695931,-0.222106 -1.391863,-0.222106 -1.066107,0 -2.013758,0.444212 -0.932845,0.444211 -1.65839,1.15495 l 0,7.359104 q 0.207299,0.281334 0.533054,0.621896 0.340562,0.325755 0.79958,0.621896 0.459019,0.281334 1.021687,0.488633 0.577475,0.192492 1.258599,0.192492 1.021687,0 1.791653,-0.399791 0.784774,-0.39979 1.303021,-1.125335 0.533054,-0.740353 0.799581,-1.747233 0.266527,-1.021686 0.266527,-2.235864 z M 94.917863,78.1331 q 0,1.969338 -0.533054,3.405622 -0.533054,1.436284 -1.40667,2.383935 -0.873616,0.932844 -1.998952,1.391863 -1.125336,0.459019 -2.324707,0.459019 -0.90323,0 -1.599161,-0.236913 -0.681125,-0.222106 -1.169757,-0.533054 -0.473826,-0.325755 -0.769967,-0.65151 -0.281334,-0.325756 -0.39979,-0.518247 l -0.04442,0 -0.488633,1.569547 -1.732425,0 0,-21.44061 2.295093,0 0,8.691739 0.04442,0 q 0.75516,-0.79958 1.762039,-1.243792 1.00688,-0.444212 2.295093,-0.444212 0.592282,0 1.273406,0.133264 0.695932,0.133263 1.362249,0.459018 0.681124,0.325756 1.303021,0.858809 0.621896,0.533054 1.095721,1.332635 0.473826,0.784774 0.75516,1.880496 0.281334,1.080914 0.281334,2.502391 z"
         style="font-style:normal;font-variant:normal;font-weight:normal;font-stretch:normal;font-size:30.32484055px;line-height:80.00000119%;font-family:Corbel;-inkscape-font-specification:'Corbel, Normal';text-align:start;writing-mode:lr-tb;text-anchor:start"
         id="path4175" />
      <path
         d="m 106.24525,73.202352 -0.17768,0 q -0.81439,0 -1.59916,0.148071 -0.78478,0.14807 -1.48071,0.459018 -0.68112,0.296141 -1.24379,0.740353 -0.54786,0.444211 -0.91804,1.0513 l 0,9.802268 -2.295089,0 0,-14.066698 1.776849,0 0.44421,2.235864 0.0444,0 q 0.34056,-0.54786 0.82919,-1.021686 0.50344,-0.473826 1.12534,-0.829195 0.6219,-0.355369 1.36225,-0.547861 0.74035,-0.207299 1.55474,-0.207299 0.14807,0 0.29614,0.01481 0.16288,0 0.28133,0.01481 l 0,2.20625 z"
         style="font-style:normal;font-variant:normal;font-weight:normal;font-stretch:normal;font-size:30.32484055px;line-height:80.00000119%;font-family:Corbel;-inkscape-font-specification:'Corbel, Normal';text-align:start;writing-mode:lr-tb;text-anchor:start"
         id="path4177" />
      <path
         d="m 116.95075,83.848622 -0.0592,0 q -0.28133,0.355369 -0.71073,0.710738 -0.42941,0.340562 -0.99208,0.621896 -0.56266,0.266527 -1.22898,0.429405 -0.66632,0.162878 -1.42148,0.162878 -1.02168,0 -1.88049,-0.310949 -0.84401,-0.296141 -1.4659,-0.873616 -0.60709,-0.592282 -0.94765,-1.436284 -0.34057,-0.844001 -0.34057,-1.910109 0,-1.051301 0.37018,-1.880496 0.38498,-0.829194 1.06611,-1.406669 0.68112,-0.577475 1.62877,-0.888424 0.96246,-0.310948 2.11741,-0.310948 1.09572,0.01481 2.02857,0.192492 0.93284,0.177685 1.65839,0.444212 l 0.0592,0 0,-0.977266 q 0,-0.577475 -0.074,-1.021686 -0.074,-0.444212 -0.25172,-0.784774 -0.38498,-0.710738 -1.22898,-1.169757 -0.84401,-0.473826 -2.28029,-0.473826 -1.06611,0 -2.01376,0.207299 -0.93284,0.192492 -1.86569,0.547861 l 0,-1.924917 q 0.35537,-0.177684 0.8292,-0.325755 0.48863,-0.162877 1.02168,-0.266527 0.53306,-0.118456 1.12534,-0.177684 0.59228,-0.05923 1.18456,-0.05923 2.13222,0 3.47966,0.75516 1.36225,0.75516 1.95453,1.998952 0.22211,0.473826 0.31095,1.051301 0.10365,0.562668 0.10365,1.243792 l 0,9.38767 -1.92492,0 -0.25172,-1.55474 z m -0.11845,-4.6198 q -0.63671,-0.177685 -1.51032,-0.340562 -0.87362,-0.162878 -1.92492,-0.177685 -1.4659,0 -2.29509,0.621896 -0.8292,0.621896 -0.8292,1.91011 0,0.65151 0.2073,1.140143 0.2073,0.488632 0.56267,0.814388 0.37018,0.310948 0.85881,0.473825 0.50344,0.148071 1.06611,0.148071 0.74035,0 1.37705,-0.207299 0.63671,-0.222106 1.12534,-0.518247 0.50344,-0.296141 0.844,-0.592282 0.35537,-0.296141 0.51825,-0.459018 l 0,-2.81334 z"
         style="font-style:normal;font-variant:normal;font-weight:normal;font-stretch:normal;font-size:30.32484055px;line-height:80.00000119%;font-family:Corbel;-inkscape-font-specification:'Corbel, Normal';text-align:start;writing-mode:lr-tb;text-anchor:start"
         id="path4179" />
      <path
         d="m 131.16552,75.082848 q 0,0.577475 0.25172,0.947651 0.25172,0.370176 0.66632,0.607089 0.4294,0.222106 0.97727,0.370176 0.56266,0.148071 1.15495,0.266527 0.81438,0.177685 1.53993,0.399791 0.72554,0.207298 1.33263,0.636703 0.6219,0.429404 0.99208,1.169757 0.38498,0.725545 0.38498,1.895302 0,1.066108 -0.4146,1.895303 -0.4146,0.814388 -1.16976,1.377056 -0.75515,0.547861 -1.80646,0.829194 -1.0513,0.296142 -2.3099,0.296142 -0.76996,0 -1.40667,-0.08884 -0.62189,-0.07404 -1.11052,-0.207299 -0.47383,-0.118456 -0.81439,-0.251719 -0.34056,-0.133264 -0.56267,-0.25172 l 0,-1.924917 q 0.88842,0.355369 1.76204,0.562668 0.87362,0.207299 1.92492,0.207299 0.82919,0 1.49551,-0.148071 0.66632,-0.14807 1.14014,-0.429404 0.48863,-0.296141 0.74035,-0.725546 0.26653,-0.444211 0.26653,-1.021686 0,-0.592282 -0.23691,-0.977266 -0.23692,-0.384983 -0.63671,-0.636703 -0.39979,-0.25172 -0.93284,-0.414597 -0.51825,-0.162878 -1.09572,-0.296141 -0.75516,-0.162878 -1.53993,-0.384984 -0.76997,-0.222105 -1.40667,-0.621896 -0.63671,-0.39979 -1.0365,-1.080914 -0.38498,-0.695932 -0.38498,-1.776847 0,-1.110528 0.39979,-1.924916 0.39979,-0.814388 1.08091,-1.347442 0.68113,-0.533054 1.58436,-0.799581 0.90323,-0.266527 1.91011,-0.266527 1.16975,0 2.16183,0.222106 1.00688,0.222106 1.82126,0.562668 l 0,1.954531 q -0.88842,-0.340562 -1.80646,-0.547861 -0.90323,-0.222106 -1.86568,-0.236913 -0.81439,0 -1.39187,0.162878 -0.57747,0.162877 -0.94765,0.459018 -0.37017,0.281334 -0.54786,0.681125 -0.16288,0.384983 -0.16288,0.858809 z"
         style="font-style:normal;font-variant:normal;font-weight:normal;font-stretch:normal;font-size:30.32484055px;line-height:80.00000119%;font-family:Corbel;-inkscape-font-specification:'Corbel, Normal';text-align:start;writing-mode:lr-tb;text-anchor:start"
         id="path4181" />
      <path
         d="m 147.52731,85.773539 q -1.09572,0 -1.96933,-0.236913 -0.87362,-0.236913 -1.53994,-0.666318 -0.65151,-0.429404 -1.11053,-1.021686 -0.45901,-0.607089 -0.72554,-1.317828 -0.2073,-0.533054 -0.29614,-1.169757 -0.0888,-0.636703 -0.0888,-1.391863 l 0,-8.63251 2.29509,0 0,8.617703 q 0,1.169757 0.31095,1.954531 0.35537,0.888423 1.14014,1.40667 0.79958,0.50344 2.02857,0.50344 1.30302,0 2.08779,-0.562668 0.79958,-0.562668 1.14014,-1.510319 0.25172,-0.725546 0.25172,-1.791654 l 0,-8.617703 2.2951,0 0,8.647318 q 0,0.710738 -0.0888,1.332634 -0.074,0.607089 -0.25172,1.125336 -0.26652,0.725546 -0.74035,1.347442 -0.45902,0.607089 -1.14014,1.0513 -0.68113,0.444212 -1.58436,0.681125 -0.88842,0.25172 -2.01376,0.25172 z"
         style="font-style:normal;font-variant:normal;font-weight:normal;font-stretch:normal;font-size:30.32484055px;line-height:80.00000119%;font-family:Corbel;-inkscape-font-specification:'Corbel, Normal';text-align:start;writing-mode:lr-tb;text-anchor:start"
         id="path4183" />
      <path
         d="m 165.87325,83.848622 -0.0592,0 q -0.28133,0.355369 -0.71074,0.710738 -0.4294,0.340562 -0.99207,0.621896 -0.56267,0.266527 -1.22898,0.429405 -0.66632,0.162878 -1.42148,0.162878 -1.02169,0 -1.8805,-0.310949 -0.844,-0.296141 -1.46589,-0.873616 -0.60709,-0.592282 -0.94766,-1.436284 -0.34056,-0.844001 -0.34056,-1.910109 0,-1.051301 0.37018,-1.880496 0.38498,-0.829194 1.06611,-1.406669 0.68112,-0.577475 1.62877,-0.888424 0.96246,-0.310948 2.11741,-0.310948 1.09572,0.01481 2.02857,0.192492 0.93284,0.177685 1.65839,0.444212 l 0.0592,0 0,-0.977266 q 0,-0.577475 -0.074,-1.021686 -0.074,-0.444212 -0.25172,-0.784774 -0.38499,-0.710738 -1.22899,-1.169757 -0.844,-0.473826 -2.28028,-0.473826 -1.06611,0 -2.01376,0.207299 -0.93285,0.192492 -1.86569,0.547861 l 0,-1.924917 q 0.35537,-0.177684 0.82919,-0.325755 0.48864,-0.162877 1.02169,-0.266527 0.53305,-0.118456 1.12534,-0.177684 0.59228,-0.05923 1.18456,-0.05923 2.13222,0 3.47966,0.75516 1.36225,0.75516 1.95453,1.998952 0.2221,0.473826 0.31095,1.051301 0.10365,0.562668 0.10365,1.243792 l 0,9.38767 -1.92492,0 -0.25172,-1.55474 z m -0.11846,-4.6198 q -0.6367,-0.177685 -1.51032,-0.340562 -0.87361,-0.162878 -1.92491,-0.177685 -1.4659,0 -2.2951,0.621896 -0.82919,0.621896 -0.82919,1.91011 0,0.65151 0.2073,1.140143 0.2073,0.488632 0.56267,0.814388 0.37017,0.310948 0.85881,0.473825 0.50344,0.148071 1.0661,0.148071 0.74036,0 1.37706,-0.207299 0.6367,-0.222106 1.12533,-0.518247 0.50344,-0.296141 0.84401,-0.592282 0.35537,-0.296141 0.51824,-0.459018 l 0,-2.81334 z"
         style="font-style:normal;font-variant:normal;font-weight:normal;font-stretch:normal;font-size:30.32484055px;line-height:80.00000119%;font-family:Corbel;-inkscape-font-specification:'Corbel, Normal';text-align:start;writing-mode:lr-tb;text-anchor:start"
         id="path4185" />
      <path
         d="m 69.094366,95.22636 q 1.021686,0 1.95453,0.222106 0.932845,0.207298 1.599162,0.592282 l 0,1.910109 q -0.932844,-0.355369 -1.717618,-0.533054 -0.784774,-0.177684 -1.599161,-0.177684 -0.858809,0 -1.702811,0.281334 -0.844002,0.281334 -1.51032,0.932844 -0.666317,0.636703 -1.080914,1.702813 -0.399791,1.0513 -0.399791,2.62085 0,1.14014 0.296141,2.1026 0.310948,0.96246 0.903231,1.67319 0.607089,0.69594 1.510319,1.09573 0.90323,0.38498 2.087794,0.38498 0.858809,0 1.732425,-0.17769 0.873616,-0.19249 1.702811,-0.53305 l 0,1.91011 q -0.25172,0.14807 -0.666318,0.29614 -0.39979,0.14807 -0.888423,0.25172 -0.488632,0.11846 -1.036493,0.17769 -0.547861,0.074 -1.095722,0.074 -1.421477,0 -2.694883,-0.4294 -1.2586,-0.42941 -2.206251,-1.31783 -0.947651,-0.88842 -1.495512,-2.25067 -0.547861,-1.36225 -0.547861,-3.22794 0,-1.39186 0.281334,-2.50239 0.296141,-1.11053 0.799581,-1.954532 0.50344,-0.844002 1.169757,-1.436284 0.681124,-0.592282 1.436284,-0.962459 0.769966,-0.384983 1.584354,-0.54786 0.814388,-0.177685 1.584355,-0.177685 z"
         style="font-style:normal;font-variant:normal;font-weight:normal;font-stretch:normal;font-size:30.32484055px;line-height:80.00000119%;font-family:Corbel;-inkscape-font-specification:'Corbel, Normal';text-align:start;writing-mode:lr-tb;text-anchor:start"
         id="path4187" />
      <path
         d="m 86.522265,102.64469 q 0,-1.30302 -0.325755,-2.3099 -0.310948,-1.021684 -0.888423,-1.717615 -0.562668,-0.710739 -1.347442,-1.066108 -0.784773,-0.370176 -1.717617,-0.370176 -0.932845,0 -1.717618,0.370176 -0.784774,0.355369 -1.362249,1.066108 -0.562668,0.695931 -0.888423,1.717615 -0.310948,1.00688 -0.310948,2.3099 0,1.28822 0.310948,2.3099 0.325755,1.00688 0.90323,1.70281 0.577475,0.69593 1.362249,1.06611 0.784773,0.35537 1.717618,0.35537 0.932844,0 1.70281,-0.35537 0.784774,-0.37018 1.347442,-1.06611 0.577475,-0.69593 0.888423,-1.70281 0.325755,-1.02168 0.325755,-2.3099 z m 2.398743,0 q 0,1.65839 -0.473826,3.02064 -0.473826,1.36225 -1.347442,2.33951 -0.858809,0.96246 -2.087794,1.49552 -1.228985,0.53305 -2.754111,0.53305 -1.569548,0 -2.81334,-0.53305 -1.228985,-0.53306 -2.102601,-1.49552 -0.858809,-0.97726 -1.317828,-2.33951 -0.459019,-1.36225 -0.459019,-3.02064 0,-1.67319 0.473826,-3.035443 0.473826,-1.362249 1.332635,-2.339514 0.873616,-0.977265 2.102601,-1.510319 1.243792,-0.533054 2.768919,-0.533054 1.55474,0 2.798532,0.533054 1.243792,0.533054 2.102601,1.510319 0.858809,0.977265 1.317828,2.339514 0.459019,1.362253 0.459019,3.035443 z"
         style="font-style:normal;font-variant:normal;font-weight:normal;font-stretch:normal;font-size:30.32484055px;line-height:80.00000119%;font-family:Corbel;-inkscape-font-specification:'Corbel, Normal';text-align:start;writing-mode:lr-tb;text-anchor:start"
         id="path4189" />
      <path
         d="m 94.769794,97.551067 0.04442,0 q 0.384983,-0.488633 0.844002,-0.90323 0.473826,-0.429405 1.051301,-0.740353 0.577475,-0.325755 1.258599,-0.503439 0.695931,-0.177685 1.510319,-0.177685 0.962454,0 1.806464,0.266527 0.844,0.266527 1.46589,0.858809 0.6219,0.592282 0.97727,1.55474 0.37018,0.947651 0.37018,2.339514 l 0,9.41728 -2.2951,0 0,-9.0471 q 0,-1.821271 -0.71074,-2.620852 -0.69593,-0.79958 -2.043368,-0.79958 -1.184564,0 -2.295093,0.666317 -1.110529,0.65151 -1.91011,1.80646 l 0,9.994755 -2.295093,0 0,-14.066694 1.776846,0 0.444212,1.954531 z"
         style="font-style:normal;font-variant:normal;font-weight:normal;font-stretch:normal;font-size:30.32484055px;line-height:80.00000119%;font-family:Corbel;-inkscape-font-specification:'Corbel, Normal';text-align:start;writing-mode:lr-tb;text-anchor:start"
         id="path4191" />
      <path
         d="m 115.95868,109.69285 q -0.29614,0.11846 -0.90323,0.2221 -0.60708,0.10365 -1.45109,0.11846 -1.11053,0 -1.92491,-0.28133 -0.81439,-0.26653 -1.36225,-0.76997 -0.53306,-0.51825 -0.79958,-1.24379 -0.26653,-0.72555 -0.26653,-1.61397 l 0,-8.558476 -2.70969,0 0,-1.969338 2.70969,0 0,-3.849833 2.29509,0 0,3.849833 4.20521,0 0,1.969338 -4.20521,0 0,8.203106 q 0,0.48863 0.13327,0.90323 0.14807,0.4146 0.44421,0.72555 0.31095,0.29614 0.78477,0.47382 0.47383,0.16288 1.14014,0.16288 0.45902,0 0.96246,-0.074 0.51825,-0.074 0.94765,-0.19249 l 0,1.92492 z"
         style="font-style:normal;font-variant:normal;font-weight:normal;font-stretch:normal;font-size:30.32484055px;line-height:80.00000119%;font-family:Corbel;-inkscape-font-specification:'Corbel, Normal';text-align:start;writing-mode:lr-tb;text-anchor:start"
         id="path4193" />
      <path
         d="m 127.31569,108.10849 -0.0592,0 q -0.28134,0.35537 -0.71074,0.71074 -0.42941,0.34056 -0.99208,0.6219 -0.56266,0.26653 -1.22898,0.4294 -0.66632,0.16288 -1.42148,0.16288 -1.02168,0 -1.88049,-0.31095 -0.844,-0.29614 -1.4659,-0.87361 -0.60709,-0.59229 -0.94765,-1.43629 -0.34056,-0.844 -0.34056,-1.91011 0,-1.0513 0.37017,-1.88049 0.38499,-0.8292 1.06611,-1.40667 0.68112,-0.57748 1.62878,-0.88843 0.96245,-0.31094 2.1174,-0.31094 1.09573,0.0148 2.02857,0.19249 0.93284,0.17768 1.65839,0.44421 l 0.0592,0 0,-0.97727 q 0,-0.57747 -0.074,-1.021682 -0.074,-0.444211 -0.25172,-0.784774 -0.38498,-0.710738 -1.22898,-1.169757 -0.84401,-0.473825 -2.28029,-0.473825 -1.06611,0 -2.01376,0.207298 -0.93284,0.192492 -1.86569,0.547861 l 0,-1.924916 q 0.35537,-0.177685 0.8292,-0.325755 0.48863,-0.162878 1.02169,-0.266527 0.53305,-0.118457 1.12533,-0.177685 0.59228,-0.05923 1.18456,-0.05923 2.13222,0 3.47966,0.755159 1.36225,0.75516 1.95453,1.998952 0.22211,0.473826 0.31095,1.051301 0.10365,0.562668 0.10365,1.243788 l 0,9.38767 -1.92492,0 -0.25172,-1.55474 z m -0.11845,-4.6198 q -0.63671,-0.17768 -1.51032,-0.34056 -0.87362,-0.16288 -1.92492,-0.17768 -1.4659,0 -2.29509,0.62189 -0.8292,0.6219 -0.8292,1.91011 0,0.65151 0.2073,1.14015 0.2073,0.48863 0.56267,0.81438 0.37018,0.31095 0.85881,0.47383 0.50344,0.14807 1.06611,0.14807 0.74035,0 1.37705,-0.2073 0.63671,-0.2221 1.12534,-0.51825 0.50344,-0.29614 0.844,-0.59228 0.35537,-0.29614 0.51825,-0.45902 l 0,-2.81334 z"
         style="font-style:normal;font-variant:normal;font-weight:normal;font-stretch:normal;font-size:30.32484055px;line-height:80.00000119%;font-family:Corbel;-inkscape-font-specification:'Corbel, Normal';text-align:start;writing-mode:lr-tb;text-anchor:start"
         id="path4195" />
    </g>
    <g
       style="font-style:normal;font-variant:normal;font-weight:normal;font-stretch:normal;font-size:14.36173534px;line-height:125%;font-family:Corbel;-inkscape-font-specification:'Corbel, Normal';text-align:start;letter-spacing:0px;word-spacing:0px;writing-mode:lr-tb;text-anchor:start;fill:#000080;fill-opacity:1;stroke:none;stroke-width:1px;stroke-linecap:butt;stroke-linejoin:miter;stroke-opacity:1"
       id="text4186">
      <path
         d="m 68.507735,968.94509 q -0.371666,0 -0.694244,0.14726 -0.315565,0.14727 -0.553993,0.39972 -0.238427,0.25245 -0.385691,0.59607 -0.147264,0.3366 -0.182327,0.72229 l 3.366032,0 q 0,-0.3927 -0.105188,-0.7293 -0.09818,-0.34362 -0.294528,-0.59607 -0.196352,-0.25246 -0.483867,-0.39271 -0.287515,-0.14726 -0.666194,-0.14726 z m 0.596068,5.1332 q 0.539968,0 0.981759,-0.0842 0.448805,-0.0912 0.890596,-0.25246 l 0,0.90463 q -0.357641,0.17531 -0.883583,0.27349 -0.525942,0.10518 -1.129023,0.10518 -0.715282,0 -1.346413,-0.18232 -0.624118,-0.18233 -1.09396,-0.58906 -0.469842,-0.40673 -0.743332,-1.0589 -0.266478,-0.65918 -0.266478,-1.58484 0,-0.91163 0.252453,-1.57782 0.252452,-0.67321 0.673206,-1.12201 0.420754,-0.44881 0.967734,-0.67321 0.54698,-0.2244 1.143048,-0.2244 0.561006,0 1.044873,0.18934 0.490879,0.18232 0.84852,0.58204 0.357641,0.39972 0.561006,1.03085 0.210377,0.63113 0.210377,1.51471 0,0.0842 0,0.14727 0,0.0561 -0.007,0.26647 l -4.572193,0 q 0,0.63815 0.189339,1.08695 0.196352,0.44179 0.525943,0.7223 0.336603,0.27349 0.785407,0.39971 0.448804,0.12623 0.967734,0.12623 z"
         style="font-style:normal;font-variant:normal;font-weight:normal;font-stretch:normal;font-size:14.36173534px;line-height:125%;font-family:Corbel;-inkscape-font-specification:'Corbel, Normal';text-align:start;writing-mode:lr-tb;text-anchor:start;fill:#000080"
         id="path4151" />
      <path
         d="m 78.493629,974.84967 -1.086948,0 0,-4.28468 q 0,-0.43478 -0.09818,-0.73632 -0.09116,-0.30855 -0.27349,-0.5049 -0.175314,-0.19635 -0.427766,-0.28752 -0.24544,-0.0912 -0.553993,-0.0912 -0.582043,0 -1.058897,0.31557 -0.476855,0.30855 -0.855533,0.85553 l 0,4.73348 -1.086948,0 0,-6.66194 0.841508,0 0.210377,0.92566 0.02104,0 q 0.182327,-0.23141 0.392704,-0.42777 0.21739,-0.20336 0.476855,-0.35062 0.266477,-0.15428 0.582043,-0.23843 0.315565,-0.0842 0.687231,-0.0842 0.743332,0 1.234212,0.35764 0.490879,0.35764 0.757357,0.97475 l 0.02805,0 q 0.441792,-0.62412 1.00981,-0.97475 0.568017,-0.35764 1.325375,-0.35764 0.350628,0 0.743332,0.0982 0.392703,0.0982 0.722294,0.36466 0.32959,0.25946 0.54698,0.72229 0.21739,0.46283 0.21739,1.19214 l 0,4.45999 -1.079936,0 0,-4.28468 q 0,-0.43478 -0.09818,-0.73632 -0.09116,-0.30855 -0.27349,-0.5049 -0.175314,-0.19635 -0.427766,-0.28752 -0.24544,-0.0912 -0.553993,-0.0912 -0.582043,0 -1.06591,0.31557 -0.476854,0.30855 -0.855533,0.85553 l 0,4.73348 z"
         style="font-style:normal;font-variant:normal;font-weight:normal;font-stretch:normal;font-size:14.36173534px;line-height:125%;font-family:Corbel;-inkscape-font-specification:'Corbel, Normal';text-align:start;writing-mode:lr-tb;text-anchor:start;fill:#000080"
         id="path4153" />
      <path
         d="m 92.939515,974.75851 q 0,0.64515 -0.238427,1.19213 -0.231415,0.54698 -0.680219,0.9467 -0.441792,0.39972 -1.079935,0.62412 -0.638144,0.2244 -1.451601,0.2244 -0.532955,0 -1.016822,-0.10519 -0.483867,-0.0982 -0.869559,-0.30855 l 0,-0.92566 q 0.51893,0.23141 0.98176,0.30855 0.462829,0.0842 0.855533,0.0842 0.596068,0 1.037859,-0.16129 0.441792,-0.15427 0.73632,-0.42776 0.294528,-0.27349 0.441792,-0.63815 0.147263,-0.35764 0.147263,-0.75735 0,-0.48387 -0.154276,-0.8345 -0.147264,-0.35764 -0.469842,-0.58905 -0.322578,-0.23843 -0.827483,-0.35063 -0.504904,-0.11922 -1.220186,-0.11922 -0.504905,0 -1.220187,0.0701 l 0.666194,-4.80361 4.354804,0 0,1.0028 -3.394082,0 -0.392704,2.78399 q 0.24544,-0.014 0.392704,-0.014 0.82047,0 1.451601,0.18934 0.638143,0.18934 1.06591,0.54698 0.434779,0.35764 0.659181,0.87657 0.224402,0.51893 0.224402,1.18513 z"
         style="font-style:normal;font-variant:normal;font-weight:normal;font-stretch:normal;font-size:14.36173534px;line-height:125%;font-family:Corbel;-inkscape-font-specification:'Corbel, Normal';text-align:start;writing-mode:lr-tb;text-anchor:start;fill:#000080"
         id="path4155" />
      <path
         d="m 103.06566,974.84967 -1.08695,0 0,-4.28468 q 0,-0.43478 -0.0982,-0.73632 -0.0912,-0.30855 -0.27349,-0.5049 -0.17532,-0.19635 -0.42777,-0.28752 -0.24544,-0.0912 -0.55399,-0.0912 -0.58204,0 -1.058899,0.31557 -0.476854,0.30855 -0.855533,0.85553 l 0,4.73348 -1.086948,0 0,-6.66194 0.841508,0 0.210377,0.92566 0.02104,0 q 0.182327,-0.23141 0.392704,-0.42777 0.217389,-0.20336 0.476854,-0.35062 0.266478,-0.15428 0.582039,-0.23843 0.31557,-0.0842 0.68724,-0.0842 0.74333,0 1.23421,0.35764 0.49088,0.35764 0.75735,0.97475 l 0.028,0 q 0.4418,-0.62412 1.00981,-0.97475 0.56802,-0.35764 1.32538,-0.35764 0.35063,0 0.74333,0.0982 0.3927,0.0982 0.7223,0.36466 0.32959,0.25946 0.54698,0.72229 0.21739,0.46283 0.21739,1.19214 l 0,4.45999 -1.07994,0 0,-4.28468 q 0,-0.43478 -0.0982,-0.73632 -0.0912,-0.30855 -0.27349,-0.5049 -0.17531,-0.19635 -0.42776,-0.28752 -0.24544,-0.0912 -0.554,-0.0912 -0.58204,0 -1.06591,0.31557 -0.47685,0.30855 -0.85553,0.85553 l 0,4.73348 z"
         style="font-style:normal;font-variant:normal;font-weight:normal;font-stretch:normal;font-size:14.36173534px;line-height:125%;font-family:Corbel;-inkscape-font-specification:'Corbel, Normal';text-align:start;writing-mode:lr-tb;text-anchor:start;fill:#000080"
         id="path4157" />
      <path
         d="m 109.58735,974.84967 0,-6.66194 1.08694,0 0,6.66194 -1.08694,0 z m -0.0281,-8.21171 0,-1.21318 1.14304,0 0,1.21318 -1.14304,0 z"
         style="font-style:normal;font-variant:normal;font-weight:normal;font-stretch:normal;font-size:14.36173534px;line-height:125%;font-family:Corbel;-inkscape-font-specification:'Corbel, Normal';text-align:start;writing-mode:lr-tb;text-anchor:start;fill:#000080"
         id="path4159" />
      <path
         d="m 113.90709,969.11339 0.021,0 q 0.18232,-0.23141 0.39971,-0.42777 0.2244,-0.20336 0.49789,-0.35062 0.27349,-0.15428 0.59607,-0.23843 0.32959,-0.0842 0.71528,-0.0842 0.45582,0 0.85554,0.12622 0.39971,0.12623 0.69424,0.40673 0.29453,0.28051 0.46283,0.73632 0.17531,0.44881 0.17531,1.10799 l 0,4.45999 -1.08694,0 0,-4.28468 q 0,-0.86254 -0.33661,-1.24122 -0.32959,-0.37868 -0.96773,-0.37868 -0.56101,0 -1.08695,0.31557 -0.52594,0.30855 -0.90462,0.85553 l 0,4.73348 -1.08695,0 0,-6.66194 0.84151,0 0.21038,0.92566 z"
         style="font-style:normal;font-variant:normal;font-weight:normal;font-stretch:normal;font-size:14.36173534px;line-height:125%;font-family:Corbel;-inkscape-font-specification:'Corbel, Normal';text-align:start;writing-mode:lr-tb;text-anchor:start;fill:#000080"
         id="path4161" />
      <path
         d="m 123.07251,975.02498 q -0.51893,0 -0.93267,-0.1122 -0.41374,-0.1122 -0.72931,-0.31556 -0.30855,-0.20337 -0.52594,-0.48387 -0.21739,-0.28751 -0.34362,-0.62412 -0.0982,-0.25245 -0.14025,-0.55399 -0.0421,-0.30154 -0.0421,-0.65918 l 0,-4.08833 1.08695,0 0,4.08132 q 0,0.55399 0.14726,0.92565 0.1683,0.42076 0.53997,0.6662 0.37868,0.23843 0.96072,0.23843 0.6171,0 0.98877,-0.26648 0.37868,-0.26648 0.53997,-0.71528 0.11921,-0.34362 0.11921,-0.84852 l 0,-4.08132 1.08695,0 0,4.09534 q 0,0.3366 -0.0421,0.63113 -0.0351,0.28752 -0.11921,0.53296 -0.12623,0.34361 -0.35063,0.63814 -0.21739,0.28752 -0.53997,0.49789 -0.32257,0.21038 -0.75034,0.32258 -0.42075,0.11921 -0.95371,0.11921 z"
         style="font-style:normal;font-variant:normal;font-weight:normal;font-stretch:normal;font-size:14.36173534px;line-height:125%;font-family:Corbel;-inkscape-font-specification:'Corbel, Normal';text-align:start;writing-mode:lr-tb;text-anchor:start;fill:#000080"
         id="path4163" />
      <path
         d="m 131.37539,974.8637 q -0.14025,0.0561 -0.42776,0.10518 -0.28752,0.0491 -0.68724,0.0561 -0.52594,0 -0.91163,-0.13323 -0.38569,-0.12623 -0.64516,-0.36466 -0.25245,-0.24544 -0.37867,-0.58905 -0.12623,-0.34362 -0.12623,-0.76437 l 0,-4.05327 -1.2833,0 0,-0.93267 1.2833,0 0,-1.82326 1.08695,0 0,1.82326 1.99157,0 0,0.93267 -1.99157,0 0,3.88497 q 0,0.23141 0.0631,0.42776 0.0701,0.19635 0.21038,0.34362 0.14726,0.14025 0.37166,0.2244 0.22441,0.0771 0.53997,0.0771 0.21739,0 0.45582,-0.0351 0.24544,-0.0351 0.4488,-0.0912 l 0,0.91164 z"
         style="font-style:normal;font-variant:normal;font-weight:normal;font-stretch:normal;font-size:14.36173534px;line-height:125%;font-family:Corbel;-inkscape-font-specification:'Corbel, Normal';text-align:start;writing-mode:lr-tb;text-anchor:start;fill:#000080"
         id="path4165" />
      <path
         d="m 137.65865,971.52571 q 0,-0.6171 -0.15428,-1.09396 -0.14726,-0.48386 -0.42075,-0.81345 -0.26648,-0.33661 -0.63815,-0.50491 -0.37166,-0.17531 -0.81345,-0.17531 -0.4418,0 -0.81346,0.17531 -0.37167,0.1683 -0.64516,0.50491 -0.26648,0.32959 -0.42075,0.81345 -0.14727,0.47686 -0.14727,1.09396 0,0.6101 0.14727,1.09396 0.15427,0.47686 0.42776,0.80645 0.27349,0.32959 0.64516,0.5049 0.37167,0.16831 0.81346,0.16831 0.44179,0 0.80644,-0.16831 0.37167,-0.17531 0.63815,-0.5049 0.27349,-0.32959 0.42075,-0.80645 0.15428,-0.48386 0.15428,-1.09396 z m 1.13603,0 q 0,0.78541 -0.2244,1.43057 -0.2244,0.64515 -0.63814,1.10798 -0.40673,0.45582 -0.98878,0.70827 -0.58204,0.25245 -1.30433,0.25245 -0.74333,0 -1.33239,-0.25245 -0.58204,-0.25245 -0.99578,-0.70827 -0.40673,-0.46283 -0.62412,-1.10798 -0.21739,-0.64516 -0.21739,-1.43057 0,-0.79242 0.2244,-1.43757 0.2244,-0.64516 0.63113,-1.10799 0.41374,-0.46283 0.99579,-0.71528 0.58905,-0.25245 1.31135,-0.25245 0.73631,0 1.32537,0.25245 0.58906,0.25245 0.99578,0.71528 0.40673,0.46283 0.62412,1.10799 0.21739,0.64515 0.21739,1.43757 z"
         style="font-style:normal;font-variant:normal;font-weight:normal;font-stretch:normal;font-size:14.36173534px;line-height:125%;font-family:Corbel;-inkscape-font-specification:'Corbel, Normal';text-align:start;writing-mode:lr-tb;text-anchor:start;fill:#000080"
         id="path4167" />
      <path
         d="m 141.21402,969.96191 q 0,0.27349 0.11921,0.44881 0.11922,0.17531 0.31557,0.28751 0.20336,0.10519 0.46283,0.17532 0.26647,0.0701 0.54698,0.12622 0.38569,0.0842 0.7293,0.18934 0.34362,0.0982 0.63113,0.30154 0.29453,0.20337 0.46985,0.55399 0.18232,0.34362 0.18232,0.89761 0,0.50491 -0.19635,0.89761 -0.19635,0.38569 -0.55399,0.65217 -0.35764,0.25946 -0.85553,0.3927 -0.4979,0.14025 -1.09396,0.14025 -0.36466,0 -0.6662,-0.0421 -0.29453,-0.0351 -0.52594,-0.0982 -0.2244,-0.0561 -0.38569,-0.11921 -0.16129,-0.0631 -0.26648,-0.11921 l 0,-0.91164 q 0.42075,0.1683 0.8345,0.26648 0.41374,0.0982 0.91163,0.0982 0.3927,0 0.70827,-0.0701 0.31556,-0.0701 0.53997,-0.20336 0.23141,-0.14026 0.35062,-0.34362 0.12623,-0.21038 0.12623,-0.48387 0,-0.2805 -0.1122,-0.46283 -0.1122,-0.18232 -0.30154,-0.30154 -0.18934,-0.11921 -0.44179,-0.19635 -0.24544,-0.0771 -0.51893,-0.14025 -0.35764,-0.0771 -0.72931,-0.18233 -0.36465,-0.10519 -0.66619,-0.29452 -0.30154,-0.18934 -0.49088,-0.51192 -0.18233,-0.32959 -0.18233,-0.84151 0,-0.52594 0.18934,-0.91163 0.18934,-0.38569 0.51192,-0.63815 0.32258,-0.25245 0.75034,-0.37868 0.42777,-0.12622 0.90462,-0.12622 0.554,0 1.02384,0.10519 0.47685,0.10519 0.86254,0.26647 l 0,0.92566 q -0.42075,-0.16129 -0.85553,-0.25946 -0.42777,-0.10519 -0.88358,-0.1122 -0.38569,0 -0.65918,0.0771 -0.27349,0.0771 -0.44881,0.21738 -0.17531,0.13324 -0.25946,0.32258 -0.0771,0.18233 -0.0771,0.40673 z"
         style="font-style:normal;font-variant:normal;font-weight:normal;font-stretch:normal;font-size:14.36173534px;line-height:125%;font-family:Corbel;-inkscape-font-specification:'Corbel, Normal';text-align:start;writing-mode:lr-tb;text-anchor:start;fill:#000080"
         id="path4169" />
    </g>
    <g
       style="font-style:normal;font-variant:normal;font-weight:normal;font-stretch:normal;font-size:43.44625092px;line-height:125%;font-family:sans-serif;-inkscape-font-specification:'sans-serif, Normal';text-align:start;letter-spacing:0px;word-spacing:0px;writing-mode:lr-tb;text-anchor:start;fill:#000000;fill-opacity:1;stroke:none;stroke-width:1px;stroke-linecap:butt;stroke-linejoin:miter;stroke-opacity:1"
       id="text4152-5-7-1">
      <path
         d="m 38.451445,959.35333 -17.098475,0 0,-3.22452 6.576337,0 0,-21.17157 -6.576337,0 0,-2.8851 q 1.336481,0 2.863888,-0.21214 1.527408,-0.23335 2.312325,-0.65763 0.975844,-0.53035 1.527407,-1.33648 0.572778,-0.82735 0.657634,-2.20626 l 3.288169,0 0,28.46918 6.449052,0 0,3.22452 z"
         style=""
         id="path4148" />
    </g>
  </g>
</svg>
