<?xml version="1.0" encoding="UTF-8" standalone="no"?>
<!-- Created with Inkscape (http://www.inkscape.org/) -->

<svg
   xmlns:dc="http://purl.org/dc/elements/1.1/"
   xmlns:cc="http://creativecommons.org/ns#"
   xmlns:rdf="http://www.w3.org/1999/02/22-rdf-syntax-ns#"
   xmlns:svg="http://www.w3.org/2000/svg"
   xmlns="http://www.w3.org/2000/svg"
   xmlns:xlink="http://www.w3.org/1999/xlink"
   xmlns:sodipodi="http://sodipodi.sourceforge.net/DTD/sodipodi-0.dtd"
   xmlns:inkscape="http://www.inkscape.org/namespaces/inkscape"
   width="205"
   height="205"
   viewBox="0 0 205.00001 205"
   id="svg4892"
   version="1.1"
   inkscape:version="0.91 r13725"
   sodipodi:docname="p4.svg">
  <defs
     id="defs4894">
    <linearGradient
       inkscape:collect="always"
       id="linearGradient4166">
      <stop
         style="stop-color:#000000;stop-opacity:1;"
         offset="0"
         id="stop4168" />
      <stop
         style="stop-color:#000000;stop-opacity:0;"
         offset="1"
         id="stop4170" />
    </linearGradient>
    <radialGradient
       inkscape:collect="always"
       xlink:href="#linearGradient4166"
       id="radialGradient4172-1"
       cx="328.76956"
       cy="668.91846"
       fx="328.76956"
       fy="668.91846"
       r="89"
       gradientUnits="userSpaceOnUse"
       gradientTransform="matrix(0.92749668,0.04881561,-0.05708663,1.0846462,-504.17677,166.09443)" />
  </defs>
  <sodipodi:namedview
     id="base"
     pagecolor="#ffffff"
     bordercolor="#666666"
     borderopacity="1.0"
     inkscape:pageopacity="0.0"
     inkscape:pageshadow="2"
     inkscape:zoom="1.979899"
     inkscape:cx="-16.613199"
     inkscape:cy="104.55481"
     inkscape:document-units="px"
     inkscape:current-layer="layer1"
     showgrid="false"
     showguides="true"
     inkscape:guide-bbox="true"
     units="px"
     inkscape:window-width="1600"
     inkscape:window-height="838"
     inkscape:window-x="1272"
     inkscape:window-y="-8"
     inkscape:window-maximized="1" />
  <metadata
     id="metadata4897">
    <rdf:RDF>
      <cc:Work
         rdf:about="">
        <dc:format>image/svg+xml</dc:format>
        <dc:type
           rdf:resource="http://purl.org/dc/dcmitype/StillImage" />
        <dc:title></dc:title>
      </cc:Work>
    </rdf:RDF>
  </metadata>
  <g
     inkscape:label="Layer 1"
     inkscape:groupmode="layer"
     id="layer1"
     transform="translate(0,-847.36216)">
    <g
       id="g4347"
       transform="translate(357.84404,51.15953)">
      <path
         style="opacity:1;fill:#b3b3b3;fill-opacity:0.69716091;stroke:url(#radialGradient4172-1);stroke-width:9.77532578;stroke-linecap:square;stroke-linejoin:round;stroke-miterlimit:4;stroke-dasharray:none;stroke-opacity:1"
         d="m -157.89133,897.30371 a 96.667122,96.667122 0 0 1 -96.66713,96.66712 96.667122,96.667122 0 0 1 -96.66712,-96.66712 96.667122,96.667122 0 0 1 96.66712,-96.66712 96.667122,96.667122 0 0 1 96.66713,96.66712 z"
         id="path4156-5"
         inkscape:connector-curvature="0" />
      <g
         transform="translate(-356.11324,795.74896)"
         style="font-style:normal;font-variant:normal;font-weight:normal;font-stretch:normal;font-size:18.41565323px;line-height:80.00000119%;font-family:'A Ryal Black Block';-inkscape-font-specification:'A Ryal Black Block, Normal';text-align:start;letter-spacing:0px;word-spacing:0px;writing-mode:lr-tb;text-anchor:start;fill:#000000;fill-opacity:1;stroke:none;stroke-width:1px;stroke-linecap:butt;stroke-linejoin:miter;stroke-opacity:1"
         id="flowRoot4176-4">
        <path
           d="m 54.201448,59.10444 5.265742,-12.927637 1.362329,0 5.265742,12.927637 -1.710159,0 -1.545905,-3.893751 -5.401009,0 -1.545905,3.893751 -1.690835,0 z m 5.932414,-10.91796 q -0.859911,2.415478 -1.652187,4.386508 l -0.483096,1.2174 4.280227,0 -0.483096,-1.2174 Q 61.003434,50.56331 60.172509,48.18648 l -0.03865,0 z"
           style="font-style:normal;font-variant:normal;font-weight:normal;font-stretch:normal;font-size:19.78759384px;line-height:80.00000119%;font-family:Corbel;-inkscape-font-specification:'Corbel, Normal';text-align:start;writing-mode:lr-tb;text-anchor:start"
           id="path4362"
           inkscape:connector-curvature="0" />
        <path
           d="m 71.815112,49.684076 q 0.666671,0 1.275372,0.144929 0.6087,0.135267 1.043486,0.386476 l 0,1.246387 q -0.6087,-0.231886 -1.120781,-0.347829 -0.512082,-0.115943 -1.043487,-0.115943 -0.560391,0 -1.11112,0.183576 -0.550729,0.183577 -0.985515,0.608701 -0.434786,0.415462 -0.705319,1.11112 -0.260872,0.685995 -0.260872,1.710158 0,0.743967 0.193239,1.371991 0.2029,0.628024 0.589376,1.091796 0.396138,0.45411 0.985515,0.714982 0.589377,0.251209 1.36233,0.251209 0.56039,0 1.130443,-0.115943 0.570053,-0.125604 1.11112,-0.347828 l 0,1.246386 q -0.164253,0.09662 -0.434786,0.193238 -0.260872,0.09662 -0.579715,0.164253 -0.318843,0.07729 -0.676334,0.115943 -0.35749,0.04831 -0.714981,0.04831 -0.927543,0 -1.758468,-0.280195 -0.821262,-0.280196 -1.439625,-0.85991 -0.618362,-0.579715 -0.975853,-1.468611 -0.35749,-0.888896 -0.35749,-2.106296 0,-0.90822 0.183576,-1.632863 0.193238,-0.724644 0.521743,-1.275373 0.328505,-0.550728 0.763291,-0.937205 0.444448,-0.386476 0.937206,-0.628024 0.502419,-0.25121 1.033824,-0.357491 0.531405,-0.115943 1.033825,-0.115943 z"
           style="font-style:normal;font-variant:normal;font-weight:normal;font-stretch:normal;font-size:19.78759384px;line-height:80.00000119%;font-family:Corbel;-inkscape-font-specification:'Corbel, Normal';text-align:start;writing-mode:lr-tb;text-anchor:start"
           id="path4364"
           inkscape:connector-curvature="0" />
        <path
           d="m 83.18718,54.524694 q 0,-0.850249 -0.212562,-1.507258 -0.2029,-0.666672 -0.579715,-1.120782 -0.367153,-0.463772 -0.879234,-0.695658 -0.512081,-0.241548 -1.120782,-0.241548 -0.6087,0 -1.120781,0.241548 -0.512082,0.231886 -0.888896,0.695658 -0.367153,0.45411 -0.579715,1.120782 -0.2029,0.657009 -0.2029,1.507258 0,0.840586 0.2029,1.507258 0.212562,0.65701 0.589377,1.11112 0.376814,0.454109 0.888896,0.695657 0.512081,0.231886 1.120781,0.231886 0.608701,0 1.11112,-0.231886 0.512081,-0.241548 0.879234,-0.695657 0.376815,-0.45411 0.579715,-1.11112 0.212562,-0.666672 0.212562,-1.507258 z m 1.565229,0 q 0,1.082134 -0.309181,1.97103 -0.309181,0.888895 -0.879234,1.526581 -0.560391,0.628025 -1.362329,0.975853 -0.801939,0.347829 -1.797116,0.347829 -1.024162,0 -1.835763,-0.347829 -0.801938,-0.347828 -1.371991,-0.975853 -0.560391,-0.637686 -0.85991,-1.526581 -0.29952,-0.888896 -0.29952,-1.97103 0,-1.091796 0.309182,-1.980692 0.309181,-0.888896 0.869572,-1.526582 0.570052,-0.637686 1.371991,-0.985515 0.811601,-0.347829 1.806777,-0.347829 1.014501,0 1.826102,0.347829 0.8116,0.347829 1.371991,0.985515 0.560391,0.637686 0.85991,1.526582 0.299519,0.888896 0.299519,1.980692 z"
           style="font-style:normal;font-variant:normal;font-weight:normal;font-stretch:normal;font-size:19.78759384px;line-height:80.00000119%;font-family:Corbel;-inkscape-font-specification:'Corbel, Normal';text-align:start;writing-mode:lr-tb;text-anchor:start"
           id="path4366"
           inkscape:connector-curvature="0" />
        <path
           d="m 94.617222,59.10444 -1.497597,0 0,-5.903428 q 0,-0.599039 -0.135266,-1.014501 -0.125605,-0.425124 -0.376815,-0.695657 -0.241548,-0.270534 -0.589377,-0.396139 -0.338166,-0.125605 -0.763291,-0.125605 -0.801938,0 -1.458948,0.434786 -0.65701,0.425124 -1.178753,1.178754 l 0,6.52179 -1.497596,0 0,-9.178816 1.159429,0 0.289857,1.275372 0.02899,0 q 0.25121,-0.318843 0.541067,-0.589376 0.299519,-0.280196 0.65701,-0.483096 0.367153,-0.212562 0.801939,-0.328505 0.434786,-0.115943 0.946867,-0.115943 1.024162,0 1.700496,0.492758 0.676334,0.492757 1.043487,1.343005 l 0.03865,0 q 0.608701,-0.85991 1.391315,-1.343005 0.782615,-0.492758 1.826102,-0.492758 0.483095,0 1.024162,0.135267 0.541067,0.135267 0.995177,0.502419 0.454113,0.357491 0.753633,0.995177 0.29952,0.637686 0.29952,1.642525 l 0,6.144976 -1.487939,0 0,-5.903428 q 0,-0.599039 -0.135267,-1.014501 -0.125605,-0.425124 -0.376814,-0.695657 -0.241548,-0.270534 -0.589377,-0.396139 -0.338167,-0.125605 -0.763291,-0.125605 -0.801938,0 -1.46861,0.434786 -0.65701,0.425124 -1.178753,1.178754 l 0,6.52179 z"
           style="font-style:normal;font-variant:normal;font-weight:normal;font-stretch:normal;font-size:19.78759384px;line-height:80.00000119%;font-family:Corbel;-inkscape-font-specification:'Corbel, Normal';text-align:start;writing-mode:lr-tb;text-anchor:start"
           id="path4368"
           inkscape:connector-curvature="0" />
        <path
           d="m 110.07628,54.428075 q 0,-0.801939 -0.17392,-1.439625 -0.16425,-0.637686 -0.50242,-1.082134 -0.33816,-0.45411 -0.83092,-0.695658 -0.49276,-0.241548 -1.14011,-0.241548 -0.46377,0 -0.85024,0.125605 -0.37682,0.125605 -0.686,0.318843 -0.30918,0.193239 -0.5314,0.415462 -0.22223,0.222224 -0.35749,0.396139 l 0,4.80197 q 0.47343,0.483095 1.07247,0.763291 0.6087,0.280195 1.30436,0.280195 0.42512,0 0.89855,-0.154591 0.47344,-0.164252 0.86958,-0.570052 0.4058,-0.415462 0.66667,-1.120782 0.26087,-0.705319 0.26087,-1.797115 z m 1.56523,-0.01932 q 0,0.956529 -0.19324,1.700496 -0.18358,0.734305 -0.49276,1.285034 -0.30918,0.550729 -0.72464,0.927544 -0.41546,0.367152 -0.85991,0.599038 -0.44445,0.222224 -0.90822,0.318843 -0.45411,0.106281 -0.85991,0.106281 -0.84059,0 -1.45895,-0.270533 -0.61836,-0.280196 -1.11112,-0.821263 l -0.029,0 0,5.343037 -1.4976,0 0,-13.671604 1.13044,0 0.31885,1.043486 0.029,0 q 0.12561,-0.193238 0.31884,-0.376814 0.2029,-0.183576 0.53141,-0.386477 0.33817,-0.212562 0.80194,-0.367152 0.47343,-0.154591 1.02416,-0.154591 0.77295,0 1.48794,0.260872 0.72464,0.260871 1.27537,0.830924 0.55073,0.570053 0.87923,1.468611 0.33817,0.888895 0.33817,2.164268 z"
           style="font-style:normal;font-variant:normal;font-weight:normal;font-stretch:normal;font-size:19.78759384px;line-height:80.00000119%;font-family:Corbel;-inkscape-font-specification:'Corbel, Normal';text-align:start;writing-mode:lr-tb;text-anchor:start"
           id="path4370"
           inkscape:connector-curvature="0" />
        <path
           d="m 119.39036,58.089939 -0.0386,0 q -0.18358,0.231886 -0.46378,0.463772 -0.28019,0.222224 -0.64734,0.4058 -0.36716,0.173914 -0.80194,0.280195 -0.43479,0.106281 -0.92755,0.106281 -0.66667,0 -1.22706,-0.2029 -0.55073,-0.193238 -0.95653,-0.570053 -0.39614,-0.386476 -0.61836,-0.937205 -0.22222,-0.550729 -0.22222,-1.246386 0,-0.685996 0.24154,-1.227063 0.25121,-0.541067 0.69566,-0.917882 0.44445,-0.376814 1.06281,-0.579714 0.62803,-0.202901 1.38165,-0.202901 0.71499,0.0097 1.32369,0.125605 0.6087,0.115943 1.08213,0.289858 l 0.0386,0 0,-0.637686 q 0,-0.376815 -0.0483,-0.666672 -0.0483,-0.289858 -0.16425,-0.512082 -0.25121,-0.463771 -0.80194,-0.763291 -0.55073,-0.309181 -1.48794,-0.309181 -0.69565,0 -1.31402,0.135267 -0.6087,0.125605 -1.2174,0.357491 l 0,-1.256049 q 0.23189,-0.115943 0.54107,-0.212562 0.31884,-0.106281 0.66667,-0.173914 0.34783,-0.07729 0.73431,-0.115943 0.38647,-0.03865 0.77295,-0.03865 1.39131,0 2.27055,0.492758 0.88889,0.492757 1.27537,1.304358 0.14493,0.309181 0.2029,0.685995 0.0676,0.367153 0.0676,0.811601 l 0,6.125652 -1.25604,0 -0.16426,-1.014501 z m -0.0773,-3.014516 q -0.41546,-0.115943 -0.98552,-0.222224 -0.57005,-0.106281 -1.25605,-0.115943 -0.95652,0 -1.49759,0.4058 -0.54107,0.4058 -0.54107,1.246387 0,0.425124 0.13527,0.743967 0.13526,0.318843 0.36715,0.531405 0.24155,0.2029 0.56039,0.309181 0.32851,0.09662 0.69566,0.09662 0.48309,0 0.89856,-0.135267 0.41546,-0.144928 0.7343,-0.338167 0.32851,-0.193238 0.55073,-0.386476 0.23189,-0.193238 0.33817,-0.299519 l 0,-1.835763 z"
           style="font-style:normal;font-variant:normal;font-weight:normal;font-stretch:normal;font-size:19.78759384px;line-height:80.00000119%;font-family:Corbel;-inkscape-font-specification:'Corbel, Normal';text-align:start;writing-mode:lr-tb;text-anchor:start"
           id="path4372"
           inkscape:connector-curvature="0" />
        <path
           d="m 125.16818,51.200996 0.029,0 q 0.25121,-0.318843 0.55073,-0.589376 0.30918,-0.280196 0.68599,-0.483096 0.37682,-0.212562 0.82126,-0.328505 0.45411,-0.115943 0.98552,-0.115943 0.62802,0 1.17875,0.173915 0.55073,0.173914 0.95653,0.56039 0.4058,0.386477 0.63769,1.014501 0.24154,0.618362 0.24154,1.526582 l 0,6.144976 -1.49759,0 0,-5.903428 q 0,-1.188415 -0.46377,-1.710158 -0.45411,-0.521744 -1.33335,-0.521744 -0.77295,0 -1.49759,0.434786 -0.72465,0.425124 -1.24639,1.178754 l 0,6.52179 -1.4976,0 0,-9.178816 1.15943,0 0.28986,1.275372 z"
           style="font-style:normal;font-variant:normal;font-weight:normal;font-stretch:normal;font-size:19.78759384px;line-height:80.00000119%;font-family:Corbel;-inkscape-font-specification:'Corbel, Normal';text-align:start;writing-mode:lr-tb;text-anchor:start"
           id="path4374"
           inkscape:connector-curvature="0" />
        <path
           d="m 135.74798,51.181672 0.029,0 q 0.25121,-0.318843 0.56039,-0.589376 0.30919,-0.280196 0.686,-0.473434 0.37681,-0.2029 0.8116,-0.318843 0.43479,-0.115943 0.93721,-0.115943 0.52174,0 1.04348,0.144929 0.52175,0.135267 0.96619,0.492757 0.44445,0.357491 0.72465,0.995177 0.28019,0.637686 0.28019,1.642525 l 0,6.144976 -1.49759,0 0,-5.903428 q 0,-1.11112 -0.42513,-1.671511 -0.41546,-0.560391 -1.37199,-0.560391 -0.79228,0 -1.50726,0.434786 -0.71498,0.425124 -1.23672,1.178754 l 0,6.52179 -1.4976,0 0,-13.990448 1.4976,0 0,6.06768 z"
           style="font-style:normal;font-variant:normal;font-weight:normal;font-stretch:normal;font-size:19.78759384px;line-height:80.00000119%;font-family:Corbel;-inkscape-font-specification:'Corbel, Normal';text-align:start;writing-mode:lr-tb;text-anchor:start"
           id="path4376"
           inkscape:connector-curvature="0" />
        <path
           d="m 148.2988,50.96911 q -0.51208,0 -0.95653,0.202901 -0.43479,0.2029 -0.76329,0.550728 -0.32851,0.347829 -0.53141,0.821263 -0.2029,0.463772 -0.25121,0.995177 l 4.63772,0 q 0,-0.541067 -0.14493,-1.004839 -0.13527,-0.473434 -0.4058,-0.821262 -0.27053,-0.347829 -0.66667,-0.541067 -0.39614,-0.202901 -0.91788,-0.202901 z m 0.82126,7.072519 q 0.74397,0 1.35267,-0.115943 0.61836,-0.125604 1.22706,-0.347828 l 0,1.246386 q -0.49276,0.241548 -1.2174,0.376815 -0.72464,0.144928 -1.55557,0.144928 -0.98551,0 -1.85509,-0.251209 -0.85991,-0.25121 -1.50725,-0.811601 -0.64735,-0.560391 -1.02417,-1.458948 -0.36715,-0.90822 -0.36715,-2.183592 0,-1.256049 0.34783,-2.17393 0.34783,-0.927544 0.92754,-1.545906 0.57972,-0.618362 1.33335,-0.927544 0.75363,-0.309181 1.57489,-0.309181 0.77295,0 1.43962,0.260872 0.67634,0.25121 1.16909,0.801938 0.49276,0.550729 0.77296,1.420301 0.28985,0.869572 0.28985,2.086973 0,0.115943 0,0.2029 0,0.0773 -0.01,0.367153 l -6.29956,0 q 0,0.879234 0.26087,1.497596 0.27053,0.608701 0.72464,0.995177 0.46377,0.376814 1.08214,0.550729 0.61836,0.173914 1.33334,0.173914 z"
           style="font-style:normal;font-variant:normal;font-weight:normal;font-stretch:normal;font-size:19.78759384px;line-height:80.00000119%;font-family:Corbel;-inkscape-font-specification:'Corbel, Normal';text-align:start;writing-mode:lr-tb;text-anchor:start"
           id="path4378"
           inkscape:connector-curvature="0" />
        <path
           d="m 163.91245,58.089939 -0.0387,0 q -0.18357,0.231886 -0.46377,0.463772 -0.28019,0.222224 -0.64735,0.4058 -0.36715,0.173914 -0.80194,0.280195 -0.43478,0.106281 -0.92754,0.106281 -0.66667,0 -1.22706,-0.2029 -0.55073,-0.193238 -0.95653,-0.570053 -0.39614,-0.386476 -0.61836,-0.937205 -0.22223,-0.550729 -0.22223,-1.246386 0,-0.685996 0.24155,-1.227063 0.25121,-0.541067 0.69566,-0.917882 0.44445,-0.376814 1.06281,-0.579714 0.62802,-0.202901 1.38165,-0.202901 0.71498,0.0097 1.32368,0.125605 0.6087,0.115943 1.08214,0.289858 l 0.0386,0 0,-0.637686 q 0,-0.376815 -0.0483,-0.666672 -0.0483,-0.289858 -0.16426,-0.512082 -0.25121,-0.463771 -0.80194,-0.763291 -0.55072,-0.309181 -1.48793,-0.309181 -0.69566,0 -1.31402,0.135267 -0.6087,0.125605 -1.2174,0.357491 l 0,-1.256049 q 0.23188,-0.115943 0.54107,-0.212562 0.31884,-0.106281 0.66667,-0.173914 0.34783,-0.07729 0.7343,-0.115943 0.38648,-0.03865 0.77296,-0.03865 1.39131,0 2.27055,0.492758 0.88889,0.492757 1.27537,1.304358 0.14493,0.309181 0.2029,0.685995 0.0676,0.367153 0.0676,0.811601 l 0,6.125652 -1.25605,0 -0.16425,-1.014501 z m -0.0773,-3.014516 q -0.41546,-0.115943 -0.98551,-0.222224 -0.57005,-0.106281 -1.25605,-0.115943 -0.95653,0 -1.49759,0.4058 -0.54107,0.4058 -0.54107,1.246387 0,0.425124 0.13526,0.743967 0.13527,0.318843 0.36716,0.531405 0.24155,0.2029 0.56039,0.309181 0.3285,0.09662 0.69566,0.09662 0.48309,0 0.89855,-0.135267 0.41547,-0.144928 0.73431,-0.338167 0.3285,-0.193238 0.55073,-0.386476 0.23188,-0.193238 0.33816,-0.299519 l 0,-1.835763 z"
           style="font-style:normal;font-variant:normal;font-weight:normal;font-stretch:normal;font-size:19.78759384px;line-height:80.00000119%;font-family:Corbel;-inkscape-font-specification:'Corbel, Normal';text-align:start;writing-mode:lr-tb;text-anchor:start"
           id="path4380"
           inkscape:connector-curvature="0" />
        <path
           d="m 58.906799,66.799189 q -0.512081,0 -0.956529,0.2029 -0.434786,0.2029 -0.763291,0.550729 -0.328505,0.347828 -0.531405,0.821262 -0.202901,0.463772 -0.25121,0.995177 l 4.637717,0 q 0,-0.541067 -0.144929,-1.004839 -0.135266,-0.473434 -0.4058,-0.821262 -0.270533,-0.347829 -0.666672,-0.541067 -0.396138,-0.2029 -0.917881,-0.2029 z m 0.821262,7.072518 q 0.743967,0 1.352668,-0.115943 0.618362,-0.125604 1.227063,-0.347828 l 0,1.246386 q -0.492758,0.241548 -1.217401,0.376815 -0.724644,0.144928 -1.555568,0.144928 -0.985515,0 -1.855087,-0.251209 -0.85991,-0.25121 -1.507258,-0.811601 -0.647348,-0.560391 -1.024163,-1.458948 -0.367152,-0.90822 -0.367152,-2.183592 0,-1.256049 0.347829,-2.17393 0.347828,-0.927544 0.927543,-1.545906 0.579715,-0.618362 1.333344,-0.927543 0.753629,-0.309182 1.574891,-0.309182 0.772953,0 1.439625,0.260872 0.676334,0.25121 1.169091,0.801939 0.492758,0.550729 0.772953,1.4203 0.289857,0.869572 0.289857,2.086973 0,0.115943 0,0.2029 0,0.0773 -0.0097,0.367153 l -6.299566,0 q 0,0.879234 0.260871,1.497596 0.270534,0.608701 0.724643,0.995177 0.463772,0.376815 1.082135,0.550729 0.618362,0.173914 1.333343,0.173914 z"
           style="font-style:normal;font-variant:normal;font-weight:normal;font-stretch:normal;font-size:19.78759384px;line-height:80.00000119%;font-family:Corbel;-inkscape-font-specification:'Corbel, Normal';text-align:start;writing-mode:lr-tb;text-anchor:start"
           id="path4382"
           inkscape:connector-curvature="0" />
        <path
           d="m 68.220881,73.417598 q 0.328505,-1.004839 0.888896,-2.560407 l 1.816439,-5.101489 1.56523,0 -3.497612,9.178816 -1.56523,0 -3.497611,-9.178816 1.545905,0 1.81644,5.101489 q 0.541067,1.507258 0.888895,2.560407 l 0.03865,0 z"
           style="font-style:normal;font-variant:normal;font-weight:normal;font-stretch:normal;font-size:19.78759384px;line-height:80.00000119%;font-family:Corbel;-inkscape-font-specification:'Corbel, Normal';text-align:start;writing-mode:lr-tb;text-anchor:start"
           id="path4384"
           inkscape:connector-curvature="0" />
        <path
           d="m 80.868322,70.354772 q 0,-0.850248 -0.212562,-1.507258 -0.2029,-0.666672 -0.579714,-1.120782 -0.367153,-0.463772 -0.879234,-0.695658 -0.512081,-0.241547 -1.120782,-0.241547 -0.6087,0 -1.120781,0.241547 -0.512082,0.231886 -0.888896,0.695658 -0.367153,0.45411 -0.579715,1.120782 -0.2029,0.65701 -0.2029,1.507258 0,0.840586 0.2029,1.507258 0.212562,0.65701 0.589377,1.11112 0.376814,0.45411 0.888895,0.695657 0.512082,0.231886 1.120782,0.231886 0.6087,0 1.11112,-0.231886 0.512081,-0.241547 0.879234,-0.695657 0.376814,-0.45411 0.579714,-1.11112 0.212562,-0.666672 0.212562,-1.507258 z m 1.56523,0 q 0,1.082134 -0.309181,1.97103 -0.309181,0.888895 -0.879234,1.526582 -0.560391,0.628024 -1.362329,0.975853 -0.801939,0.347828 -1.797116,0.347828 -1.024162,0 -1.835763,-0.347828 -0.801939,-0.347829 -1.371991,-0.975853 -0.560391,-0.637687 -0.85991,-1.526582 -0.29952,-0.888896 -0.29952,-1.97103 0,-1.091796 0.309181,-1.980692 0.309182,-0.888896 0.869572,-1.526582 0.570053,-0.637686 1.371992,-0.985515 0.8116,-0.347829 1.806777,-0.347829 1.014501,0 1.826101,0.347829 0.811601,0.347829 1.371992,0.985515 0.560391,0.637686 0.85991,1.526582 0.299519,0.888896 0.299519,1.980692 z"
           style="font-style:normal;font-variant:normal;font-weight:normal;font-stretch:normal;font-size:19.78759384px;line-height:80.00000119%;font-family:Corbel;-inkscape-font-specification:'Corbel, Normal';text-align:start;writing-mode:lr-tb;text-anchor:start"
           id="path4386"
           inkscape:connector-curvature="0" />
        <path
           d="m 84.897339,74.934518 0,-13.990448 1.497596,0 0,13.990448 -1.497596,0 z"
           style="font-style:normal;font-variant:normal;font-weight:normal;font-stretch:normal;font-size:19.78759384px;line-height:80.00000119%;font-family:Corbel;-inkscape-font-specification:'Corbel, Normal';text-align:start;writing-mode:lr-tb;text-anchor:start"
           id="path4388"
           inkscape:connector-curvature="0" />
        <path
           d="m 93.042331,75.176065 q -0.714981,0 -1.285034,-0.15459 -0.570052,-0.154591 -1.004838,-0.434786 -0.425125,-0.280196 -0.724644,-0.666672 -0.299519,-0.396138 -0.473433,-0.85991 -0.135267,-0.347829 -0.193239,-0.763291 -0.05797,-0.415462 -0.05797,-0.90822 l 0,-5.632894 1.497596,0 0,5.623232 q 0,0.763291 0.2029,1.275373 0.231886,0.579714 0.743967,0.917881 0.521744,0.328505 1.323682,0.328505 0.850248,0 1.36233,-0.367152 0.521743,-0.367153 0.743967,-0.985515 0.164252,-0.473434 0.164252,-1.169092 l 0,-5.623232 1.497596,0 0,5.642556 q 0,0.463772 -0.05797,0.869572 -0.04831,0.396139 -0.164252,0.734305 -0.173915,0.473434 -0.483096,0.879234 -0.299519,0.396139 -0.743967,0.685996 -0.444448,0.289857 -1.033825,0.444448 -0.579714,0.164252 -1.31402,0.164252 z"
           style="font-style:normal;font-variant:normal;font-weight:normal;font-stretch:normal;font-size:19.78759384px;line-height:80.00000119%;font-family:Corbel;-inkscape-font-specification:'Corbel, Normal';text-align:start;writing-mode:lr-tb;text-anchor:start"
           id="path4390"
           inkscape:connector-curvature="0" />
        <path
           d="m 102.65593,75.089108 q -0.75363,-0.125605 -1.41064,-0.473433 -0.64734,-0.347829 -1.12078,-0.917882 -0.47343,-0.579715 -0.743964,-1.381653 -0.270533,-0.801939 -0.270533,-1.855087 0,-0.90822 0.183576,-1.632863 0.193238,-0.724643 0.521743,-1.275372 0.328508,-0.550729 0.763288,-0.937206 0.44445,-0.386476 0.93721,-0.628024 0.50242,-0.25121 1.03382,-0.357491 0.53141,-0.115943 1.03383,-0.115943 0.66667,0 1.26571,0.144929 0.6087,0.135267 1.05315,0.386476 l 0,1.246387 q -0.61837,-0.231886 -1.13045,-0.347829 -0.51208,-0.115943 -1.03382,-0.115943 -0.57972,0 -1.12078,0.183577 -0.54107,0.183576 -0.97586,0.6087 -0.43478,0.415462 -0.70532,1.120782 -0.26087,0.695657 -0.26087,1.700496 0,0.743967 0.19324,1.371991 0.2029,0.628025 0.58938,1.091796 0.39614,0.45411 0.98551,0.714982 0.58938,0.251209 1.36233,0.251209 0.55073,0 1.12078,-0.115943 0.57972,-0.125604 1.12078,-0.347828 l 0,1.246386 q -0.15459,0.09662 -0.39613,0.193238 -0.24155,0.08696 -0.54107,0.154591 -0.28986,0.06763 -0.62802,0.115943 -0.32851,0.04831 -0.66668,0.05797 l -0.27053,0.975853 q 0.38648,0.05797 0.70532,0.173915 0.3285,0.125605 0.56039,0.318843 0.23189,0.193238 0.35749,0.463772 0.12561,0.280195 0.12561,0.637686 0,0.502419 -0.22223,0.85991 -0.22222,0.367152 -0.59904,0.599038 -0.36715,0.241548 -0.85024,0.347829 -0.4831,0.115943 -1.00484,0.115943 -0.41547,0 -0.75363,-0.05797 -0.32851,-0.04831 -0.53141,-0.125605 l 0,-1.091796 q 0.11595,0.03865 0.26087,0.06763 0.15459,0.02899 0.30918,0.04831 0.16426,0.02899 0.30919,0.03865 0.15459,0.0097 0.27053,0.0097 0.28019,0 0.54107,-0.03865 0.27053,-0.02899 0.48309,-0.125605 0.21256,-0.08696 0.33817,-0.241548 0.13527,-0.144929 0.13527,-0.376815 0,-0.2029 -0.13527,-0.347828 -0.13527,-0.135267 -0.38648,-0.222224 -0.24155,-0.08696 -0.59904,-0.135267 -0.34782,-0.03865 -0.78261,-0.05797 l 0.57971,-1.922721 z"
           style="font-style:normal;font-variant:normal;font-weight:normal;font-stretch:normal;font-size:19.78759384px;line-height:80.00000119%;font-family:Corbel;-inkscape-font-specification:'Corbel, Normal';text-align:start;writing-mode:lr-tb;text-anchor:start"
           id="path4392"
           inkscape:connector-curvature="0" />
        <path
           d="m 113.70916,73.920017 -0.0387,0 q -0.18358,0.231886 -0.46377,0.463772 -0.2802,0.222224 -0.64735,0.4058 -0.36715,0.173914 -0.80194,0.280195 -0.43478,0.106281 -0.92754,0.106281 -0.66667,0 -1.22707,-0.2029 -0.55072,-0.193238 -0.95652,-0.570052 -0.39614,-0.386477 -0.61837,-0.937206 -0.22222,-0.550729 -0.22222,-1.246386 0,-0.685996 0.24155,-1.227063 0.25121,-0.541067 0.69565,-0.917882 0.44445,-0.376814 1.06282,-0.579714 0.62802,-0.2029 1.38165,-0.2029 0.71498,0.0097 1.32368,0.125604 0.6087,0.115943 1.08213,0.289858 l 0.0387,0 0,-0.637686 q 0,-0.376815 -0.0483,-0.666672 -0.0483,-0.289858 -0.16425,-0.512082 -0.25121,-0.463771 -0.80194,-0.76329 -0.55073,-0.309182 -1.48793,-0.309182 -0.69566,0 -1.31402,0.135267 -0.6087,0.125605 -1.2174,0.357491 l 0,-1.256049 q 0.23188,-0.115943 0.54106,-0.212562 0.31885,-0.106281 0.66668,-0.173914 0.34782,-0.0773 0.7343,-0.115943 0.38648,-0.03865 0.77295,-0.03865 1.39132,0 2.27055,0.492758 0.8889,0.492757 1.27537,1.304358 0.14493,0.309181 0.2029,0.685995 0.0676,0.367153 0.0676,0.811601 l 0,6.125652 -1.25605,0 -0.16425,-1.014501 z m -0.0773,-3.014516 q -0.41546,-0.115943 -0.98551,-0.222224 -0.57006,-0.106281 -1.25605,-0.115943 -0.95653,0 -1.4976,0.4058 -0.54106,0.4058 -0.54106,1.246387 0,0.425124 0.13526,0.743967 0.13527,0.318843 0.36715,0.531405 0.24155,0.2029 0.5604,0.309181 0.3285,0.09662 0.69565,0.09662 0.4831,0 0.89856,-0.135267 0.41546,-0.144928 0.73431,-0.338166 0.3285,-0.193239 0.55072,-0.386477 0.23189,-0.193238 0.33817,-0.299519 l 0,-1.835763 z m -5.06284,-7.352715 0,-0.222224 q 0,-0.328505 0.0676,-0.647348 0.0773,-0.328505 0.26088,-0.589376 0.19323,-0.270534 0.51208,-0.425124 0.31884,-0.164253 0.78261,-0.164253 0.39614,0 0.77295,0.144929 0.37682,0.135267 0.69566,0.309181 0.31885,0.173914 0.61836,0.318843 0.30919,0.144929 0.54107,0.144929 0.29952,0 0.43479,-0.212562 0.14493,-0.212562 0.14493,-0.628024 l 1.17875,0 0,0.222224 q 0,0.328504 -0.0773,0.657009 -0.0676,0.318844 -0.26087,0.589377 -0.18357,0.260872 -0.50242,0.425124 -0.31884,0.154591 -0.78261,0.154591 -0.39614,0 -0.77295,-0.135267 -0.37682,-0.144929 -0.69566,-0.318843 -0.31885,-0.173915 -0.62803,-0.318843 -0.29952,-0.144929 -0.5314,-0.144929 -0.29952,0 -0.44445,0.212562 -0.13527,0.212562 -0.13527,0.628024 l -1.17875,0 z m -0.37681,2.202916 0,0 z"
           style="font-style:normal;font-variant:normal;font-weight:normal;font-stretch:normal;font-size:19.78759384px;line-height:80.00000119%;font-family:Corbel;-inkscape-font-specification:'Corbel, Normal';text-align:start;writing-mode:lr-tb;text-anchor:start"
           id="path4394"
           inkscape:connector-curvature="0" />
        <path
           d="m 124.65611,70.354772 q 0,-0.850248 -0.21257,-1.507258 -0.2029,-0.666672 -0.57971,-1.120782 -0.36715,-0.463772 -0.87924,-0.695658 -0.51208,-0.241547 -1.12078,-0.241547 -0.6087,0 -1.12078,0.241547 -0.51208,0.231886 -0.88889,0.695658 -0.36716,0.45411 -0.57972,1.120782 -0.2029,0.65701 -0.2029,1.507258 0,0.840586 0.2029,1.507258 0.21256,0.65701 0.58938,1.11112 0.37681,0.45411 0.88889,0.695657 0.51208,0.231886 1.12078,0.231886 0.60871,0 1.11112,-0.231886 0.51209,-0.241547 0.87924,-0.695657 0.37681,-0.45411 0.57971,-1.11112 0.21257,-0.666672 0.21257,-1.507258 z m 1.56522,0 q 0,1.082134 -0.30918,1.97103 -0.30918,0.888895 -0.87923,1.526582 -0.56039,0.628024 -1.36233,0.975853 -0.80194,0.347828 -1.79712,0.347828 -1.02416,0 -1.83576,-0.347828 -0.80194,-0.347829 -1.37199,-0.975853 -0.56039,-0.637687 -0.85991,-1.526582 -0.29952,-0.888896 -0.29952,-1.97103 0,-1.091796 0.30918,-1.980692 0.30918,-0.888896 0.86957,-1.526582 0.57006,-0.637686 1.372,-0.985515 0.8116,-0.347829 1.80677,-0.347829 1.0145,0 1.8261,0.347829 0.8116,0.347829 1.372,0.985515 0.56039,0.637686 0.85991,1.526582 0.29951,0.888896 0.29951,1.980692 z"
           style="font-style:normal;font-variant:normal;font-weight:normal;font-stretch:normal;font-size:19.78759384px;line-height:80.00000119%;font-family:Corbel;-inkscape-font-specification:'Corbel, Normal';text-align:start;writing-mode:lr-tb;text-anchor:start"
           id="path4396"
           inkscape:connector-curvature="0" />
        <path
           d="m 139.1393,70.258153 q 0,-0.801939 -0.17391,-1.439625 -0.16425,-0.637686 -0.50242,-1.082134 -0.33817,-0.45411 -0.83092,-0.695658 -0.49276,-0.241547 -1.14011,-0.241547 -0.46377,0 -0.85025,0.125604 -0.37681,0.125605 -0.68599,0.318843 -0.30918,0.193239 -0.53141,0.415463 -0.22222,0.222224 -0.35749,0.396138 l 0,4.80197 q 0.47344,0.483095 1.07247,0.763291 0.6087,0.280195 1.30436,0.280195 0.42513,0 0.89856,-0.15459 0.47343,-0.164253 0.86957,-0.570053 0.4058,-0.415462 0.66667,-1.120782 0.26087,-0.705319 0.26087,-1.797115 z m 1.56523,-0.01932 q 0,0.956529 -0.19323,1.700496 -0.18358,0.734305 -0.49276,1.285034 -0.30918,0.550729 -0.72464,0.927544 -0.41547,0.367152 -0.85991,0.599038 -0.44445,0.222224 -0.90822,0.318843 -0.45411,0.106281 -0.85991,0.106281 -0.84059,0 -1.45895,-0.270533 -0.61837,-0.280196 -1.11112,-0.821263 l -0.029,0 0,5.343037 -1.49759,0 0,-13.671604 1.13044,0 0.31884,1.043487 0.029,0 q 0.1256,-0.193239 0.31884,-0.376815 0.2029,-0.183576 0.53141,-0.386476 0.33816,-0.212562 0.80193,-0.367153 0.47344,-0.154591 1.02417,-0.154591 0.77295,0 1.48793,0.260872 0.72464,0.260872 1.27537,0.830924 0.55073,0.570053 0.87924,1.468611 0.33816,0.888896 0.33816,2.164268 z"
           style="font-style:normal;font-variant:normal;font-weight:normal;font-stretch:normal;font-size:19.78759384px;line-height:80.00000119%;font-family:Corbel;-inkscape-font-specification:'Corbel, Normal';text-align:start;writing-mode:lr-tb;text-anchor:start"
           id="path4398"
           inkscape:connector-curvature="0" />
        <path
           d="m 146.6756,66.799189 q -0.51208,0 -0.95653,0.2029 -0.43479,0.2029 -0.76329,0.550729 -0.32851,0.347828 -0.53141,0.821262 -0.2029,0.463772 -0.25121,0.995177 l 4.63772,0 q 0,-0.541067 -0.14493,-1.004839 -0.13527,-0.473434 -0.4058,-0.821262 -0.27053,-0.347829 -0.66667,-0.541067 -0.39614,-0.2029 -0.91788,-0.2029 z m 0.82126,7.072518 q 0.74397,0 1.35267,-0.115943 0.61836,-0.125604 1.22706,-0.347828 l 0,1.246386 q -0.49276,0.241548 -1.2174,0.376815 -0.72464,0.144928 -1.55557,0.144928 -0.98551,0 -1.85509,-0.251209 -0.85991,-0.25121 -1.50725,-0.811601 -0.64735,-0.560391 -1.02417,-1.458948 -0.36715,-0.90822 -0.36715,-2.183592 0,-1.256049 0.34783,-2.17393 0.34783,-0.927544 0.92754,-1.545906 0.57972,-0.618362 1.33335,-0.927543 0.75363,-0.309182 1.57489,-0.309182 0.77295,0 1.43962,0.260872 0.67634,0.25121 1.1691,0.801939 0.49275,0.550729 0.77295,1.4203 0.28986,0.869572 0.28986,2.086973 0,0.115943 0,0.2029 0,0.0773 -0.01,0.367153 l -6.29956,0 q 0,0.879234 0.26087,1.497596 0.27053,0.608701 0.72464,0.995177 0.46377,0.376815 1.08214,0.550729 0.61836,0.173914 1.33334,0.173914 z"
           style="font-style:normal;font-variant:normal;font-weight:normal;font-stretch:normal;font-size:19.78759384px;line-height:80.00000119%;font-family:Corbel;-inkscape-font-specification:'Corbel, Normal';text-align:start;writing-mode:lr-tb;text-anchor:start"
           id="path4400"
           inkscape:connector-curvature="0" />
        <path
           d="m 153.03313,74.934518 0,-13.990448 1.4976,0 0,13.990448 -1.4976,0 z"
           style="font-style:normal;font-variant:normal;font-weight:normal;font-stretch:normal;font-size:19.78759384px;line-height:80.00000119%;font-family:Corbel;-inkscape-font-specification:'Corbel, Normal';text-align:start;writing-mode:lr-tb;text-anchor:start"
           id="path4402"
           inkscape:connector-curvature="0" />
        <path
           d="m 164.154,70.354772 q 0,-0.850248 -0.21256,-1.507258 -0.2029,-0.666672 -0.57972,-1.120782 -0.36715,-0.463772 -0.87923,-0.695658 -0.51208,-0.241547 -1.12078,-0.241547 -0.6087,0 -1.12078,0.241547 -0.51209,0.231886 -0.8889,0.695658 -0.36715,0.45411 -0.57972,1.120782 -0.2029,0.65701 -0.2029,1.507258 0,0.840586 0.2029,1.507258 0.21257,0.65701 0.58938,1.11112 0.37682,0.45411 0.8889,0.695657 0.51208,0.231886 1.12078,0.231886 0.6087,0 1.11112,-0.231886 0.51208,-0.241547 0.87923,-0.695657 0.37682,-0.45411 0.57972,-1.11112 0.21256,-0.666672 0.21256,-1.507258 z m 1.56523,0 q 0,1.082134 -0.30918,1.97103 -0.30918,0.888895 -0.87924,1.526582 -0.56039,0.628024 -1.36233,0.975853 -0.80193,0.347828 -1.79711,0.347828 -1.02416,0 -1.83576,-0.347828 -0.80194,-0.347829 -1.372,-0.975853 -0.56039,-0.637687 -0.85991,-1.526582 -0.29951,-0.888896 -0.29951,-1.97103 0,-1.091796 0.30918,-1.980692 0.30918,-0.888896 0.86957,-1.526582 0.57005,-0.637686 1.37199,-0.985515 0.8116,-0.347829 1.80678,-0.347829 1.0145,0 1.8261,0.347829 0.8116,0.347829 1.37199,0.985515 0.56039,0.637686 0.85991,1.526582 0.29952,0.888896 0.29952,1.980692 z"
           style="font-style:normal;font-variant:normal;font-weight:normal;font-stretch:normal;font-size:19.78759384px;line-height:80.00000119%;font-family:Corbel;-inkscape-font-specification:'Corbel, Normal';text-align:start;writing-mode:lr-tb;text-anchor:start"
           id="path4404"
           inkscape:connector-curvature="0" />
        <path
           d="m 55.505806,90.764596 0,-12.927637 1.574892,0 0,12.927637 -1.574892,0 z"
           style="font-style:normal;font-variant:normal;font-weight:normal;font-stretch:normal;font-size:19.78759384px;line-height:80.00000119%;font-family:Corbel;-inkscape-font-specification:'Corbel, Normal';text-align:start;writing-mode:lr-tb;text-anchor:start"
           id="path4406"
           inkscape:connector-curvature="0" />
        <path
           d="m 67.679814,90.764596 -1.497596,0 0,-5.903428 q 0,-0.599038 -0.135267,-1.014501 -0.125605,-0.425124 -0.376814,-0.695657 -0.241548,-0.270534 -0.589377,-0.396139 -0.338167,-0.125604 -0.763291,-0.125604 -0.801939,0 -1.458949,0.434786 -0.65701,0.425124 -1.178753,1.178753 l 0,6.52179 -1.497596,0 0,-9.178816 1.159429,0 0.289858,1.275373 0.02898,0 q 0.25121,-0.318844 0.541067,-0.589377 0.29952,-0.280195 0.65701,-0.483096 0.367153,-0.212562 0.801939,-0.328505 0.434786,-0.115943 0.946867,-0.115943 1.024163,0 1.700497,0.492758 0.676333,0.492757 1.043486,1.343006 l 0.03865,0 q 0.6087,-0.85991 1.391315,-1.343006 0.782615,-0.492758 1.826101,-0.492758 0.483096,0 1.024163,0.135267 0.541067,0.135267 0.995177,0.50242 0.454109,0.35749 0.753629,0.995176 0.299519,0.637687 0.299519,1.642525 l 0,6.144976 -1.487934,0 0,-5.903428 q 0,-0.599038 -0.135267,-1.014501 -0.125605,-0.425124 -0.376815,-0.695657 -0.241548,-0.270534 -0.589376,-0.396139 -0.338167,-0.125604 -0.763291,-0.125604 -0.801939,0 -1.468611,0.434786 -0.65701,0.425124 -1.178753,1.178753 l 0,6.52179 z"
           style="font-style:normal;font-variant:normal;font-weight:normal;font-stretch:normal;font-size:19.78759384px;line-height:80.00000119%;font-family:Corbel;-inkscape-font-specification:'Corbel, Normal';text-align:start;writing-mode:lr-tb;text-anchor:start"
           id="path4408"
           inkscape:connector-curvature="0" />
        <path
           d="m 83.18718,86.18485 q 0,-0.850248 -0.212562,-1.507258 -0.2029,-0.666672 -0.579715,-1.120782 -0.367153,-0.463772 -0.879234,-0.695657 -0.512081,-0.241548 -1.120782,-0.241548 -0.6087,0 -1.120781,0.241548 -0.512082,0.231885 -0.888896,0.695657 -0.367153,0.45411 -0.579715,1.120782 -0.2029,0.65701 -0.2029,1.507258 0,0.840586 0.2029,1.507258 0.212562,0.65701 0.589377,1.11112 0.376814,0.45411 0.888896,0.695657 0.512081,0.231886 1.120781,0.231886 0.608701,0 1.11112,-0.231886 0.512081,-0.241547 0.879234,-0.695657 0.376815,-0.45411 0.579715,-1.11112 0.212562,-0.666672 0.212562,-1.507258 z m 1.565229,0 q 0,1.082134 -0.309181,1.97103 -0.309181,0.888896 -0.879234,1.526582 -0.560391,0.628024 -1.362329,0.975853 -0.801939,0.347829 -1.797116,0.347829 -1.024162,0 -1.835763,-0.347829 -0.801938,-0.347829 -1.371991,-0.975853 -0.560391,-0.637686 -0.85991,-1.526582 -0.29952,-0.888896 -0.29952,-1.97103 0,-1.091796 0.309182,-1.980692 0.309181,-0.888896 0.869572,-1.526582 0.570052,-0.637686 1.371991,-0.985515 0.811601,-0.347829 1.806777,-0.347829 1.014501,0 1.826102,0.347829 0.8116,0.347829 1.371991,0.985515 0.560391,0.637686 0.85991,1.526582 0.299519,0.888896 0.299519,1.980692 z"
           style="font-style:normal;font-variant:normal;font-weight:normal;font-stretch:normal;font-size:19.78759384px;line-height:80.00000119%;font-family:Corbel;-inkscape-font-specification:'Corbel, Normal';text-align:start;writing-mode:lr-tb;text-anchor:start"
           id="path4410"
           inkscape:connector-curvature="0" />
        <path
           d="m 93.786297,86.13654 q 0,-1.091796 -0.260871,-1.768129 -0.25121,-0.685996 -0.65701,-1.062811 -0.396139,-0.386476 -0.850249,-0.531405 -0.454109,-0.144928 -0.908219,-0.144928 -0.695658,0 -1.31402,0.289857 -0.6087,0.289857 -1.082134,0.753629 l 0,4.80197 q 0.135267,0.183576 0.347829,0.4058 0.222224,0.212562 0.521743,0.4058 0.299519,0.183577 0.666672,0.318843 0.376814,0.125605 0.821262,0.125605 0.666672,0 1.169091,-0.260871 0.512082,-0.260872 0.850249,-0.734306 0.347828,-0.483095 0.521743,-1.140105 0.173914,-0.666672 0.173914,-1.458949 z m 1.56523,-0.115943 q 0,1.285035 -0.347829,2.22224 -0.347829,0.937205 -0.917882,1.555568 -0.570052,0.6087 -1.304358,0.908219 -0.734305,0.29952 -1.51692,0.29952 -0.589376,0 -1.043486,-0.154591 Q 89.776604,90.706624 89.457761,90.503724 89.14858,90.291162 88.955342,90.0786 88.771765,89.866038 88.69447,89.740433 l -0.02899,0 -0.318843,1.024163 -1.130443,0 0,-13.990447 1.497596,0 0,5.671541 0.02899,0 q 0.492757,-0.521743 1.149767,-0.8116 0.65701,-0.289858 1.497596,-0.289858 0.386477,0 0.830925,0.08696 0.454109,0.08696 0.888895,0.299519 0.444448,0.212562 0.850249,0.560391 0.4058,0.347829 0.714981,0.869572 0.309181,0.512081 0.492757,1.227062 0.183577,0.70532 0.183577,1.632863 z"
           style="font-style:normal;font-variant:normal;font-weight:normal;font-stretch:normal;font-size:19.78759384px;line-height:80.00000119%;font-family:Corbel;-inkscape-font-specification:'Corbel, Normal';text-align:start;writing-mode:lr-tb;text-anchor:start"
           id="path4412"
           inkscape:connector-curvature="0" />
        <path
           d="m 103.08106,89.750095 -0.0386,0 q -0.18358,0.231886 -0.46377,0.463772 -0.2802,0.222224 -0.64735,0.4058 -0.36715,0.173914 -0.80194,0.280196 -0.43479,0.106281 -0.92754,0.106281 -0.666676,0 -1.227066,-0.202901 -0.550729,-0.193238 -0.95653,-0.570052 -0.396138,-0.386477 -0.618362,-0.937206 -0.222224,-0.550729 -0.222224,-1.246386 0,-0.685996 0.241548,-1.227063 0.25121,-0.541067 0.695657,-0.917881 0.444448,-0.376815 1.062811,-0.579715 0.628024,-0.2029 1.381656,-0.2029 0.71498,0.0097 1.32368,0.125605 0.6087,0.115942 1.08213,0.289857 l 0.0387,0 0,-0.637686 q 0,-0.376815 -0.0483,-0.666672 -0.0483,-0.289857 -0.16425,-0.512081 -0.25121,-0.463772 -0.80194,-0.763291 -0.55073,-0.309182 -1.48793,-0.309182 -0.695662,0 -1.314024,0.135267 -0.608701,0.125605 -1.217401,0.357491 l 0,-1.256048 q 0.231886,-0.115943 0.541067,-0.212563 0.318843,-0.106281 0.666672,-0.173914 0.347828,-0.0773 0.734305,-0.115943 0.386481,-0.03865 0.772951,-0.03865 1.39132,0 2.27055,0.492758 0.8889,0.492757 1.27537,1.304358 0.14493,0.309181 0.2029,0.685996 0.0676,0.367152 0.0676,0.8116 l 0,6.125652 -1.25605,0 -0.16425,-1.014501 z m -0.0773,-3.014516 q -0.41546,-0.115943 -0.98551,-0.222224 -0.57006,-0.106281 -1.25605,-0.115943 -0.956532,0 -1.497599,0.4058 -0.541067,0.4058 -0.541067,1.246387 0,0.425124 0.135267,0.743967 0.135266,0.318843 0.367152,0.531405 0.241548,0.2029 0.560391,0.309181 0.328506,0.09662 0.695656,0.09662 0.4831,0 0.89856,-0.135266 0.41546,-0.144929 0.7343,-0.338167 0.32851,-0.193239 0.55073,-0.386477 0.23189,-0.193238 0.33817,-0.299519 l 0,-1.835763 z"
           style="font-style:normal;font-variant:normal;font-weight:normal;font-stretch:normal;font-size:19.78759384px;line-height:80.00000119%;font-family:Corbel;-inkscape-font-specification:'Corbel, Normal';text-align:start;writing-mode:lr-tb;text-anchor:start"
           id="path4414"
           inkscape:connector-curvature="0" />
        <path
           d="m 108.85888,82.861153 0.029,0 q 0.25121,-0.318844 0.55073,-0.589377 0.30918,-0.280195 0.686,-0.483096 0.37681,-0.212562 0.82126,-0.328505 0.45411,-0.115943 0.98552,-0.115943 0.62802,0 1.17875,0.173915 0.55073,0.173914 0.95653,0.560391 0.4058,0.386476 0.63768,1.0145 0.24155,0.618363 0.24155,1.526582 l 0,6.144976 -1.49759,0 0,-5.903428 q 0,-1.188415 -0.46378,-1.710158 -0.45411,-0.521743 -1.33334,-0.521743 -0.77295,0 -1.4976,0.434786 -0.72464,0.425124 -1.24638,1.178753 l 0,6.52179 -1.4976,0 0,-9.178816 1.15943,0 0.28986,1.275373 z"
           style="font-style:normal;font-variant:normal;font-weight:normal;font-stretch:normal;font-size:19.78759384px;line-height:80.00000119%;font-family:Corbel;-inkscape-font-specification:'Corbel, Normal';text-align:start;writing-mode:lr-tb;text-anchor:start"
           id="path4416"
           inkscape:connector-curvature="0" />
        <path
           d="m 123.78653,81.58578 1.95171,0 -4.48313,4.222255 4.47346,4.956561 -1.86474,0 -4.40584,-4.888927 -0.0193,0 0,4.888927 -1.4976,0 0,-13.990447 1.4976,0 0,8.908282 0.0193,0 4.32854,-4.096651 z"
           style="font-style:normal;font-variant:normal;font-weight:normal;font-stretch:normal;font-size:19.78759384px;line-height:80.00000119%;font-family:Corbel;-inkscape-font-specification:'Corbel, Normal';text-align:start;writing-mode:lr-tb;text-anchor:start"
           id="path4418"
           inkscape:connector-curvature="0" />
      </g>
      <g
         style="font-style:normal;font-variant:normal;font-weight:normal;font-stretch:normal;font-size:12.99124908px;line-height:125%;font-family:Corbel;-inkscape-font-specification:'Corbel, Normal';text-align:start;letter-spacing:0px;word-spacing:0px;writing-mode:lr-tb;text-anchor:start;fill:#000080;fill-opacity:1;stroke:none;stroke-width:1px;stroke-linecap:butt;stroke-linejoin:miter;stroke-opacity:1"
         id="text4186-08">
        <path
           d="m -302.11111,913.02863 3.45714,-8.48745 0.89442,0 3.45714,8.48745 -1.12278,0 -1.01494,-2.55639 -3.54595,0 -1.01494,2.55639 -1.11009,0 z m 3.89484,-7.16803 q -0.56457,1.58585 -1.08472,2.8799 l -0.31717,0.79926 2.81012,0 -0.31717,-0.79926 q -0.52016,-1.31943 -1.06569,-2.8799 l -0.0254,0 z"
           id="path4421"
           inkscape:connector-curvature="0" />
        <path
           d="m -289.95719,913.04131 q -0.12687,0.0507 -0.38695,0.0952 -0.26007,0.0444 -0.62165,0.0507 -0.47575,0 -0.82464,-0.12052 -0.34888,-0.11419 -0.58359,-0.32986 -0.22836,-0.22202 -0.34254,-0.53284 -0.11418,-0.31083 -0.11418,-0.69143 l 0,-3.66648 -1.16084,0 0,-0.84367 1.16084,0 0,-1.64928 0.98322,0 0,1.64928 1.80152,0 0,0.84367 -1.80152,0 0,3.51424 q 0,0.20933 0.0571,0.38694 0.0634,0.17762 0.1903,0.31083 0.13322,0.12687 0.3362,0.20299 0.20299,0.0698 0.48844,0.0698 0.19665,0 0.41232,-0.0317 0.22202,-0.0317 0.40598,-0.0825 l 0,0.82464 z"
           id="path4423"
           inkscape:connector-curvature="0" />
        <path
           d="m -285.31383,907.80168 -0.0761,0 q -0.34889,0 -0.68509,0.0634 -0.3362,0.0634 -0.63434,0.19665 -0.29179,0.12686 -0.53284,0.31717 -0.23471,0.1903 -0.39329,0.45038 l 0,4.19932 -0.98323,0 0,-6.02622 0.76121,0 0.1903,0.95785 0.019,0 q 0.1459,-0.2347 0.35523,-0.43769 0.21568,-0.20299 0.4821,-0.35523 0.26642,-0.15224 0.58359,-0.23471 0.31717,-0.0888 0.66606,-0.0888 0.0634,0 0.12686,0.006 0.0698,0 0.12053,0.006 l 0,0.94517 z"
           id="path4425"
           inkscape:connector-curvature="0" />
        <path
           d="m -280.72757,912.36257 -0.0254,0 q -0.12052,0.15224 -0.30448,0.30448 -0.18396,0.1459 -0.42501,0.26642 -0.24105,0.11419 -0.5265,0.18396 -0.28545,0.0698 -0.60897,0.0698 -0.43769,0 -0.8056,-0.13321 -0.36158,-0.12687 -0.628,-0.37426 -0.26008,-0.25374 -0.40598,-0.61531 -0.14589,-0.36157 -0.14589,-0.8183 0,-0.45038 0.15858,-0.8056 0.16493,-0.35523 0.45672,-0.60263 0.2918,-0.24739 0.69778,-0.3806 0.41232,-0.13321 0.9071,-0.13321 0.46941,0.006 0.86904,0.0825 0.39964,0.0761 0.71046,0.19031 l 0.0254,0 0,-0.41867 q 0,-0.24739 -0.0317,-0.43769 -0.0317,-0.1903 -0.10784,-0.3362 -0.16493,-0.30448 -0.5265,-0.50113 -0.36157,-0.20299 -0.97688,-0.20299 -0.45672,0 -0.8627,0.0888 -0.39963,0.0825 -0.79927,0.23471 l 0,-0.82464 q 0.15224,-0.0761 0.35523,-0.13956 0.20933,-0.0698 0.4377,-0.11418 0.22836,-0.0507 0.48209,-0.0761 0.25374,-0.0254 0.50747,-0.0254 0.91345,0 1.4907,0.32351 0.58359,0.32351 0.83733,0.85636 0.0951,0.20298 0.13321,0.45038 0.0444,0.24104 0.0444,0.53284 l 0,4.02171 -0.82464,0 -0.10784,-0.66606 z m -0.0507,-1.97914 q -0.27277,-0.0761 -0.64703,-0.14589 -0.37426,-0.0698 -0.82464,-0.0761 -0.62799,0 -0.98322,0.26642 -0.35523,0.26642 -0.35523,0.81829 0,0.27911 0.0888,0.48845 0.0888,0.20933 0.24105,0.34888 0.15859,0.13321 0.36792,0.20299 0.21567,0.0634 0.45672,0.0634 0.31717,0 0.58994,-0.0888 0.27276,-0.0951 0.48209,-0.22202 0.21568,-0.12687 0.36158,-0.25374 0.15224,-0.12687 0.22202,-0.19664 l 0,-1.20525 z"
           id="path4427"
           inkscape:connector-curvature="0" />
        <path
           d="m -275.83047,912.03271 q 0.21567,-0.65971 0.58359,-1.68099 l 1.19255,-3.34931 1.02763,0 -2.2963,6.02622 -1.02763,0 -2.29631,-6.02622 1.01494,0 1.19256,3.34931 q 0.35523,0.98957 0.58359,1.68099 l 0.0254,0 z"
           id="path4429"
           inkscape:connector-curvature="0" />
        <path
           d="m -268.11058,903.68482 -1.02128,2.21384 -0.82464,0 0.78023,-2.21384 1.06569,0 z m -3.20975,3.31759 0,0 z m 1.80786,0.68509 q -0.33619,0 -0.62799,0.13321 -0.28545,0.13321 -0.50113,0.36157 -0.21567,0.22836 -0.34888,0.53919 -0.13321,0.30448 -0.16493,0.65337 l 3.04482,0 q 0,-0.35523 -0.0951,-0.65972 -0.0888,-0.31082 -0.26642,-0.53918 -0.17762,-0.22836 -0.43769,-0.35523 -0.26008,-0.13321 -0.60263,-0.13321 z m 0.53919,4.64335 q 0.48844,0 0.88808,-0.0761 0.40597,-0.0825 0.80561,-0.22836 l 0,0.8183 q -0.32352,0.15858 -0.79927,0.24739 -0.47575,0.0952 -1.02129,0.0952 -0.64702,0 -1.21792,-0.16493 -0.56457,-0.16493 -0.98957,-0.53284 -0.42501,-0.36792 -0.6724,-0.95785 -0.24105,-0.59628 -0.24105,-1.43361 0,-0.82464 0.22836,-1.42726 0.22836,-0.60896 0.60897,-1.01494 0.3806,-0.40598 0.87538,-0.60897 0.49479,-0.20298 1.03398,-0.20298 0.50747,0 0.94516,0.17127 0.44404,0.16493 0.76755,0.5265 0.32351,0.36157 0.50747,0.93248 0.1903,0.5709 0.1903,1.37017 0,0.0761 0,0.13321 0,0.0507 -0.006,0.24105 l -4.13589,0 q 0,0.57724 0.17127,0.98322 0.17762,0.39963 0.47576,0.65337 0.30448,0.24739 0.71046,0.36157 0.40597,0.11418 0.87538,0.11418 z"
           id="path4431"
           inkscape:connector-curvature="0" />
        <path
           d="m -264.76761,908.60729 q 0,0.24739 0.10783,0.40597 0.10784,0.15859 0.28546,0.26008 0.18396,0.0951 0.41866,0.15859 0.24105,0.0634 0.49478,0.11418 0.34889,0.0761 0.65972,0.17127 0.31082,0.0888 0.5709,0.27276 0.26642,0.18396 0.42501,0.50113 0.16493,0.31083 0.16493,0.81196 0,0.45672 -0.17762,0.81195 -0.17761,0.34888 -0.50113,0.58993 -0.32351,0.23471 -0.77389,0.35523 -0.45038,0.12687 -0.98957,0.12687 -0.32985,0 -0.60262,-0.0381 -0.26642,-0.0317 -0.47575,-0.0888 -0.20299,-0.0507 -0.34889,-0.10784 -0.1459,-0.0571 -0.24105,-0.10783 l 0,-0.82464 q 0.38061,0.15224 0.75487,0.24105 0.37426,0.0888 0.82464,0.0888 0.35522,0 0.64068,-0.0634 0.28545,-0.0634 0.48844,-0.18396 0.20933,-0.12687 0.31717,-0.31082 0.11418,-0.19031 0.11418,-0.4377 0,-0.25373 -0.1015,-0.41866 -0.10149,-0.16493 -0.27276,-0.27277 -0.17127,-0.10783 -0.39964,-0.17761 -0.22201,-0.0698 -0.46941,-0.12687 -0.32351,-0.0698 -0.65971,-0.16493 -0.32985,-0.0951 -0.60262,-0.26642 -0.27276,-0.17127 -0.44404,-0.46307 -0.16492,-0.29813 -0.16492,-0.7612 0,-0.47576 0.17127,-0.82464 0.17127,-0.34889 0.46306,-0.57725 0.2918,-0.22836 0.67875,-0.34254 0.38694,-0.11418 0.81829,-0.11418 0.50113,0 0.92614,0.0951 0.43135,0.0951 0.78023,0.24105 l 0,0.83732 q -0.3806,-0.1459 -0.77389,-0.2347 -0.38695,-0.0951 -0.79927,-0.1015 -0.34888,0 -0.59627,0.0698 -0.2474,0.0698 -0.40598,0.19665 -0.15858,0.12052 -0.23471,0.29179 -0.0698,0.16493 -0.0698,0.36792 z"
           id="path4433"
           inkscape:connector-curvature="0" />
        <path
           d="m -256.85741,910.07895 q 0,0.52016 0.11418,0.94517 0.12052,0.41866 0.34254,0.7168 0.22202,0.29179 0.54553,0.45038 0.32351,0.15858 0.74218,0.15858 0.31082,0 0.56456,-0.0825 0.25373,-0.0825 0.45038,-0.20933 0.20299,-0.12687 0.34254,-0.26642 0.1459,-0.1459 0.22836,-0.26643 l 0,-3.15266 q -0.30448,-0.31082 -0.70411,-0.49478 -0.39964,-0.1903 -0.8627,-0.1903 -0.27911,0 -0.58994,0.10783 -0.30448,0.1015 -0.5709,0.37426 -0.26008,0.27277 -0.43135,0.73584 -0.17127,0.45672 -0.17127,1.17352 z m -1.02763,0.0127 q 0,-0.628 0.12052,-1.11009 0.12687,-0.48844 0.32986,-0.85002 0.20299,-0.36157 0.47575,-0.60262 0.27277,-0.24739 0.56456,-0.39963 0.2918,-0.15224 0.58994,-0.21568 0.30448,-0.0698 0.5709,-0.0698 0.55188,0 0.95785,0.18395 0.40598,0.18396 0.72949,0.53919 l 0.019,0 0,-3.72356 0.98323,0 0,9.18522 -0.74218,0 -0.20299,-0.6724 -0.0254,0 q -0.11418,0.14589 -0.26642,0.29814 -0.15224,0.14589 -0.36158,0.26642 -0.20298,0.12052 -0.47575,0.1903 -0.26642,0.0761 -0.62165,0.0761 -0.49478,0 -0.97054,-0.16493 -0.47575,-0.17127 -0.85001,-0.53919 -0.36792,-0.37426 -0.59628,-0.95785 -0.22836,-0.58993 -0.22836,-1.4336 z"
           id="path4435"
           inkscape:connector-curvature="0" />
        <path
           d="m -246.23859,910.02186 q 0,-0.55822 -0.13956,-0.98957 -0.13321,-0.43769 -0.3806,-0.73583 -0.24105,-0.30448 -0.57725,-0.45672 -0.3362,-0.15859 -0.73583,-0.15859 -0.39963,0 -0.73583,0.15859 -0.3362,0.15224 -0.58359,0.45672 -0.24105,0.29814 -0.38061,0.73583 -0.13321,0.43135 -0.13321,0.98957 0,0.55188 0.13321,0.98957 0.13956,0.43135 0.38695,0.72949 0.24739,0.29814 0.58359,0.45672 0.3362,0.15224 0.73583,0.15224 0.39964,0 0.72949,-0.15224 0.3362,-0.15858 0.57725,-0.45672 0.24739,-0.29814 0.3806,-0.72949 0.13956,-0.43769 0.13956,-0.98957 z m 1.02763,0 q 0,0.71046 -0.20299,1.29405 -0.20299,0.58359 -0.57725,1.00226 -0.36792,0.41232 -0.89442,0.64068 -0.5265,0.22836 -1.17987,0.22836 -0.67239,0 -1.20524,-0.22836 -0.5265,-0.22836 -0.90076,-0.64068 -0.36792,-0.41867 -0.56456,-1.00226 -0.19665,-0.58359 -0.19665,-1.29405 0,-0.7168 0.20299,-1.30039 0.20299,-0.58359 0.57091,-1.00226 0.37426,-0.41866 0.90076,-0.64702 0.53284,-0.22836 1.18621,-0.22836 0.66606,0 1.1989,0.22836 0.53284,0.22836 0.90076,0.64702 0.36792,0.41867 0.56456,1.00226 0.19665,0.58359 0.19665,1.30039 z"
           id="path4437"
           inkscape:connector-curvature="0" />
        <path
           d="m -236.72986,909.95843 q 0,-0.5265 -0.11418,-0.94517 -0.10784,-0.41866 -0.32986,-0.71046 -0.22202,-0.29813 -0.54553,-0.45672 -0.32351,-0.15858 -0.74852,-0.15858 -0.30448,0 -0.55822,0.0825 -0.24739,0.0825 -0.45038,0.20933 -0.20298,0.12687 -0.34888,0.27277 -0.1459,0.1459 -0.23471,0.26008 l 0,3.15266 q 0.31083,0.31717 0.70412,0.50113 0.39963,0.18395 0.85635,0.18395 0.27911,0 0.58994,-0.10149 0.31083,-0.10784 0.5709,-0.37426 0.26643,-0.27277 0.4377,-0.73583 0.17127,-0.46307 0.17127,-1.17987 z m 1.02763,-0.0127 q 0,0.628 -0.12687,1.11644 -0.12052,0.48209 -0.32351,0.84367 -0.20299,0.36157 -0.47576,0.60896 -0.27276,0.24105 -0.56456,0.39329 -0.29179,0.1459 -0.59628,0.20933 -0.29814,0.0698 -0.56456,0.0698 -0.55187,0 -0.95785,-0.17761 -0.40597,-0.18396 -0.72949,-0.53919 l -0.019,0 0,3.50789 -0.98322,0 0,-8.97589 0.74217,0 0.20934,0.68509 0.019,0 q 0.0825,-0.12687 0.20933,-0.2474 0.13321,-0.12052 0.34888,-0.25373 0.22202,-0.13956 0.5265,-0.24105 0.31083,-0.10149 0.6724,-0.10149 0.50747,0 0.97688,0.17127 0.47576,0.17127 0.83733,0.54553 0.36157,0.37426 0.57725,0.96419 0.22202,0.58359 0.22202,1.42092 z"
           id="path4439"
           inkscape:connector-curvature="0" />
        <path
           d="m -230.61484,912.36257 -0.0254,0 q -0.12053,0.15224 -0.30449,0.30448 -0.18395,0.1459 -0.425,0.26642 -0.24105,0.11419 -0.5265,0.18396 -0.28546,0.0698 -0.60897,0.0698 -0.43769,0 -0.80561,-0.13321 -0.36157,-0.12687 -0.62799,-0.37426 -0.26008,-0.25374 -0.40598,-0.61531 -0.1459,-0.36157 -0.1459,-0.8183 0,-0.45038 0.15859,-0.8056 0.16492,-0.35523 0.45672,-0.60263 0.2918,-0.24739 0.69777,-0.3806 0.41232,-0.13321 0.90711,-0.13321 0.46941,0.006 0.86904,0.0825 0.39963,0.0761 0.71046,0.19031 l 0.0254,0 0,-0.41867 q 0,-0.24739 -0.0317,-0.43769 -0.0317,-0.1903 -0.10784,-0.3362 -0.16493,-0.30448 -0.5265,-0.50113 -0.36158,-0.20299 -0.97688,-0.20299 -0.45673,0 -0.8627,0.0888 -0.39964,0.0825 -0.79927,0.23471 l 0,-0.82464 q 0.15224,-0.0761 0.35523,-0.13956 0.20933,-0.0698 0.43769,-0.11418 0.22836,-0.0507 0.4821,-0.0761 0.25373,-0.0254 0.50747,-0.0254 0.91345,0 1.4907,0.32351 0.58359,0.32351 0.83732,0.85636 0.0952,0.20298 0.13321,0.45038 0.0444,0.24104 0.0444,0.53284 l 0,4.02171 -0.82464,0 -0.10784,-0.66606 z m -0.0508,-1.97914 q -0.27276,-0.0761 -0.64702,-0.14589 -0.37426,-0.0698 -0.82464,-0.0761 -0.628,0 -0.98323,0.26642 -0.35523,0.26642 -0.35523,0.81829 0,0.27911 0.0888,0.48845 0.0888,0.20933 0.24105,0.34888 0.15858,0.13321 0.36792,0.20299 0.21567,0.0634 0.45672,0.0634 0.31717,0 0.58993,-0.0888 0.27277,-0.0951 0.4821,-0.22202 0.21568,-0.12687 0.36157,-0.25374 0.15225,-0.12687 0.22202,-0.19664 l 0,-1.20525 z"
           id="path4441"
           inkscape:connector-curvature="0" />
        <path
           d="m -227.70957,913.02863 0,-6.02622 0.98323,0 0,6.02622 -0.98323,0 z m -0.0254,-7.42811 0,-1.0974 1.03397,0 0,1.0974 -1.03397,0 z"
           id="path4443"
           inkscape:connector-curvature="0" />
        <path
           d="m -223.80205,907.83974 0.019,0 q 0.16493,-0.20933 0.36158,-0.38695 0.20298,-0.18396 0.45038,-0.31717 0.24739,-0.13955 0.53918,-0.21567 0.29814,-0.0761 0.64703,-0.0761 0.41232,0 0.77389,0.11418 0.36157,0.11418 0.628,0.36791 0.26642,0.25374 0.41866,0.66606 0.15858,0.40598 0.15858,1.00225 l 0,4.0344 -0.98322,0 0,-3.87581 q 0,-0.78024 -0.30448,-1.12278 -0.29814,-0.34254 -0.87539,-0.34254 -0.50747,0 -0.98322,0.28545 -0.47576,0.27911 -0.8183,0.77389 l 0,4.28179 -0.98323,0 0,-6.02622 0.76121,0 0.1903,0.83733 z"
           id="path4445"
           inkscape:connector-curvature="0" />
        <path
           d="m -215.54296,907.6875 q -0.3362,0 -0.62799,0.13321 -0.28545,0.13321 -0.50113,0.36157 -0.21567,0.22836 -0.34888,0.53919 -0.13322,0.30448 -0.16493,0.65337 l 3.04482,0 q 0,-0.35523 -0.0951,-0.65972 -0.0888,-0.31082 -0.26642,-0.53918 -0.17762,-0.22836 -0.43769,-0.35523 -0.26008,-0.13321 -0.60263,-0.13321 z m 0.53919,4.64335 q 0.48844,0 0.88808,-0.0761 0.40597,-0.0825 0.8056,-0.22836 l 0,0.8183 q -0.32351,0.15858 -0.79926,0.24739 -0.47576,0.0952 -1.02129,0.0952 -0.64702,0 -1.21793,-0.16493 -0.56456,-0.16493 -0.98956,-0.53284 -0.42501,-0.36792 -0.6724,-0.95785 -0.24105,-0.59628 -0.24105,-1.43361 0,-0.82464 0.22836,-1.42726 0.22836,-0.60896 0.60897,-1.01494 0.3806,-0.40598 0.87538,-0.60897 0.49479,-0.20298 1.03397,-0.20298 0.50747,0 0.94517,0.17127 0.44404,0.16493 0.76755,0.5265 0.32351,0.36157 0.50747,0.93248 0.1903,0.5709 0.1903,1.37017 0,0.0761 0,0.13321 0,0.0507 -0.006,0.24105 l -4.13589,0 q 0,0.57724 0.17127,0.98322 0.17762,0.39963 0.47576,0.65337 0.30448,0.24739 0.71045,0.36157 0.40598,0.11418 0.87539,0.11418 z"
           id="path4447"
           inkscape:connector-curvature="0" />
        <path
           d="m -211.36902,913.02863 0,-9.18522 0.98323,0 0,9.18522 -0.98323,0 z"
           id="path4449"
           inkscape:connector-curvature="0" />
        <path
           d="m -205.12078,910.07895 q 0,0.52016 0.11418,0.94517 0.12052,0.41866 0.34254,0.7168 0.22202,0.29179 0.54553,0.45038 0.32352,0.15858 0.74218,0.15858 0.31083,0 0.56456,-0.0825 0.25374,-0.0825 0.45038,-0.20933 0.20299,-0.12687 0.34254,-0.26642 0.1459,-0.1459 0.22837,-0.26643 l 0,-3.15266 q -0.30449,-0.31082 -0.70412,-0.49478 -0.39963,-0.1903 -0.8627,-0.1903 -0.27911,0 -0.58993,0.10783 -0.30449,0.1015 -0.57091,0.37426 -0.26008,0.27277 -0.43135,0.73584 -0.17127,0.45672 -0.17127,1.17352 z m -1.02763,0.0127 q 0,-0.628 0.12053,-1.11009 0.12686,-0.48844 0.32985,-0.85002 0.20299,-0.36157 0.47576,-0.60262 0.27276,-0.24739 0.56456,-0.39963 0.29179,-0.15224 0.58993,-0.21568 0.30448,-0.0698 0.57091,-0.0698 0.55187,0 0.95785,0.18395 0.40597,0.18396 0.72949,0.53919 l 0.019,0 0,-3.72356 0.98322,0 0,9.18522 -0.74218,0 -0.20298,-0.6724 -0.0254,0 q -0.11418,0.14589 -0.26642,0.29814 -0.15224,0.14589 -0.36157,0.26642 -0.20299,0.12052 -0.47576,0.1903 -0.26642,0.0761 -0.62165,0.0761 -0.49478,0 -0.97054,-0.16493 -0.47575,-0.17127 -0.85001,-0.53919 -0.36791,-0.37426 -0.59628,-0.95785 -0.22836,-0.58993 -0.22836,-1.4336 z"
           id="path4451"
           inkscape:connector-curvature="0" />
        <path
           d="m -196.48744,907.6875 q -0.3362,0 -0.62799,0.13321 -0.28545,0.13321 -0.50113,0.36157 -0.21567,0.22836 -0.34889,0.53919 -0.13321,0.30448 -0.16492,0.65337 l 3.04482,0 q 0,-0.35523 -0.0951,-0.65972 -0.0888,-0.31082 -0.26642,-0.53918 -0.17762,-0.22836 -0.4377,-0.35523 -0.26007,-0.13321 -0.60262,-0.13321 z m 0.53919,4.64335 q 0.48844,0 0.88807,-0.0761 0.40598,-0.0825 0.80561,-0.22836 l 0,0.8183 q -0.32351,0.15858 -0.79926,0.24739 -0.47576,0.0952 -1.02129,0.0952 -0.64702,0 -1.21793,-0.16493 -0.56456,-0.16493 -0.98956,-0.53284 -0.42501,-0.36792 -0.6724,-0.95785 -0.24105,-0.59628 -0.24105,-1.43361 0,-0.82464 0.22836,-1.42726 0.22836,-0.60896 0.60896,-1.01494 0.38061,-0.40598 0.87539,-0.60897 0.49479,-0.20298 1.03397,-0.20298 0.50747,0 0.94517,0.17127 0.44403,0.16493 0.76755,0.5265 0.32351,0.36157 0.50747,0.93248 0.1903,0.5709 0.1903,1.37017 0,0.0761 0,0.13321 0,0.0507 -0.006,0.24105 l -4.13589,0 q 0,0.57724 0.17127,0.98322 0.17762,0.39963 0.47575,0.65337 0.30449,0.24739 0.71046,0.36157 0.40598,0.11418 0.87539,0.11418 z"
           id="path4453"
           inkscape:connector-curvature="0" />
        <path
           d="m -298.79352,923.08289 q 0.43769,0 0.83732,0.0951 0.39964,0.0888 0.68509,0.25373 l 0,0.8183 q -0.39963,-0.15224 -0.73583,-0.22836 -0.3362,-0.0761 -0.68509,-0.0761 -0.36791,0 -0.72949,0.12052 -0.36157,0.12053 -0.64702,0.39964 -0.28545,0.27276 -0.46307,0.72948 -0.17127,0.45038 -0.17127,1.12278 0,0.48844 0.12687,0.90076 0.13321,0.41232 0.38694,0.71681 0.26008,0.29814 0.64703,0.46941 0.38695,0.16492 0.89442,0.16492 0.36791,0 0.74217,-0.0761 0.37426,-0.0825 0.72949,-0.22836 l 0,0.8183 q -0.10784,0.0634 -0.28545,0.12687 -0.17127,0.0634 -0.3806,0.10783 -0.20934,0.0507 -0.44404,0.0761 -0.23471,0.0317 -0.46941,0.0317 -0.60897,0 -1.1545,-0.18396 -0.53919,-0.18395 -0.94516,-0.56456 -0.40598,-0.3806 -0.64068,-0.96419 -0.23471,-0.58359 -0.23471,-1.38286 0,-0.59628 0.12053,-1.07203 0.12686,-0.47576 0.34254,-0.83733 0.21567,-0.36157 0.50113,-0.61531 0.29179,-0.25373 0.6153,-0.41232 0.32986,-0.16492 0.67875,-0.2347 0.34888,-0.0761 0.67874,-0.0761 z"
           id="path4455"
           inkscape:connector-curvature="0" />
        <path
           d="m -291.32736,926.26092 q 0,-0.55821 -0.13955,-0.98956 -0.13322,-0.4377 -0.38061,-0.73584 -0.24105,-0.30448 -0.57725,-0.45672 -0.33619,-0.15859 -0.73583,-0.15859 -0.39963,0 -0.73583,0.15859 -0.3362,0.15224 -0.58359,0.45672 -0.24105,0.29814 -0.3806,0.73584 -0.13322,0.43135 -0.13322,0.98956 0,0.55188 0.13322,0.98957 0.13955,0.43135 0.38694,0.72949 0.24739,0.29814 0.58359,0.45672 0.3362,0.15224 0.73584,0.15224 0.39963,0 0.72948,-0.15224 0.3362,-0.15858 0.57725,-0.45672 0.24739,-0.29814 0.38061,-0.72949 0.13955,-0.43769 0.13955,-0.98957 z m 1.02763,0 q 0,0.71046 -0.20299,1.29405 -0.20299,0.58359 -0.57725,1.00226 -0.36791,0.41232 -0.89441,0.64068 -0.52651,0.22836 -1.17987,0.22836 -0.6724,0 -1.20525,-0.22836 -0.5265,-0.22836 -0.90076,-0.64068 -0.36791,-0.41867 -0.56456,-1.00226 -0.19664,-0.58359 -0.19664,-1.29405 0,-0.7168 0.20298,-1.30039 0.20299,-0.58359 0.57091,-1.00226 0.37426,-0.41866 0.90076,-0.64702 0.53284,-0.22836 1.18621,-0.22836 0.66606,0 1.1989,0.22836 0.53285,0.22836 0.90076,0.64702 0.36792,0.41867 0.56456,1.00226 0.19665,0.58359 0.19665,1.30039 z"
           id="path4457"
           inkscape:connector-curvature="0" />
        <path
           d="m -287.7941,924.0788 0.019,0 q 0.16493,-0.20933 0.36158,-0.38695 0.20299,-0.18396 0.45038,-0.31717 0.24739,-0.13955 0.53919,-0.21567 0.29813,-0.0761 0.64702,-0.0761 0.41232,0 0.77389,0.11418 0.36158,0.11418 0.628,0.36792 0.26642,0.25373 0.41866,0.66605 0.15859,0.40598 0.15859,1.00226 l 0,4.03439 -0.98323,0 0,-3.87581 q 0,-0.78024 -0.30448,-1.12278 -0.29814,-0.34254 -0.87539,-0.34254 -0.50747,0 -0.98322,0.28545 -0.47576,0.27911 -0.8183,0.77389 l 0,4.28179 -0.98322,0 0,-6.02622 0.7612,0 0.1903,0.83733 z"
           id="path4459"
           inkscape:connector-curvature="0" />
        <path
           d="m -278.71671,929.28037 q -0.12687,0.0508 -0.38695,0.0952 -0.26008,0.0444 -0.62165,0.0507 -0.47576,0 -0.82464,-0.12052 -0.34889,-0.11418 -0.58359,-0.32986 -0.22836,-0.22202 -0.34255,-0.53284 -0.11418,-0.31083 -0.11418,-0.69143 l 0,-3.66648 -1.16084,0 0,-0.84367 1.16084,0 0,-1.64928 0.98323,0 0,1.64928 1.80152,0 0,0.84367 -1.80152,0 0,3.51424 q 0,0.20933 0.0571,0.38694 0.0634,0.17762 0.1903,0.31083 0.13321,0.12687 0.3362,0.20299 0.20299,0.0698 0.48844,0.0698 0.19664,0 0.41232,-0.0317 0.22202,-0.0317 0.40598,-0.0825 l 0,0.82464 z"
           id="path4461"
           inkscape:connector-curvature="0" />
        <path
           d="m -274.07336,924.04074 -0.0761,0 q -0.34888,0 -0.68508,0.0634 -0.3362,0.0634 -0.63434,0.19665 -0.2918,0.12687 -0.53285,0.31717 -0.2347,0.1903 -0.39329,0.45038 l 0,4.19932 -0.98322,0 0,-6.02622 0.76121,0 0.1903,0.95785 0.019,0 q 0.1459,-0.2347 0.35523,-0.43769 0.21567,-0.20299 0.48209,-0.35523 0.26643,-0.15224 0.5836,-0.2347 0.31716,-0.0888 0.66605,-0.0888 0.0634,0 0.12687,0.006 0.0698,0 0.12052,0.006 l 0,0.94517 z"
           id="path4463"
           inkscape:connector-curvature="0" />
        <path
           d="m -268.66879,926.26092 q 0,-0.55821 -0.13956,-0.98956 -0.13321,-0.4377 -0.3806,-0.73584 -0.24105,-0.30448 -0.57725,-0.45672 -0.3362,-0.15859 -0.73583,-0.15859 -0.39963,0 -0.73583,0.15859 -0.3362,0.15224 -0.5836,0.45672 -0.24104,0.29814 -0.3806,0.73584 -0.13321,0.43135 -0.13321,0.98956 0,0.55188 0.13321,0.98957 0.13956,0.43135 0.38695,0.72949 0.24739,0.29814 0.58359,0.45672 0.3362,0.15224 0.73583,0.15224 0.39963,0 0.72949,-0.15224 0.3362,-0.15858 0.57725,-0.45672 0.24739,-0.29814 0.3806,-0.72949 0.13956,-0.43769 0.13956,-0.98957 z m 1.02762,0 q 0,0.71046 -0.20298,1.29405 -0.20299,0.58359 -0.57725,1.00226 -0.36792,0.41232 -0.89442,0.64068 -0.5265,0.22836 -1.17987,0.22836 -0.6724,0 -1.20524,-0.22836 -0.5265,-0.22836 -0.90076,-0.64068 -0.36792,-0.41867 -0.56456,-1.00226 -0.19665,-0.58359 -0.19665,-1.29405 0,-0.7168 0.20299,-1.30039 0.20299,-0.58359 0.57091,-1.00226 0.37425,-0.41866 0.90076,-0.64702 0.53284,-0.22836 1.18621,-0.22836 0.66605,0 1.1989,0.22836 0.53284,0.22836 0.90076,0.64702 0.36791,0.41867 0.56456,1.00226 0.19664,0.58359 0.19664,1.30039 z"
           id="path4465"
           inkscape:connector-curvature="0" />
        <path
           d="m -266.0236,929.26769 0,-9.18522 0.98322,0 0,9.18522 -0.98322,0 z"
           id="path4467"
           inkscape:connector-curvature="0" />
        <path
           d="m -260.70785,923.92656 q -0.3362,0 -0.62799,0.13321 -0.28545,0.13321 -0.50113,0.36157 -0.21567,0.22836 -0.34888,0.53919 -0.13322,0.30448 -0.16493,0.65337 l 3.04482,0 q 0,-0.35523 -0.0951,-0.65971 -0.0888,-0.31083 -0.26642,-0.53919 -0.17762,-0.22836 -0.4377,-0.35523 -0.26007,-0.13321 -0.60262,-0.13321 z m 0.53919,4.64335 q 0.48844,0 0.88807,-0.0761 0.40598,-0.0825 0.80561,-0.22836 l 0,0.8183 q -0.32351,0.15858 -0.79926,0.24739 -0.47576,0.0951 -1.02129,0.0951 -0.64702,0 -1.21793,-0.16493 -0.56456,-0.16492 -0.98956,-0.53284 -0.42501,-0.36792 -0.6724,-0.95785 -0.24105,-0.59628 -0.24105,-1.43361 0,-0.82464 0.22836,-1.42726 0.22836,-0.60896 0.60897,-1.01494 0.3806,-0.40598 0.87538,-0.60896 0.49479,-0.20299 1.03397,-0.20299 0.50747,0 0.94517,0.17127 0.44403,0.16493 0.76755,0.5265 0.32351,0.36157 0.50747,0.93248 0.1903,0.5709 0.1903,1.37017 0,0.0761 0,0.13321 0,0.0508 -0.006,0.24105 l -4.13589,0 q 0,0.57725 0.17127,0.98322 0.17762,0.39964 0.47576,0.65337 0.30448,0.24739 0.71045,0.36157 0.40598,0.11418 0.87539,0.11418 z"
           id="path4469"
           inkscape:connector-curvature="0" />
        <path
           d="m -253.30512,926.31801 q 0,0.52016 0.11418,0.94517 0.12053,0.41866 0.34255,0.7168 0.22201,0.2918 0.54553,0.45038 0.32351,0.15858 0.74217,0.15858 0.31083,0 0.56456,-0.0825 0.25374,-0.0825 0.45038,-0.20933 0.20299,-0.12687 0.34255,-0.26642 0.14589,-0.1459 0.22836,-0.26643 l 0,-3.15266 q -0.30448,-0.31082 -0.70412,-0.49478 -0.39963,-0.1903 -0.8627,-0.1903 -0.27911,0 -0.58993,0.10784 -0.30448,0.10149 -0.57091,0.37426 -0.26008,0.27276 -0.43135,0.73583 -0.17127,0.45672 -0.17127,1.17352 z m -1.02763,0.0127 q 0,-0.62799 0.12053,-1.11009 0.12687,-0.48844 0.32985,-0.85002 0.20299,-0.36157 0.47576,-0.60262 0.27276,-0.24739 0.56456,-0.39963 0.29179,-0.15224 0.58993,-0.21567 0.30449,-0.0698 0.57091,-0.0698 0.55187,0 0.95785,0.18396 0.40598,0.18395 0.72949,0.53918 l 0.019,0 0,-3.72356 0.98322,0 0,9.18522 -0.74217,0 -0.20299,-0.6724 -0.0254,0 q -0.11418,0.1459 -0.26642,0.29814 -0.15224,0.1459 -0.36157,0.26642 -0.20299,0.12052 -0.47575,0.1903 -0.26643,0.0761 -0.62166,0.0761 -0.49478,0 -0.97053,-0.16493 -0.47576,-0.17127 -0.85002,-0.53918 -0.36791,-0.37426 -0.59627,-0.95786 -0.22837,-0.58993 -0.22837,-1.4336 z"
           id="path4471"
           inkscape:connector-curvature="0" />
        <path
           d="m -243.50459,928.60163 -0.0254,0 q -0.12052,0.15224 -0.30448,0.30448 -0.18396,0.1459 -0.425,0.26643 -0.24105,0.11418 -0.52651,0.18395 -0.28545,0.0698 -0.60896,0.0698 -0.43769,0 -0.80561,-0.13321 -0.36157,-0.12687 -0.628,-0.37426 -0.26007,-0.25373 -0.40597,-0.61531 -0.1459,-0.36157 -0.1459,-0.81829 0,-0.45038 0.15859,-0.80561 0.16492,-0.35523 0.45672,-0.60262 0.29179,-0.2474 0.69777,-0.38061 0.41232,-0.13321 0.9071,-0.13321 0.46942,0.006 0.86905,0.0825 0.39963,0.0761 0.71046,0.19031 l 0.0254,0 0,-0.41867 q 0,-0.24739 -0.0317,-0.43769 -0.0317,-0.1903 -0.10783,-0.3362 -0.16493,-0.30448 -0.5265,-0.50113 -0.36158,-0.20299 -0.97689,-0.20299 -0.45672,0 -0.8627,0.0888 -0.39963,0.0825 -0.79926,0.23471 l 0,-0.82464 q 0.15224,-0.0761 0.35523,-0.13956 0.20933,-0.0698 0.43769,-0.11418 0.22836,-0.0507 0.4821,-0.0761 0.25373,-0.0254 0.50747,-0.0254 0.91345,0 1.49069,0.32351 0.5836,0.32351 0.83733,0.85636 0.0951,0.20299 0.13321,0.45038 0.0444,0.24105 0.0444,0.53284 l 0,4.02171 -0.82464,0 -0.10784,-0.66606 z m -0.0507,-1.97913 q -0.27276,-0.0761 -0.64702,-0.1459 -0.37426,-0.0698 -0.82464,-0.0761 -0.628,0 -0.98323,0.26642 -0.35523,0.26642 -0.35523,0.8183 0,0.2791 0.0888,0.48844 0.0888,0.20933 0.24105,0.34888 0.15858,0.13321 0.36791,0.20299 0.21568,0.0634 0.45673,0.0634 0.31717,0 0.58993,-0.0888 0.27277,-0.0951 0.4821,-0.22202 0.21567,-0.12687 0.36157,-0.25374 0.15224,-0.12686 0.22202,-0.19664 l 0,-1.20524 z"
           id="path4473"
           inkscape:connector-curvature="0" />
        <path
           d="m -237.41494,924.84635 q 0,0.24739 0.10783,0.40598 0.10784,0.15858 0.28546,0.26007 0.18395,0.0951 0.41866,0.15859 0.24105,0.0634 0.49478,0.11418 0.34889,0.0761 0.65972,0.17127 0.31082,0.0888 0.5709,0.27277 0.26642,0.18395 0.42501,0.50112 0.16492,0.31083 0.16492,0.81196 0,0.45672 -0.17761,0.81195 -0.17762,0.34889 -0.50113,0.58993 -0.32351,0.23471 -0.77389,0.35523 -0.45038,0.12687 -0.98957,0.12687 -0.32985,0 -0.60262,-0.0381 -0.26642,-0.0317 -0.47575,-0.0888 -0.20299,-0.0507 -0.34889,-0.10783 -0.1459,-0.0571 -0.24105,-0.10784 l 0,-0.82464 q 0.3806,0.15224 0.75486,0.24105 0.37426,0.0888 0.82464,0.0888 0.35523,0 0.64069,-0.0634 0.28545,-0.0634 0.48844,-0.18396 0.20933,-0.12686 0.31717,-0.31082 0.11418,-0.1903 0.11418,-0.4377 0,-0.25373 -0.1015,-0.41866 -0.10149,-0.16493 -0.27276,-0.27277 -0.17127,-0.10783 -0.39964,-0.17761 -0.22201,-0.0698 -0.46941,-0.12687 -0.32351,-0.0698 -0.65971,-0.16493 -0.32985,-0.0951 -0.60262,-0.26642 -0.27277,-0.17127 -0.44404,-0.46306 -0.16492,-0.29814 -0.16492,-0.76121 0,-0.47575 0.17127,-0.82464 0.17127,-0.34889 0.46306,-0.57725 0.2918,-0.22836 0.67875,-0.34254 0.38694,-0.11418 0.81829,-0.11418 0.50113,0 0.92614,0.0951 0.43135,0.0951 0.78023,0.24105 l 0,0.83732 q -0.3806,-0.14589 -0.77389,-0.2347 -0.38695,-0.0951 -0.79927,-0.1015 -0.34888,0 -0.59627,0.0698 -0.2474,0.0698 -0.40598,0.19665 -0.15859,0.12052 -0.23471,0.29179 -0.0698,0.16493 -0.0698,0.36792 z"
           id="path4475"
           inkscape:connector-curvature="0" />
        <path
           d="m -230.4055,929.42627 q -0.46941,0 -0.84367,-0.10149 -0.37426,-0.1015 -0.65972,-0.28545 -0.2791,-0.18396 -0.47575,-0.4377 -0.19664,-0.26008 -0.31082,-0.56456 -0.0888,-0.22836 -0.12687,-0.50113 -0.0381,-0.27276 -0.0381,-0.59627 l 0,-3.6982 0.98322,0 0,3.69185 q 0,0.50113 0.13321,0.83733 0.15224,0.3806 0.48844,0.60262 0.34255,0.21567 0.86905,0.21567 0.55821,0 0.89441,-0.24104 0.34255,-0.24105 0.48844,-0.64703 0.10784,-0.31082 0.10784,-0.76755 l 0,-3.69185 0.98323,0 0,3.70454 q 0,0.30448 -0.0381,0.5709 -0.0317,0.26008 -0.10784,0.4821 -0.11418,0.31083 -0.31717,0.57725 -0.19665,0.26008 -0.48844,0.45038 -0.2918,0.1903 -0.67874,0.29179 -0.38061,0.10784 -0.8627,0.10784 z"
           id="path4477"
           inkscape:connector-curvature="0" />
        <path
           d="m -222.54605,928.60163 -0.0254,0 q -0.12052,0.15224 -0.30448,0.30448 -0.18396,0.1459 -0.42501,0.26643 -0.24105,0.11418 -0.5265,0.18395 -0.28545,0.0698 -0.60896,0.0698 -0.4377,0 -0.80561,-0.13321 -0.36157,-0.12687 -0.628,-0.37426 -0.26008,-0.25373 -0.40597,-0.61531 -0.1459,-0.36157 -0.1459,-0.81829 0,-0.45038 0.15858,-0.80561 0.16493,-0.35523 0.45673,-0.60262 0.29179,-0.2474 0.69777,-0.38061 0.41232,-0.13321 0.9071,-0.13321 0.46941,0.006 0.86905,0.0825 0.39963,0.0761 0.71046,0.19031 l 0.0254,0 0,-0.41867 q 0,-0.24739 -0.0317,-0.43769 -0.0317,-0.1903 -0.10784,-0.3362 -0.16492,-0.30448 -0.5265,-0.50113 -0.36157,-0.20299 -0.97688,-0.20299 -0.45672,0 -0.8627,0.0888 -0.39963,0.0825 -0.79926,0.23471 l 0,-0.82464 q 0.15224,-0.0761 0.35523,-0.13956 0.20933,-0.0698 0.43769,-0.11418 0.22836,-0.0507 0.4821,-0.0761 0.25373,-0.0254 0.50747,-0.0254 0.91344,0 1.49069,0.32351 0.58359,0.32351 0.83733,0.85636 0.0951,0.20299 0.13321,0.45038 0.0444,0.24105 0.0444,0.53284 l 0,4.02171 -0.82464,0 -0.10783,-0.66606 z m -0.0507,-1.97913 q -0.27277,-0.0761 -0.64703,-0.1459 -0.37426,-0.0698 -0.82464,-0.0761 -0.62799,0 -0.98322,0.26642 -0.35523,0.26642 -0.35523,0.8183 0,0.2791 0.0888,0.48844 0.0888,0.20933 0.24105,0.34888 0.15858,0.13321 0.36791,0.20299 0.21568,0.0634 0.45673,0.0634 0.31716,0 0.58993,-0.0888 0.27277,-0.0951 0.4821,-0.22202 0.21567,-0.12687 0.36157,-0.25374 0.15224,-0.12686 0.22202,-0.19664 l 0,-1.20524 z"
           id="path4479"
           inkscape:connector-curvature="0" />
        <path
           d="m -214.50264,923.08289 q 0.43769,0 0.83732,0.0951 0.39964,0.0888 0.68509,0.25373 l 0,0.8183 q -0.39963,-0.15224 -0.73583,-0.22836 -0.3362,-0.0761 -0.68509,-0.0761 -0.36792,0 -0.72949,0.12052 -0.36157,0.12053 -0.64702,0.39964 -0.28546,0.27276 -0.46307,0.72948 -0.17127,0.45038 -0.17127,1.12278 0,0.48844 0.12687,0.90076 0.13321,0.41232 0.38694,0.71681 0.26008,0.29814 0.64703,0.46941 0.38694,0.16492 0.89441,0.16492 0.36792,0 0.74218,-0.0761 0.37426,-0.0825 0.72949,-0.22836 l 0,0.8183 q -0.10784,0.0634 -0.28545,0.12687 -0.17127,0.0634 -0.38061,0.10783 -0.20933,0.0507 -0.44403,0.0761 -0.23471,0.0317 -0.46941,0.0317 -0.60897,0 -1.1545,-0.18396 -0.53919,-0.18395 -0.94516,-0.56456 -0.40598,-0.3806 -0.64068,-0.96419 -0.23471,-0.58359 -0.23471,-1.38286 0,-0.59628 0.12052,-1.07203 0.12687,-0.47576 0.34255,-0.83733 0.21567,-0.36157 0.50112,-0.61531 0.2918,-0.25373 0.61531,-0.41232 0.32986,-0.16492 0.67874,-0.2347 0.34889,-0.0761 0.67875,-0.0761 z"
           id="path4481"
           inkscape:connector-curvature="0" />
        <path
           d="m -207.03648,926.26092 q 0,-0.55821 -0.13956,-0.98956 -0.13321,-0.4377 -0.3806,-0.73584 -0.24105,-0.30448 -0.57725,-0.45672 -0.3362,-0.15859 -0.73583,-0.15859 -0.39963,0 -0.73583,0.15859 -0.3362,0.15224 -0.58359,0.45672 -0.24105,0.29814 -0.38061,0.73584 -0.13321,0.43135 -0.13321,0.98956 0,0.55188 0.13321,0.98957 0.13956,0.43135 0.38695,0.72949 0.24739,0.29814 0.58359,0.45672 0.3362,0.15224 0.73583,0.15224 0.39964,0 0.72949,-0.15224 0.3362,-0.15858 0.57725,-0.45672 0.24739,-0.29814 0.3806,-0.72949 0.13956,-0.43769 0.13956,-0.98957 z m 1.02763,0 q 0,0.71046 -0.20299,1.29405 -0.20299,0.58359 -0.57725,1.00226 -0.36792,0.41232 -0.89442,0.64068 -0.5265,0.22836 -1.17987,0.22836 -0.67239,0 -1.20524,-0.22836 -0.5265,-0.22836 -0.90076,-0.64068 -0.36791,-0.41867 -0.56456,-1.00226 -0.19664,-0.58359 -0.19664,-1.29405 0,-0.7168 0.20298,-1.30039 0.20299,-0.58359 0.57091,-1.00226 0.37426,-0.41866 0.90076,-0.64702 0.53284,-0.22836 1.18621,-0.22836 0.66606,0 1.1989,0.22836 0.53284,0.22836 0.90076,0.64702 0.36792,0.41867 0.56456,1.00226 0.19665,0.58359 0.19665,1.30039 z"
           id="path4483"
           inkscape:connector-curvature="0" />
        <path
           d="m -203.50322,924.0788 0.019,0 q 0.16493,-0.20933 0.36157,-0.38695 0.20299,-0.18396 0.45038,-0.31717 0.2474,-0.13955 0.53919,-0.21567 0.29814,-0.0761 0.64703,-0.0761 0.41232,0 0.77389,0.11418 0.36157,0.11418 0.62799,0.36792 0.26643,0.25373 0.41867,0.66605 0.15858,0.40598 0.15858,1.00226 l 0,4.03439 -0.98322,0 0,-3.87581 q 0,-0.78024 -0.30449,-1.12278 -0.29813,-0.34254 -0.87538,-0.34254 -0.50747,0 -0.98323,0.28545 -0.47575,0.27911 -0.81829,0.77389 l 0,4.28179 -0.98323,0 0,-6.02622 0.76121,0 0.1903,0.83733 z"
           id="path4485"
           inkscape:connector-curvature="0" />
        <path
           d="m -194.42584,929.28037 q -0.12687,0.0508 -0.38695,0.0952 -0.26007,0.0444 -0.62165,0.0507 -0.47575,0 -0.82464,-0.12052 -0.34888,-0.11418 -0.58359,-0.32986 -0.22836,-0.22202 -0.34254,-0.53284 -0.11418,-0.31083 -0.11418,-0.69143 l 0,-3.66648 -1.16084,0 0,-0.84367 1.16084,0 0,-1.64928 0.98322,0 0,1.64928 1.80152,0 0,0.84367 -1.80152,0 0,3.51424 q 0,0.20933 0.0571,0.38694 0.0634,0.17762 0.1903,0.31083 0.13322,0.12687 0.3362,0.20299 0.20299,0.0698 0.48844,0.0698 0.19665,0 0.41232,-0.0317 0.22202,-0.0317 0.40598,-0.0825 l 0,0.82464 z"
           id="path4487"
           inkscape:connector-curvature="0" />
        <path
           d="m -189.56046,928.60163 -0.0254,0 q -0.12053,0.15224 -0.30448,0.30448 -0.18396,0.1459 -0.42501,0.26643 -0.24105,0.11418 -0.5265,0.18395 -0.28545,0.0698 -0.60897,0.0698 -0.43769,0 -0.80561,-0.13321 -0.36157,-0.12687 -0.62799,-0.37426 -0.26008,-0.25373 -0.40598,-0.61531 -0.1459,-0.36157 -0.1459,-0.81829 0,-0.45038 0.15859,-0.80561 0.16493,-0.35523 0.45672,-0.60262 0.2918,-0.2474 0.69777,-0.38061 0.41232,-0.13321 0.90711,-0.13321 0.46941,0.006 0.86904,0.0825 0.39964,0.0761 0.71046,0.19031 l 0.0254,0 0,-0.41867 q 0,-0.24739 -0.0317,-0.43769 -0.0317,-0.1903 -0.10784,-0.3362 -0.16493,-0.30448 -0.5265,-0.50113 -0.36157,-0.20299 -0.97688,-0.20299 -0.45673,0 -0.8627,0.0888 -0.39964,0.0825 -0.79927,0.23471 l 0,-0.82464 q 0.15224,-0.0761 0.35523,-0.13956 0.20933,-0.0698 0.43769,-0.11418 0.22837,-0.0507 0.4821,-0.0761 0.25374,-0.0254 0.50747,-0.0254 0.91345,0 1.4907,0.32351 0.58359,0.32351 0.83732,0.85636 0.0951,0.20299 0.13322,0.45038 0.0444,0.24105 0.0444,0.53284 l 0,4.02171 -0.82464,0 -0.10784,-0.66606 z m -0.0507,-1.97913 q -0.27276,-0.0761 -0.64702,-0.1459 -0.37426,-0.0698 -0.82464,-0.0761 -0.628,0 -0.98322,0.26642 -0.35523,0.26642 -0.35523,0.8183 0,0.2791 0.0888,0.48844 0.0888,0.20933 0.24105,0.34888 0.15859,0.13321 0.36792,0.20299 0.21567,0.0634 0.45672,0.0634 0.31717,0 0.58994,-0.0888 0.27276,-0.0951 0.48209,-0.22202 0.21568,-0.12687 0.36158,-0.25374 0.15224,-0.12686 0.22201,-0.19664 l 0,-1.20524 z"
           id="path4489"
           inkscape:connector-curvature="0" />
      </g>
      <path
         sodipodi:nodetypes="cc"
         inkscape:connector-curvature="0"
         id="path4174-5"
         d="m -307.41959,826.77434 0,132.85397"
         style="fill:none;fill-rule:evenodd;stroke:#000000;stroke-width:1.08614731px;stroke-linecap:butt;stroke-linejoin:miter;stroke-opacity:1" />
      <g
         style="font-style:normal;font-variant:normal;font-weight:normal;font-stretch:normal;font-size:43.44625092px;line-height:125%;font-family:sans-serif;-inkscape-font-specification:'sans-serif, Normal';text-align:start;letter-spacing:0px;word-spacing:0px;writing-mode:lr-tb;text-anchor:start;fill:#000000;fill-opacity:1;stroke:none;stroke-width:1px;stroke-linecap:butt;stroke-linejoin:miter;stroke-opacity:1"
         id="text4152-5-7-1-6">
        <path
           d="m -316.86812,899.30519 -4.68829,0 0,8.88866 -4.07309,0 0,-8.88866 -15.12557,0 0,-4.87922 15.29528,-17.81975 3.90338,0 0,19.30473 4.68829,0 0,3.39424 z m -8.76138,-3.39424 0,-14.2558 -12.24047,14.2558 12.24047,0 z"
           id="path4492"
           inkscape:connector-curvature="0" />
      </g>
    </g>
  </g>
</svg>
