<?xml version="1.0" encoding="UTF-8" standalone="no"?>
<!-- Generator: Adobe Illustrator 14.0.0, SVG Export Plug-In . SVG Version: 6.00 Build 43363)  -->

<svg
   xmlns:dc="http://purl.org/dc/elements/1.1/"
   xmlns:cc="http://creativecommons.org/ns#"
   xmlns:rdf="http://www.w3.org/1999/02/22-rdf-syntax-ns#"
   xmlns:svg="http://www.w3.org/2000/svg"
   xmlns="http://www.w3.org/2000/svg"
   xmlns:sodipodi="http://sodipodi.sourceforge.net/DTD/sodipodi-0.dtd"
   xmlns:inkscape="http://www.inkscape.org/namespaces/inkscape"
   version="1.1"
   id="Layer_1"
   x="0px"
   y="0px"
   width="458.35999"
   height="232.23199"
   viewBox="0 0 458.35996 232.232"
   enable-background="new 0 0 595.28 841.891"
   xml:space="preserve"
   inkscape:version="0.48.4 r9939"
   sodipodi:docname="user-group.svg"><metadata
     id="metadata43"><rdf:RDF><cc:Work
         rdf:about=""><dc:format>image/svg+xml</dc:format><dc:type
           rdf:resource="http://purl.org/dc/dcmitype/StillImage" /><dc:title></dc:title></cc:Work></rdf:RDF></metadata><defs
     id="defs41" /><sodipodi:namedview
     pagecolor="#ffffff"
     bordercolor="#666666"
     borderopacity="1"
     objecttolerance="10"
     gridtolerance="10"
     guidetolerance="10"
     inkscape:pageopacity="0"
     inkscape:pageshadow="2"
     inkscape:window-width="918"
     inkscape:window-height="1000"
     id="namedview39"
     showgrid="false"
     fit-margin-top="0"
     fit-margin-left="0"
     fit-margin-right="0"
     fit-margin-bottom="0"
     inkscape:zoom="0.28032133"
     inkscape:cx="-393.36858"
     inkscape:cy="114.0205"
     inkscape:window-x="20"
     inkscape:window-y="39"
     inkscape:window-maximized="0"
     inkscape:current-layer="Layer_1" /><path
     d="m 295.26998,225.106 c -0.07,0 -0.125,-0.035 -0.189,-0.035 h -131.784 c -0.071,0 -0.125,0.035 -0.196,0.035 -1.881,0.107 -3.387,1.631 -3.387,3.548 0,1.971 1.601,3.578 3.583,3.578 h 131.784 c 1.971,0 3.576,-1.607 3.576,-3.578 -0.006,-1.918 -1.506,-3.447 -3.387,-3.548 z"
     id="path3"
     inkscape:connector-curvature="0"
     style="fill:#007e5f" /><g
     id="g5"
     transform="translate(-66.725018,-302.734)"><path
       d="m 294.521,392.759 c 17.215,0 31.383,-19.007 33.223,-43.432 0.227,-1.577 0.352,-3.19 0.375,-4.828 l -5.375,6.174 c 2.965,-6.566 -7.59,-23.264 -7.59,-23.264 -17.781,12.864 -44.229,0 -44.229,0 -7.983,3.148 -4.203,25.591 -4.203,25.591 -1.988,-1.387 -3.822,-2.113 -5.31,-2.482 2.196,23.846 16.179,42.241 33.109,42.241 z"
       id="path7"
       inkscape:connector-curvature="0"
       style="fill:none" /><path
       d="m 326.261,394.336 c -0.189,9.114 -13.709,16.472 -30.353,16.472 -16.644,0 -30.151,-7.357 -30.354,-16.472 -17.876,1.632 -32.996,12.686 -40.443,28.134 H 366.71 c -7.447,-15.449 -22.566,-26.502 -40.449,-28.134 z"
       id="path9"
       inkscape:connector-curvature="0"
       style="fill:#007e5f" /><path
       d="m 256.69,349.131 c 0.03,0.363 0.06,0.72 0.089,1.077 2.417,27.306 18.394,48.402 37.735,48.402 19.604,0 35.746,-21.65 37.836,-49.474 0.285,-1.994 0.436,-4.048 0.436,-6.125 0,-2.084 -0.15,-4.132 -0.436,-6.126 -2.803,-19.341 -18.68,-34.151 -37.836,-34.151 -19.156,0 -35.026,14.823 -37.824,34.169 -0.286,1.988 -0.428,4.036 -0.428,6.108 0,0.851 0.023,1.685 0.071,2.512 0.072,1.221 0.185,2.417 0.357,3.608 z m 14.228,-21.722 c 0,0 26.448,12.864 44.229,0 0,0 10.555,16.703 7.59,23.264 l 5.375,-6.174 c -0.029,1.638 -0.148,3.251 -0.375,4.828 -1.84,24.425 -16.002,43.432 -33.223,43.432 -16.924,0 -30.913,-18.395 -33.109,-42.247 1.488,0.375 3.322,1.096 5.31,2.482 0.006,0 -3.78,-22.437 4.203,-25.585 z"
       id="path11"
       inkscape:connector-curvature="0"
       style="fill:#007e5f" /></g><path
     d="m 310.12898,122.003 h -161.887 c -4.518,0 -8.185,3.667 -8.185,8.186 l 8.185,83.125 c 0,4.518 3.667,8.179 8.185,8.179 h 145.517 c 4.523,0 8.186,-3.661 8.186,-8.179 l 8.184,-83.125 c -0.001,-4.525 -3.667,-8.186 -8.185,-8.186 z m -80.994,56.481 c -3.953,0 -7.161,-3.215 -7.161,-7.167 0,-3.947 3.208,-7.155 7.161,-7.155 3.954,0 7.161,3.208 7.161,7.155 0,3.952 -3.208,7.167 -7.161,7.167 z"
     id="path13"
     inkscape:connector-curvature="0"
     style="fill:#007e5f" /><path
     d="m 441.91298,193.961 c -0.055,0 -0.09,-0.024 -0.133,-0.024 h -94.137 c -0.053,0 -0.096,0.024 -0.137,0.024 -1.346,0.077 -2.41,1.166 -2.41,2.535 0,1.405 1.137,2.554 2.553,2.554 h 94.133 c 1.404,0 2.553,-1.143 2.553,-2.554 -0.006,-1.369 -1.084,-2.458 -2.422,-2.535 z"
     id="path15"
     inkscape:connector-curvature="0"
     style="fill:#007e5f" /><g
     id="g17"
     transform="translate(-66.725018,-302.734)"><path
       d="m 460.437,400.212 c 12.293,0 22.418,-13.572 23.729,-31.021 0.16,-1.125 0.244,-2.279 0.268,-3.452 l -3.84,4.411 c 2.113,-4.691 -5.422,-16.62 -5.422,-16.62 -12.703,9.185 -31.598,0 -31.598,0 -5.703,2.25 -3,18.274 -3,18.274 -1.424,-0.988 -2.727,-1.506 -3.793,-1.773 1.577,17.043 11.566,30.181 23.656,30.181 z"
       id="path19"
       inkscape:connector-curvature="0"
       style="fill:none" /><path
       d="m 483.11,401.337 c -0.137,6.513 -9.791,11.769 -21.68,11.769 -11.893,0 -21.537,-5.256 -21.68,-11.769 -12.775,1.167 -23.572,9.061 -28.895,20.097 H 511.994 C 506.69,410.397 495.88,402.504 483.11,401.337 z"
       id="path21"
       inkscape:connector-curvature="0"
       style="fill:#007e5f" /><path
       d="m 433.417,369.049 c 0.018,0.256 0.041,0.512 0.072,0.768 1.721,19.508 13.131,34.58 26.947,34.58 14.008,0 25.531,-15.465 27.025,-35.336 0.203,-1.429 0.311,-2.887 0.311,-4.375 0,-1.488 -0.107,-2.953 -0.311,-4.375 -2.006,-13.816 -13.34,-24.395 -27.025,-24.395 -13.685,0 -25.02,10.59 -27.02,24.406 -0.201,1.423 -0.309,2.881 -0.309,4.363 0,0.607 0.018,1.202 0.053,1.798 0.056,0.863 0.138,1.72 0.257,2.566 z m 10.162,-15.513 c 0,0 18.895,9.185 31.598,0 0,0 7.541,11.923 5.422,16.62 l 3.84,-4.411 c -0.023,1.173 -0.107,2.321 -0.268,3.452 -1.316,17.448 -11.436,31.021 -23.729,31.021 -12.09,0 -22.078,-13.138 -23.65,-30.175 1.066,0.268 2.363,0.786 3.793,1.773 -0.006,-0.006 -2.709,-16.03 2.994,-18.28 z"
       id="path23"
       inkscape:connector-curvature="0"
       style="fill:#007e5f" /></g><path
     d="m 452.52598,120.318 h -115.633 c -3.232,0 -5.846,2.613 -5.846,5.846 l 5.846,59.373 c 0,3.232 2.613,5.846 5.84,5.846 h 103.941 c 3.232,0 5.846,-2.613 5.846,-5.846 l 5.84,-59.373 c 0.006,-3.232 -2.607,-5.846 -5.834,-5.846 z m -57.855,40.342 c -2.828,0 -5.113,-2.297 -5.113,-5.113 0,-2.827 2.291,-5.113 5.113,-5.113 2.822,0 5.107,2.292 5.107,5.113 0.006,2.822 -2.285,5.113 -5.107,5.113 z"
     id="path25"
     inkscape:connector-curvature="0"
     style="fill:#007e5f" /><path
     d="m 110.86498,193.961 c -0.048,0 -0.089,-0.024 -0.137,-0.024 H 16.601982 c -0.047,0 -0.089,0.024 -0.137,0.024 -1.345,0.077 -2.417,1.166 -2.417,2.535 0,1.405 1.143,2.554 2.554,2.554 h 94.131998 c 1.405,0 2.554,-1.143 2.554,-2.554 0,-1.369 -1.078,-2.458 -2.423,-2.535 z"
     id="path27"
     inkscape:connector-curvature="0"
     style="fill:#007e5f" /><g
     id="g29"
     transform="translate(-66.725018,-302.734)"><path
       d="m 129.396,400.212 c 12.298,0 22.418,-13.572 23.728,-31.021 0.161,-1.125 0.25,-2.279 0.268,-3.452 l -3.839,4.411 c 2.113,-4.691 -5.423,-16.62 -5.423,-16.62 -12.703,9.185 -31.591,0 -31.591,0 -5.703,2.25 -3,18.274 -3,18.274 -1.423,-0.988 -2.727,-1.506 -3.792,-1.773 1.57,17.043 11.559,30.181 23.649,30.181 z"
       id="path31"
       inkscape:connector-curvature="0"
       style="fill:none" /><path
       d="m 152.07,401.337 c -0.137,6.513 -9.792,11.769 -21.68,11.769 -11.894,0 -21.543,-5.256 -21.68,-11.769 -12.769,1.167 -23.567,9.061 -28.895,20.097 h 101.144 c -5.316,-11.037 -16.12,-18.93 -28.889,-20.097 z"
       id="path33"
       inkscape:connector-curvature="0"
       style="fill:#007e5f" /><path
       d="m 102.376,369.049 c 0.018,0.256 0.042,0.512 0.065,0.768 1.726,19.508 13.138,34.58 26.954,34.58 14.007,0 25.538,-15.465 27.026,-35.336 0.202,-1.429 0.31,-2.887 0.31,-4.375 0,-1.488 -0.113,-2.953 -0.31,-4.375 -2.006,-13.816 -13.34,-24.395 -27.026,-24.395 -13.68,0 -25.02,10.59 -27.02,24.406 -0.203,1.423 -0.304,2.881 -0.304,4.363 0,0.607 0.012,1.202 0.047,1.798 0.056,0.863 0.133,1.72 0.258,2.566 z m 10.162,-15.513 c 0,0 18.888,9.185 31.592,0 0,0 7.542,11.923 5.423,16.62 l 3.839,-4.411 c -0.018,1.173 -0.107,2.321 -0.268,3.452 -1.316,17.448 -11.43,31.021 -23.728,31.021 -12.09,0 -22.079,-13.138 -23.65,-30.175 1.065,0.268 2.363,0.786 3.792,1.773 0,-0.006 -2.703,-16.03 3,-18.28 z"
       id="path35"
       inkscape:connector-curvature="0"
       style="fill:#007e5f" /></g><path
     d="M 121.48398,120.318 H 5.8459817 c -3.227,0 -5.845999935077,2.613 -5.845999935077,5.846 L 5.8459817,185.537 c 0,3.232 2.613,5.846 5.8450003,5.846 H 115.62698 c 3.232,0 5.846,-2.613 5.846,-5.846 l 5.84,-59.373 c 0.011,-3.232 -2.602,-5.846 -5.829,-5.846 z M 63.623982,160.66 c -2.822,0 -5.114,-2.297 -5.114,-5.113 0,-2.827 2.292,-5.113 5.114,-5.113 2.827,0 5.113,2.292 5.113,5.113 0.006,2.822 -2.286,5.113 -5.113,5.113 z"
     id="path37"
     inkscape:connector-curvature="0"
     style="fill:#007e5f" /></svg>