<?xml version="1.0" standalone="no"?>
<!DOCTYPE svg PUBLIC "-//W3C//DTD SVG 20010904//EN"
 "http://www.w3.org/TR/2001/REC-SVG-20010904/DTD/svg10.dtd">
<svg version="1.0" xmlns="http://www.w3.org/2000/svg"
 width="700.000000pt" height="700.000000pt" viewBox="0 0 700.000000 700.000000"
 preserveAspectRatio="xMidYMid meet">
<metadata>
Created by potrace 1.11, written by Peter Selinger 2001-2013
</metadata>
<g transform="translate(0.000000,700.000000) scale(0.100000,-0.100000)"
fill="#000000" stroke="none">
<path d="M3471 6620 c0 -169 3 -270 9 -270 6 0 13 0 16 1 4 0 10 -3 13 -8 6
-9 85 -53 291 -161 58 -30 120 -63 137 -74 18 -11 38 -16 44 -12 7 4 9 3 6 -3
-6 -9 29 -32 44 -29 4 0 15 -6 25 -14 21 -17 98 -60 108 -60 4 0 5 111 4 247
l-3 247 -88 53 c-49 29 -94 50 -100 47 -7 -4 -9 -3 -4 1 9 10 -41 45 -66 45
-10 0 -16 4 -13 9 7 11 -43 33 -56 25 -6 -4 -8 -2 -5 3 4 6 -71 56 -174 117
-99 58 -182 106 -184 106 -2 0 -4 -121 -4 -270z"/>
<path d="M3090 6135 l-345 -184 -1 -238 c0 -131 1 -241 3 -245 3 -7 39 9 223
95 41 19 158 74 258 121 101 47 188 86 193 86 5 0 13 9 17 19 7 21 8 518 1
525 -3 3 -160 -78 -349 -179z"/>
<path d="M1835 5945 c-132 -79 -244 -146 -248 -147 -9 -4 -11 -417 -3 -426 3
-2 116 55 253 128 l248 131 0 230 c0 126 -2 229 -5 228 -3 0 -113 -65 -245
-144z"/>
<path d="M4205 5687 l0 -242 90 -44 c109 -53 138 -65 148 -63 4 1 7 -3 7 -9 0
-6 9 -9 20 -6 11 3 18 2 15 -3 -5 -8 48 -34 61 -30 4 1 10 -2 13 -7 7 -10 90
-51 111 -55 8 -2 17 -6 20 -9 3 -3 28 -17 56 -31 l52 -25 1 223 c0 164 -3 225
-12 232 -10 9 -78 46 -149 83 -13 7 -30 16 -38 20 -8 5 -46 25 -85 45 -38 20
-85 45 -102 56 -18 11 -38 16 -44 12 -7 -4 -9 -3 -6 3 10 16 -38 34 -52 20 -9
-9 -11 -8 -6 5 5 13 -4 22 -42 39 -26 12 -50 23 -53 24 -3 2 -5 -106 -5 -238z"/>
<path d="M5365 5559 l0 -211 35 -17 c19 -10 58 -30 85 -46 28 -16 112 -61 188
-101 l137 -72 0 199 0 198 -197 117 c-109 64 -208 123 -220 130 -12 8 -24 14
-25 14 -2 0 -3 -95 -3 -211z m85 -159 c0 -5 -5 -10 -11 -10 -5 0 -7 5 -4 10 3
6 8 10 11 10 2 0 4 -4 4 -10z m315 -60 c3 -5 1 -10 -4 -10 -6 0 -11 5 -11 10
0 6 2 10 4 10 3 0 8 -4 11 -10z m-1 -126 c3 -8 2 -12 -4 -9 -6 3 -10 10 -10
16 0 14 7 11 14 -7z"/>
<path d="M3471 5481 l-1 -268 43 -18 c79 -32 88 -35 99 -29 7 5 8 2 3 -6 -6
-10 -3 -12 13 -8 12 4 20 3 17 -1 -6 -11 154 -73 167 -65 7 5 8 2 3 -6 -6 -10
-3 -12 13 -8 12 4 20 3 17 -1 -2 -5 28 -21 68 -36 40 -15 86 -34 102 -41 17
-7 58 -24 93 -38 l62 -25 0 247 0 247 -81 38 c-44 20 -86 34 -91 30 -6 -3 -8
-2 -5 3 3 6 -9 16 -26 24 -18 7 -78 35 -135 62 -57 27 -108 45 -114 42 -6 -4
-8 -2 -4 4 3 6 -4 14 -16 18 -13 3 -68 29 -122 55 -55 27 -101 49 -102 49 -2
0 -3 -121 -3 -269z m370 6 c-10 -9 -11 -8 -5 6 3 10 9 15 12 12 3 -3 0 -11 -7
-18z m0 -120 c-10 -9 -11 -8 -5 6 3 10 9 15 12 12 3 -3 0 -11 -7 -18z"/>
<path d="M2655 5384 c-142 -65 -237 -110 -491 -230 l-50 -24 0 -225 c0 -124 1
-225 3 -225 4 0 204 79 228 90 11 5 94 39 185 75 91 37 168 70 173 74 4 4 6
115 5 247 l-3 241 -50 -23z"/>
<path d="M4209 5397 c-6 -65 -3 -184 5 -180 5 4 6 1 1 -7 -12 -20 -13 -240 0
-233 6 4 6 1 -1 -6 -6 -7 -9 -22 -7 -34 3 -17 22 -29 76 -50 40 -16 92 -37
117 -47 25 -11 88 -36 140 -56 52 -19 109 -42 125 -49 17 -7 53 -23 82 -34
l52 -20 1 224 1 225 -58 26 c-32 14 -118 55 -192 90 -74 36 -141 62 -148 60
-8 -3 -12 -2 -9 3 5 7 -24 25 -46 30 -5 0 -37 17 -73 36 -40 21 -65 29 -66 22z
m496 -325 c-3 -3 -11 0 -18 7 -9 10 -8 11 6 5 10 -3 15 -9 12 -12z"/>
<path d="M3090 5038 l-346 -139 0 -244 c0 -135 3 -245 6 -245 3 0 160 52 350
115 l345 115 -1 265 c0 145 -2 266 -5 268 -2 2 -159 -59 -349 -135z"/>
<path d="M1470 4832 c-41 -21 -141 -68 -222 -106 l-148 -69 0 -36 c-1 -151 -2
-310 -1 -328 1 -20 15 -16 226 69 l225 90 0 209 c0 115 -1 209 -2 208 -2 0
-37 -17 -78 -37z"/>
<path d="M5364 4657 l0 -203 163 -66 c120 -48 165 -62 174 -54 9 8 10 8 5 -1
-5 -8 3 -17 21 -24 15 -6 39 -16 53 -22 14 -6 28 -12 31 -13 10 -5 5 231 -6
238 -7 5 -7 8 0 8 17 0 12 132 -5 142 -8 4 -62 30 -120 57 -58 27 -149 70
-202 95 -54 25 -101 46 -106 46 -4 0 -7 -91 -8 -203z"/>
<path d="M1830 4533 c-129 -52 -239 -98 -243 -102 -8 -8 -10 -401 -2 -409 2
-3 114 33 249 78 168 57 246 88 248 99 8 37 1 425 -8 427 -5 1 -115 -41 -244
-93z"/>
<path d="M4830 4404 c0 -223 0 -226 20 -221 11 3 18 2 16 -2 -3 -4 84 -36 192
-71 108 -35 202 -67 207 -71 6 -3 24 -9 40 -12 30 -6 31 -5 31 36 0 23 -5 45
-11 49 -6 5 -6 8 0 8 12 0 14 288 2 307 -4 6 -40 24 -80 39 -39 15 -76 31 -81
36 -6 4 -18 8 -27 8 -10 0 -30 7 -46 15 -15 8 -44 21 -63 29 -64 26 -192 76
-196 76 -1 0 -3 -102 -4 -226z"/>
<path d="M3471 4336 l0 -264 47 -12 c26 -7 74 -21 107 -31 33 -10 74 -20 90
-21 17 -2 32 -6 35 -9 6 -7 208 -61 235 -63 11 -1 22 -4 25 -7 3 -3 40 -15 83
-26 l77 -20 0 244 0 243 -27 11 c-15 5 -36 11 -47 12 -12 1 -23 5 -26 9 -6 7
-575 198 -591 198 -5 0 -9 -115 -8 -264z m99 102 c0 -4 -4 -8 -9 -8 -6 0 -12
4 -15 8 -3 5 1 9 9 9 8 0 15 -4 15 -9z m40 -318 c0 -5 -5 -10 -11 -10 -5 0 -7
5 -4 10 3 6 8 10 11 10 2 0 4 -4 4 -10z m460 -154 c0 -3 -4 -8 -10 -11 -5 -3
-10 -1 -10 4 0 6 5 11 10 11 6 0 10 -2 10 -4z"/>
<path d="M2405 4261 l-290 -98 -1 -226 c-1 -203 1 -227 15 -223 9 3 52 15 96
26 44 12 152 41 240 65 88 24 179 49 203 55 l42 11 0 244 c0 135 -3 245 -7
244 -5 0 -138 -44 -298 -98z"/>
<path d="M4209 4358 c-6 -14 -2 -201 4 -205 4 -2 4 -10 0 -16 -12 -19 -10
-206 2 -200 6 3 5 1 -1 -6 -6 -7 -9 -23 -6 -36 3 -19 14 -28 46 -36 22 -7 53
-12 68 -13 14 0 24 -3 22 -6 -8 -7 278 -80 289 -73 6 3 7 1 4 -4 -4 -7 6 -13
26 -16 17 -3 55 -12 84 -20 l52 -15 -2 226 -2 226 -100 33 c-55 18 -110 34
-122 35 -13 1 -23 6 -23 9 0 10 -101 39 -112 33 -4 -3 -8 0 -8 5 0 6 -8 11
-18 11 -10 0 -22 4 -27 8 -6 5 -30 15 -55 22 -25 8 -47 14 -50 15 -3 1 -13 5
-22 9 -9 4 -22 4 -29 0 -8 -4 -9 -3 -5 4 4 7 2 12 -3 12 -6 0 -11 -1 -12 -2z"/>
<path d="M1823 4067 l-242 -81 -3 -192 c-4 -226 -3 -228 25 -221 51 12 69 17
312 83 50 13 108 29 130 35 l40 10 0 221 c-1 132 -5 223 -10 224 -6 1 -119
-34 -252 -79z"/>
<path d="M4830 3926 l0 -224 30 -7 c16 -4 35 -3 41 1 7 4 9 3 6 -3 -7 -11 71
-36 85 -27 4 3 8 0 8 -7 0 -7 11 -10 29 -7 18 3 28 0 24 -5 -4 -6 3 -8 15 -5
12 4 20 3 17 -2 -3 -4 12 -11 33 -16 20 -4 42 -9 47 -10 64 -21 122 -33 133
-29 7 3 10 0 7 -5 -3 -6 2 -10 12 -10 17 0 18 13 17 203 -2 228 -1 218 -11
215 -5 0 -15 1 -23 5 -82 31 -136 47 -147 43 -8 -3 -12 -2 -8 3 3 5 -9 13 -27
17 -42 10 -40 9 -58 17 -16 8 -222 77 -227 77 -2 0 -3 -101 -3 -224z"/>
<path d="M3295 3999 c-77 -21 -176 -49 -220 -61 -44 -13 -82 -23 -85 -23 -21
-2 -227 -60 -236 -66 -7 -6 -10 -88 -8 -246 1 -267 1 -256 13 -249 5 3 55 15
112 26 57 12 113 23 124 25 11 3 110 23 220 45 110 23 207 43 215 45 13 4 15
42 14 270 0 146 -3 267 -5 269 -2 2 -67 -14 -144 -35z"/>
<path d="M3470 3770 l0 -270 23 -5 c13 -4 30 -7 38 -9 8 -1 40 -8 71 -15 32
-7 62 -10 67 -7 5 4 11 2 13 -3 1 -5 21 -11 43 -14 22 -3 47 -8 55 -11 23 -8
82 -18 113 -20 15 0 27 -4 27 -7 0 -3 6 -6 13 -7 6 0 21 -2 32 -5 11 -2 38 -8
60 -12 22 -4 47 -9 55 -11 8 -2 27 -5 42 -8 15 -2 32 -7 37 -11 8 -4 11 71 11
244 0 138 -3 251 -7 252 -9 1 -25 5 -73 18 -19 5 -69 19 -110 30 -41 11 -92
25 -113 31 -20 6 -41 9 -46 5 -5 -3 -11 -1 -13 4 -1 6 -14 12 -28 15 -14 3
-59 15 -100 26 -41 11 -82 22 -91 24 -8 2 -39 11 -67 19 l-51 16 -1 -269z"/>
<path d="M5365 3766 c0 -113 3 -207 6 -210 3 -4 24 -7 46 -9 23 -1 39 -5 37
-8 -2 -3 18 -11 44 -17 26 -7 109 -29 184 -50 l136 -38 4 57 c2 32 1 119 -2
195 l-5 137 -84 28 c-47 15 -88 26 -92 23 -4 -2 -9 0 -11 4 -2 8 -141 58 -181
66 -7 2 -25 8 -40 14 -16 7 -32 12 -36 12 -4 0 -7 -92 -6 -204z"/>
<path d="M2412 3760 c-156 -43 -287 -81 -290 -85 -4 -4 -7 -105 -8 -226 0
-192 2 -219 15 -219 9 1 142 27 296 59 l280 57 3 247 c1 136 -1 247 -5 246 -5
-1 -135 -36 -291 -79z"/>
<path d="M4833 3444 c2 -219 3 -227 22 -230 11 -1 30 -4 41 -7 12 -3 39 -8 60
-11 22 -4 55 -11 74 -16 19 -5 46 -11 60 -14 14 -2 72 -14 130 -25 58 -12 107
-21 110 -21 8 0 5 324 -3 336 -3 6 -3 14 0 18 4 4 8 18 9 31 1 28 -21 39 -96
47 -14 2 -27 5 -30 8 -10 12 -132 40 -142 34 -6 -4 -8 -3 -5 3 4 6 -5 13 -21
16 -15 3 -54 12 -87 21 -33 9 -67 18 -75 20 -8 2 -23 7 -32 11 -16 6 -17 -10
-15 -221z"/>
<path d="M1340 3469 c-96 -26 -192 -53 -212 -59 l-38 -11 0 -189 c0 -115 4
-190 10 -190 8 0 348 68 428 85 22 5 22 6 22 210 0 189 -1 205 -17 204 -10 -1
-97 -23 -193 -50z"/>
<path d="M3471 3198 l-1 -273 33 -2 c38 -2 102 -10 137 -18 14 -3 48 -8 75
-11 60 -6 78 -9 215 -30 58 -9 119 -17 135 -19 17 -2 47 -6 68 -10 l37 -6 -2
247 c-3 210 -5 248 -18 250 -8 2 -28 6 -45 9 -16 3 -41 8 -55 10 -14 3 -34 7
-45 9 -106 21 -219 47 -223 51 -3 3 -12 -1 -20 -8 -9 -6 -13 -7 -9 -1 4 7 -17
15 -56 23 -34 6 -73 14 -87 17 -14 2 -47 9 -73 14 -27 5 -52 12 -57 15 -5 3
-9 -117 -9 -267z m534 -258 c3 -5 1 -10 -4 -10 -6 0 -11 5 -11 10 0 6 2 10 4
10 3 0 8 -4 11 -10z"/>
<path d="M3290 3435 c-58 -12 -197 -41 -310 -64 -113 -23 -212 -44 -220 -46
-14 -4 -16 -39 -16 -250 0 -135 3 -245 6 -245 3 0 68 9 145 20 77 11 156 22
175 25 19 2 85 12 145 20 61 9 133 19 160 22 28 3 55 11 60 17 8 10 13 464 6
519 -1 11 -36 7 -151 -18z"/>
<path d="M2580 3290 c-47 -11 -98 -21 -115 -24 -16 -3 -70 -14 -120 -25 -94
-21 -125 -27 -187 -37 -21 -4 -39 -9 -39 -13 -6 -22 -4 -443 1 -446 4 -2 51 3
106 11 150 22 155 22 209 30 28 3 57 7 65 9 15 3 104 15 145 21 11 1 30 3 43
3 l22 1 0 245 0 245 -22 -1 c-13 -1 -61 -9 -108 -19z"/>
<path d="M4206 3070 c0 -132 2 -241 5 -244 5 -5 123 -19 171 -20 21 -1 38 -5
38 -10 0 -4 16 -6 35 -4 19 2 35 0 35 -6 0 -5 3 -7 6 -3 3 3 16 2 29 -3 14 -5
26 -5 34 3 7 7 11 8 11 0 0 -9 29 -15 145 -29 22 -3 50 -7 63 -10 l22 -4 -2
226 c-3 192 -5 228 -18 230 -87 19 -114 23 -121 18 -5 -3 -9 0 -9 7 0 7 -11
10 -30 7 -16 -2 -31 -1 -32 3 -2 4 -19 11 -38 14 -32 5 -97 17 -160 30 -65 14
-128 26 -155 31 l-30 4 1 -240z"/>
<path d="M2069 3185 c-3 -2 -20 -7 -39 -10 -19 -3 -91 -17 -160 -31 -69 -14
-132 -27 -140 -29 -116 -23 -141 -29 -146 -36 -4 -7 -8 -323 -5 -398 1 -13 56
-12 138 3 36 7 118 18 153 22 19 2 46 6 60 8 14 3 50 8 80 11 30 4 59 11 64
16 11 10 15 438 5 445 -3 2 -8 2 -10 -1z"/>
<path d="M4830 2960 c0 -249 -10 -222 91 -235 25 -3 57 -8 70 -10 13 -2 44 -7
69 -9 25 -3 68 -9 97 -14 35 -6 56 -5 64 2 9 8 10 8 5 -1 -5 -9 0 -13 13 -13
12 0 22 0 24 0 1 -1 18 -5 37 -9 l35 -8 0 81 c0 45 -4 84 -10 88 -6 5 -6 8 0
8 10 0 15 235 5 242 -3 2 -45 12 -95 22 -49 10 -99 20 -110 22 -11 2 -36 7
-55 10 -46 9 -65 13 -92 20 -35 9 -111 23 -130 23 -16 1 -18 -17 -18 -219z"/>
<path d="M1320 3033 c-118 -25 -219 -48 -223 -53 -5 -4 -9 -90 -10 -191 l-2
-184 40 1 c35 1 140 14 245 30 19 3 51 7 70 10 65 8 104 14 107 18 3 3 5 212
4 359 -1 31 -4 56 -8 56 -5 -1 -105 -22 -223 -46z"/>
<path d="M5367 3072 c-2 -4 -3 -97 -3 -207 l1 -199 35 -8 c19 -4 59 -8 87 -10
29 -2 53 -5 53 -8 0 -3 8 -6 18 -6 30 -1 135 -15 141 -18 3 -2 34 -7 69 -10
l62 -6 0 50 c0 33 -4 50 -12 50 -10 0 -10 2 -1 8 13 8 13 169 -1 191 -6 9 -5
12 2 7 9 -5 10 28 3 76 -1 4 -9 7 -18 7 -10 0 -25 1 -33 4 -39 11 -67 17 -90
21 -14 2 -41 7 -60 11 -19 3 -44 8 -55 10 -11 2 -20 4 -20 5 0 1 -9 3 -20 5
-11 2 -36 7 -55 10 -19 4 -36 7 -37 7 -2 -1 -16 3 -33 8 -16 5 -31 5 -33 2z"/>
<path d="M3429 2896 c-2 -2 -26 -7 -54 -10 -88 -12 -269 -37 -295 -41 -21 -3
-103 -15 -289 -41 -18 -2 -36 -6 -40 -8 -4 -3 -7 -114 -7 -248 l1 -243 70 4
c38 1 77 4 86 6 9 2 63 6 120 10 57 4 120 8 139 10 19 2 80 7 135 10 93 7 133
11 145 14 6 1 4 530 -2 536 -3 3 -7 3 -9 1z"/>
<path d="M3472 2629 c3 -233 5 -272 18 -274 8 -1 62 -5 120 -9 58 -4 128 -9
155 -11 99 -9 162 -14 250 -20 50 -4 105 -8 123 -10 l32 -4 0 249 c0 167 -3
250 -10 250 -9 0 -329 44 -400 55 -14 2 -47 7 -75 11 -27 3 -58 8 -69 10 -10
2 -44 6 -75 10 -31 3 -59 8 -64 11 -4 2 -6 -118 -5 -268z"/>
<path d="M2610 2779 c-19 -4 -64 -10 -100 -14 -36 -4 -67 -8 -70 -10 -3 -1
-32 -6 -65 -9 -33 -4 -87 -11 -120 -16 -69 -11 -115 -18 -131 -19 -7 -1 -10
-75 -10 -227 l0 -226 115 7 c64 4 128 8 143 10 14 2 77 7 140 11 62 3 120 8
128 10 8 1 27 3 43 3 l27 1 0 245 0 246 -32 -3 c-18 -1 -49 -5 -68 -9z"/>
<path d="M4205 2552 c0 -132 2 -243 5 -245 6 -6 83 -14 215 -23 50 -3 106 -7
125 -9 19 -2 78 -6 130 -10 52 -4 100 -8 105 -9 6 0 11 82 13 227 2 178 0 227
-10 228 -7 0 -20 2 -28 4 -8 1 -55 8 -105 14 -49 7 -101 14 -115 16 -62 10
-240 35 -285 40 l-50 6 0 -239z"/>
<path d="M1930 2684 c-47 -7 -105 -16 -130 -19 -25 -3 -54 -8 -65 -9 -11 -2
-50 -7 -87 -11 l-68 -8 -1 -36 c0 -40 0 -361 1 -375 0 -7 110 -3 255 9 22 2
85 6 140 10 55 4 102 9 104 11 3 2 5 103 5 224 l1 220 -35 -1 c-19 -1 -73 -7
-120 -15z"/>
<path d="M4830 2475 l0 -225 48 -1 c26 0 54 -2 62 -4 8 -1 65 -5 125 -9 132
-8 226 -16 242 -21 7 -2 16 1 20 8 4 7 8 101 8 209 1 170 -1 199 -15 202 -8 3
-69 12 -135 21 -66 9 -131 18 -145 20 -67 11 -167 25 -187 25 l-23 0 0 -225z"/>
<path d="M1360 2604 c-85 -13 -180 -26 -210 -30 -30 -3 -57 -8 -60 -10 -2 -3
-5 -90 -6 -195 l-2 -190 92 6 c50 4 111 8 136 10 25 2 88 7 140 11 52 3 96 7
98 8 1 2 2 72 3 157 1 264 1 259 -18 258 -10 -1 -88 -12 -173 -25z"/>
<path d="M5362 2425 c0 -113 3 -207 6 -209 4 -2 50 -7 102 -11 52 -3 111 -8
130 -10 19 -1 79 -6 133 -10 l97 -7 -2 194 -3 193 -115 17 c-63 9 -140 19
-170 22 -56 6 -103 13 -151 22 l-26 5 -1 -206z"/>
<path d="M3418 2325 c-1 -1 -43 -6 -93 -9 -92 -7 -181 -14 -270 -21 -27 -3
-93 -7 -145 -11 -52 -4 -106 -8 -120 -9 -14 -2 -30 -3 -35 -4 -14 -1 -15 -491
0 -492 15 -1 67 -1 395 1 l295 2 0 269 c0 194 -3 270 -12 273 -6 3 -13 3 -15
1z"/>
<path d="M3470 2057 l0 -275 258 -2 c367 -2 374 -2 410 -1 l32 1 0 245 c0 135
-3 246 -7 246 -12 2 -60 6 -158 13 -91 6 -154 12 -255 20 -30 3 -102 8 -160
12 -58 3 -108 8 -112 11 -5 2 -8 -119 -8 -270z"/>
<path d="M2627 2264 c-1 -1 -47 -5 -102 -9 -55 -3 -113 -8 -130 -10 -38 -5
-245 -18 -265 -17 -14 0 -16 -28 -16 -229 l0 -230 298 3 298 3 0 247 0 248
-41 -3 c-22 -1 -41 -3 -42 -3z"/>
<path d="M4209 2263 c-4 -27 -3 -483 1 -484 34 -7 200 -2 200 6 0 5 5 3 10 -5
9 -13 11 -13 20 0 5 8 10 10 10 5 0 -7 61 -11 174 -12 l175 -2 0 224 c0 177
-3 224 -13 228 -8 3 -19 0 -26 -6 -9 -9 -11 -9 -6 -1 4 8 -9 13 -39 16 -25 2
-45 -1 -45 -6 0 -4 -6 -4 -12 1 -7 6 -29 10 -48 11 -19 0 -64 3 -100 6 -36 3
-92 8 -125 11 -33 2 -86 7 -117 10 -32 4 -59 3 -59 -2z"/>
<path d="M1988 2215 c-2 -2 -52 -6 -113 -10 -60 -4 -128 -9 -150 -10 -22 -2
-62 -5 -88 -6 -26 -1 -50 -5 -52 -10 -5 -6 -7 -159 -6 -334 l1 -80 243 3 c133
1 247 4 252 6 8 3 12 318 6 429 -1 14 -9 17 -46 15 -25 0 -46 -2 -47 -3z"/>
<path d="M4830 1996 l0 -225 223 -1 c122 -1 236 -2 252 -3 l30 -3 0 208 c0
132 -3 208 -10 209 -5 1 -19 3 -30 4 -11 2 -63 6 -115 10 -52 4 -113 8 -135
10 -22 2 -79 6 -127 9 l-88 7 0 -225z"/>
<path d="M1447 2173 c-1 0 -45 -4 -97 -7 -167 -11 -255 -18 -261 -22 -4 -2 -7
-89 -8 -194 l-2 -190 236 3 235 2 0 57 c1 32 1 114 1 183 0 69 0 136 -1 150 0
24 -3 25 -51 23 -28 -2 -51 -4 -52 -5z"/>
<path d="M5364 2108 c0 -40 5 -76 11 -80 7 -5 7 -8 0 -8 -14 0 -14 -250 0
-251 66 -6 443 -4 450 2 6 4 10 21 9 36 -1 15 -3 98 -3 184 l-1 157 -40 0
c-22 0 -44 4 -50 7 -5 3 -10 1 -10 -5 0 -6 -5 -8 -12 -3 -17 10 -22 10 -141
17 -56 4 -127 9 -157 12 l-55 5 -1 -73z"/>
<path d="M2300 1740 l-185 -5 -1 -222 c0 -123 2 -223 5 -224 11 -2 226 -15
421 -25 58 -3 120 -7 138 -9 l32 -5 0 245 c0 189 -3 245 -12 246 -39 4 -237 3
-398 -1z"/>
<path d="M2749 1745 c-5 -1 -4 -477 1 -484 3 -5 59 -12 125 -16 66 -3 145 -8
175 -10 30 -2 116 -6 190 -9 74 -4 151 -9 170 -12 l35 -5 -1 268 -1 268 -346
0 c-191 0 -348 0 -348 0z"/>
<path d="M3470 1481 l0 -270 38 4 c20 2 89 7 152 10 114 5 284 15 370 20 25 2
66 4 93 4 l47 1 0 248 0 248 -350 2 -350 3 0 -270z"/>
<path d="M4211 1740 c-4 -3 -7 -113 -6 -246 l0 -240 35 2 c19 1 82 4 140 8 58
3 157 8 220 12 97 5 150 9 193 13 4 1 7 102 7 226 l0 225 -192 1 c-106 0 -237
1 -291 2 -55 1 -102 0 -106 -3z"/>
<path d="M1308 1732 l-228 -2 -1 -140 c-2 -260 -3 -246 19 -246 25 -1 263 -14
367 -20 l90 -6 -3 204 c-2 111 -6 205 -10 208 -4 3 -109 4 -234 2z"/>
<path d="M1584 1729 c-7 -11 -6 -400 0 -407 4 -3 19 -7 34 -8 88 -5 356 -17
406 -18 l60 -1 0 205 c1 113 0 212 -2 221 -3 15 -28 17 -249 15 -135 0 -247
-4 -249 -7z"/>
<path d="M4830 1513 l0 -225 88 6 c172 10 338 19 374 20 21 1 39 3 39 6 1 3 3
97 4 210 l2 205 -254 1 -253 2 0 -225z"/>
<path d="M5362 1525 l0 -206 87 5 c163 10 346 19 367 20 21 0 21 2 19 181 -2
99 -3 186 -4 193 -1 9 -55 12 -235 12 l-233 0 -1 -205z"/>
<path d="M1079 1309 c-3 -16 -5 -356 -2 -365 4 -12 40 -19 138 -30 28 -2 113
-13 190 -23 77 -10 141 -17 143 -16 4 4 4 406 0 410 -7 6 -468 29 -469 24z"/>
<path d="M5657 1304 c-1 -1 -65 -5 -142 -9 -77 -4 -143 -9 -147 -11 -3 -2 -6
-95 -5 -207 2 -228 -8 -206 87 -194 25 4 104 14 175 22 72 9 141 18 155 20 14
2 33 4 43 4 16 1 17 14 15 189 l-3 187 -88 1 c-48 0 -88 0 -90 -2z"/>
<path d="M1584 1279 c-7 -11 -7 -399 0 -406 4 -4 20 -6 121 -18 28 -4 100 -12
160 -20 61 -8 135 -17 165 -20 l55 -6 -1 221 c-1 121 -3 222 -5 224 -4 4 -136
13 -329 22 -68 3 -132 8 -142 9 -10 2 -20 -1 -24 -6z"/>
<path d="M5276 1283 c-1 -2 -47 -5 -102 -8 -54 -2 -148 -8 -209 -11 -60 -4
-115 -7 -122 -7 -9 0 -12 -59 -12 -224 l-1 -223 28 4 c15 2 58 7 95 11 37 3
78 8 90 11 12 2 49 6 82 9 33 3 71 8 85 10 14 2 48 6 76 10 l50 6 -1 72 c0 40
-5 78 -9 86 -6 8 -5 12 0 8 6 -3 9 46 9 121 l0 127 -28 0 c-16 0 -30 -1 -31
-2z"/>
<path d="M2123 1252 c-6 -5 -10 -89 -10 -224 1 -245 -7 -222 87 -233 30 -3 66
-8 80 -10 14 -3 50 -7 80 -10 30 -3 71 -7 90 -10 19 -2 55 -7 80 -10 89 -10
135 -16 158 -21 l22 -4 0 245 c0 135 -3 245 -7 246 -54 6 -101 9 -418 25 -60
3 -119 7 -131 9 -11 2 -25 0 -31 -3z"/>
<path d="M4725 1252 c-27 -2 -53 -9 -57 -15 -5 -8 -8 -9 -8 -1 0 7 -16 10 -42
8 -24 -1 -43 -3 -43 -4 0 0 -56 -3 -125 -6 -69 -2 -145 -6 -170 -8 -25 -3 -52
-5 -60 -5 -13 -1 -15 -35 -14 -244 0 -144 4 -241 10 -240 5 1 37 4 71 8 34 3
72 8 85 11 13 2 46 6 73 8 50 4 146 16 175 22 8 1 32 3 53 3 21 1 36 4 34 9
-3 4 16 7 41 7 l47 0 2 226 c2 173 0 225 -10 225 -6 -1 -34 -2 -62 -4z"/>
<path d="M2745 976 c-1 -161 3 -246 10 -247 5 0 17 -2 26 -4 8 -1 40 -6 70 -9
30 -4 68 -8 84 -10 17 -3 62 -7 100 -11 39 -4 72 -9 75 -10 3 -2 37 -6 75 -10
39 -4 81 -8 95 -11 14 -2 52 -7 85 -10 33 -4 63 -8 66 -10 4 -2 9 2 11 9 6 20
2 516 -5 523 -6 7 -38 9 -222 19 -122 6 -177 9 -365 20 l-105 6 0 -245z"/>
<path d="M4057 1214 c-1 -1 -56 -5 -122 -8 -231 -12 -320 -17 -370 -21 -27 -2
-60 -4 -72 -4 l-22 -1 -1 -271 c0 -185 3 -268 10 -264 6 4 32 8 59 10 27 2 66
6 87 9 22 3 64 8 94 12 30 3 58 11 62 17 6 9 8 8 8 -1 0 -8 7 -11 18 -8 18 5
88 14 162 22 86 8 135 14 168 20 l32 6 0 243 0 243 -56 -1 c-31 -1 -56 -3 -57
-3z m-290 -459 c0 -8 -4 -12 -9 -9 -5 3 -6 10 -3 15 9 13 12 11 12 -6z"/>
<path d="M1078 893 c-8 -14 -7 -393 1 -393 3 0 105 -18 226 -40 121 -22 225
-40 232 -40 10 0 13 46 13 210 0 116 -3 210 -7 211 -5 0 -15 2 -24 4 -8 1 -42
6 -75 9 -32 4 -72 9 -89 11 -16 2 -73 9 -125 15 -52 6 -107 13 -122 16 -14 3
-28 2 -30 -3z"/>
<path d="M5809 896 c-2 -2 -35 -7 -74 -10 -38 -4 -81 -8 -95 -10 -14 -3 -50
-7 -80 -11 -91 -10 -154 -17 -170 -21 -8 -1 -18 -3 -21 -3 -4 -1 -6 -96 -7
-212 l0 -210 42 5 c59 9 95 15 146 26 25 5 99 19 164 30 66 11 121 21 122 23
5 5 6 52 5 220 -1 140 -4 177 -14 177 -8 0 -16 -2 -18 -4z"/>
<path d="M1580 627 l0 -215 28 -6 c15 -3 81 -15 147 -27 66 -11 122 -22 125
-24 3 -2 29 -6 57 -10 29 -3 65 -10 80 -14 71 -18 67 -31 66 217 0 122 -2 225
-5 227 -2 2 -29 7 -59 10 -30 3 -65 7 -79 10 -14 2 -50 6 -80 10 -30 4 -66 8
-80 10 -14 2 -52 6 -85 10 -33 3 -72 8 -87 11 l-28 6 0 -215z"/>
<path d="M5180 820 c-69 -10 -150 -20 -180 -23 -30 -3 -81 -9 -112 -13 l-58
-7 0 -228 c0 -126 3 -229 8 -229 4 0 52 9 107 19 55 11 114 22 130 24 26 4
181 33 225 42 8 2 20 4 26 4 7 1 10 71 10 214 0 184 -3 213 -16 213 -8 0 -71
-7 -140 -16z"/>
<path d="M2114 547 c0 -124 3 -227 6 -229 5 -5 94 -24 150 -33 19 -3 80 -14
135 -25 55 -10 123 -22 150 -25 28 -4 53 -9 56 -11 3 -1 26 -6 52 -9 l47 -7 0
246 c0 135 -3 247 -7 247 -13 2 -45 6 -103 13 -30 4 -127 16 -215 27 -88 11
-185 23 -216 26 l-57 5 2 -225z"/>
<path d="M4595 749 c-66 -9 -145 -19 -175 -22 -108 -12 -155 -18 -175 -22 -11
-2 -25 -4 -30 -4 -6 -1 -10 -90 -10 -247 l0 -246 40 6 c22 3 112 18 200 35 88
16 204 38 258 47 l97 18 0 228 0 229 -42 -3 c-24 -2 -97 -10 -163 -19z"/>
<path d="M2749 697 c-5 -6 -3 -497 1 -497 3 -1 158 -29 345 -64 260 -48 341
-59 345 -49 8 19 4 512 -4 520 -4 4 -12 8 -19 9 -22 3 -121 15 -167 20 -25 2
-79 9 -120 14 -41 5 -97 12 -125 15 -27 3 -61 8 -75 10 -14 3 -52 7 -85 11
-33 3 -68 8 -77 10 -10 1 -19 2 -19 1z"/>
<path d="M3930 669 c-124 -15 -241 -30 -260 -33 -19 -2 -64 -8 -100 -12 -36
-4 -72 -8 -80 -9 -13 -2 -15 -41 -18 -275 -2 -235 0 -271 12 -267 8 3 43 11
78 17 186 33 510 92 556 101 l52 10 0 250 c0 137 -3 249 -7 248 -5 -1 -109
-14 -233 -30z"/>
</g>
</svg>
